G04*
G04 #@! TF.GenerationSoftware,Altium Limited,Altium Designer,21.9.2 (33)*
G04*
G04 Layer_Physical_Order=2*
G04 Layer_Color=16711680*
%FSLAX25Y25*%
%MOIN*%
G70*
G04*
G04 #@! TF.SameCoordinates,86937909-DB1A-4A49-A316-6C6AAAB68E2C*
G04*
G04*
G04 #@! TF.FilePolarity,Positive*
G04*
G01*
G75*
%ADD52C,0.02000*%
%ADD54C,0.05000*%
%ADD55C,0.04000*%
%ADD56C,0.02500*%
%ADD57C,0.06500*%
%ADD58R,0.06500X0.06500*%
%ADD59C,0.14500*%
%ADD60C,0.03543*%
%ADD61R,0.10000X0.10000*%
%ADD62C,0.10000*%
%ADD63R,0.06500X0.06500*%
%ADD64C,0.07000*%
%ADD65R,0.07000X0.07000*%
%ADD66C,0.05000*%
%ADD67C,0.18000*%
G36*
X598165Y1835D02*
X1835D01*
Y398165D01*
X598165D01*
X598165Y1835D01*
D02*
G37*
%LPC*%
G36*
X362500Y376721D02*
Y373000D01*
X366221D01*
X366141Y373609D01*
X365712Y374643D01*
X365031Y375531D01*
X364143Y376212D01*
X363109Y376641D01*
X362500Y376721D01*
D02*
G37*
G36*
X361500D02*
X360891Y376641D01*
X359857Y376212D01*
X358969Y375531D01*
X358288Y374643D01*
X357859Y373609D01*
X357779Y373000D01*
X361500D01*
Y376721D01*
D02*
G37*
G36*
X376050Y376550D02*
X367950D01*
Y368450D01*
X376050D01*
Y376550D01*
D02*
G37*
G36*
X352000Y376585D02*
X350943Y376446D01*
X349957Y376038D01*
X349112Y375389D01*
X348462Y374542D01*
X348054Y373557D01*
X347915Y372500D01*
X348054Y371443D01*
X348462Y370458D01*
X349112Y369612D01*
X349957Y368962D01*
X350943Y368554D01*
X352000Y368415D01*
X353057Y368554D01*
X354043Y368962D01*
X354889Y369612D01*
X355538Y370458D01*
X355946Y371443D01*
X356085Y372500D01*
X355946Y373557D01*
X355538Y374542D01*
X354889Y375389D01*
X354043Y376038D01*
X353057Y376446D01*
X352000Y376585D01*
D02*
G37*
G36*
X342000D02*
X340943Y376446D01*
X339957Y376038D01*
X339111Y375389D01*
X338462Y374542D01*
X338054Y373557D01*
X337915Y372500D01*
X338054Y371443D01*
X338462Y370458D01*
X339111Y369612D01*
X339957Y368962D01*
X340943Y368554D01*
X342000Y368415D01*
X343057Y368554D01*
X344042Y368962D01*
X344888Y369612D01*
X345538Y370458D01*
X345946Y371443D01*
X346085Y372500D01*
X345946Y373557D01*
X345538Y374542D01*
X344888Y375389D01*
X344042Y376038D01*
X343057Y376446D01*
X342000Y376585D01*
D02*
G37*
G36*
X332000D02*
X330943Y376446D01*
X329958Y376038D01*
X329112Y375389D01*
X328462Y374542D01*
X328054Y373557D01*
X327915Y372500D01*
X328054Y371443D01*
X328462Y370458D01*
X329112Y369612D01*
X329958Y368962D01*
X330943Y368554D01*
X332000Y368415D01*
X333057Y368554D01*
X334043Y368962D01*
X334889Y369612D01*
X335538Y370458D01*
X335946Y371443D01*
X336085Y372500D01*
X335946Y373557D01*
X335538Y374542D01*
X334889Y375389D01*
X334043Y376038D01*
X333057Y376446D01*
X332000Y376585D01*
D02*
G37*
G36*
X322000D02*
X320943Y376446D01*
X319957Y376038D01*
X319111Y375389D01*
X318462Y374542D01*
X318054Y373557D01*
X317915Y372500D01*
X318054Y371443D01*
X318462Y370458D01*
X319111Y369612D01*
X319957Y368962D01*
X320943Y368554D01*
X322000Y368415D01*
X323057Y368554D01*
X324043Y368962D01*
X324888Y369612D01*
X325538Y370458D01*
X325946Y371443D01*
X326085Y372500D01*
X325946Y373557D01*
X325538Y374542D01*
X324888Y375389D01*
X324043Y376038D01*
X323057Y376446D01*
X322000Y376585D01*
D02*
G37*
G36*
X312000D02*
X310943Y376446D01*
X309958Y376038D01*
X309111Y375389D01*
X308462Y374542D01*
X308054Y373557D01*
X307915Y372500D01*
X308054Y371443D01*
X308462Y370458D01*
X309111Y369612D01*
X309958Y368962D01*
X310943Y368554D01*
X312000Y368415D01*
X313057Y368554D01*
X314042Y368962D01*
X314889Y369612D01*
X315538Y370458D01*
X315946Y371443D01*
X316085Y372500D01*
X315946Y373557D01*
X315538Y374542D01*
X314889Y375389D01*
X314042Y376038D01*
X313057Y376446D01*
X312000Y376585D01*
D02*
G37*
G36*
X366221Y372000D02*
X362500D01*
Y368279D01*
X363109Y368359D01*
X364143Y368788D01*
X365031Y369469D01*
X365712Y370357D01*
X366141Y371391D01*
X366221Y372000D01*
D02*
G37*
G36*
X361500D02*
X357779D01*
X357859Y371391D01*
X358288Y370357D01*
X358969Y369469D01*
X359857Y368788D01*
X360891Y368359D01*
X361500Y368279D01*
Y372000D01*
D02*
G37*
G36*
X388918Y385950D02*
X386899Y385751D01*
X384958Y385162D01*
X383168Y384206D01*
X381600Y382919D01*
X380313Y381350D01*
X379356Y379561D01*
X378767Y377620D01*
X378569Y375600D01*
X378767Y373581D01*
X379356Y371640D01*
X380313Y369850D01*
X381600Y368282D01*
X383168Y366995D01*
X384958Y366038D01*
X386899Y365449D01*
X388918Y365250D01*
X390938Y365449D01*
X392879Y366038D01*
X394669Y366995D01*
X396237Y368282D01*
X397524Y369850D01*
X398480Y371640D01*
X399069Y373581D01*
X399268Y375600D01*
X399069Y377620D01*
X398480Y379561D01*
X397524Y381350D01*
X396237Y382919D01*
X394669Y384206D01*
X392879Y385162D01*
X390938Y385751D01*
X388918Y385950D01*
D02*
G37*
G36*
X575000Y391335D02*
X572868Y391195D01*
X570772Y390778D01*
X568749Y390091D01*
X566832Y389146D01*
X565056Y387959D01*
X563449Y386551D01*
X562041Y384944D01*
X560853Y383168D01*
X559908Y381251D01*
X559222Y379228D01*
X558805Y377132D01*
X558665Y375000D01*
X558805Y372868D01*
X559222Y370772D01*
X559908Y368749D01*
X560853Y366832D01*
X562041Y365056D01*
X563449Y363449D01*
X565056Y362041D01*
X566832Y360854D01*
X568749Y359909D01*
X570772Y359222D01*
X572868Y358805D01*
X575000Y358665D01*
X577132Y358805D01*
X579228Y359222D01*
X581251Y359909D01*
X583168Y360854D01*
X584944Y362041D01*
X586551Y363449D01*
X587959Y365056D01*
X589147Y366832D01*
X590092Y368749D01*
X590778Y370772D01*
X591195Y372868D01*
X591335Y375000D01*
X591195Y377132D01*
X590778Y379228D01*
X590092Y381251D01*
X589147Y383168D01*
X587959Y384944D01*
X586551Y386551D01*
X584944Y387959D01*
X583168Y389146D01*
X581251Y390091D01*
X579228Y390778D01*
X577132Y391195D01*
X575000Y391335D01*
D02*
G37*
G36*
X25000D02*
X22868Y391195D01*
X20772Y390778D01*
X18749Y390091D01*
X16833Y389146D01*
X15056Y387959D01*
X13449Y386551D01*
X12041Y384944D01*
X10853Y383168D01*
X9909Y381251D01*
X9222Y379228D01*
X8805Y377132D01*
X8665Y375000D01*
X8805Y372868D01*
X9222Y370772D01*
X9909Y368749D01*
X10853Y366832D01*
X12041Y365056D01*
X13449Y363449D01*
X15056Y362041D01*
X16833Y360854D01*
X18749Y359909D01*
X20772Y359222D01*
X22868Y358805D01*
X25000Y358665D01*
X27132Y358805D01*
X29228Y359222D01*
X31251Y359909D01*
X33167Y360854D01*
X34944Y362041D01*
X36551Y363449D01*
X37959Y365056D01*
X39147Y366832D01*
X40091Y368749D01*
X40778Y370772D01*
X41195Y372868D01*
X41335Y375000D01*
X41195Y377132D01*
X40778Y379228D01*
X40091Y381251D01*
X39147Y383168D01*
X37959Y384944D01*
X36551Y386551D01*
X34944Y387959D01*
X33167Y389146D01*
X31251Y390091D01*
X29228Y390778D01*
X27132Y391195D01*
X25000Y391335D01*
D02*
G37*
G36*
X302000Y376585D02*
X300943Y376446D01*
X299957Y376038D01*
X299112Y375389D01*
X298462Y374542D01*
X298054Y373557D01*
X297915Y372500D01*
X298054Y371443D01*
X298462Y370458D01*
X299112Y369612D01*
X299957Y368962D01*
X300165Y368877D01*
Y357751D01*
X299646Y357354D01*
X299117Y356664D01*
X298785Y355861D01*
X298672Y355000D01*
X298785Y354138D01*
X299117Y353336D01*
X299646Y352646D01*
X300336Y352117D01*
X301138Y351785D01*
X302000Y351672D01*
X302861Y351785D01*
X303664Y352117D01*
X304354Y352646D01*
X304883Y353336D01*
X305215Y354138D01*
X305328Y355000D01*
X305215Y355861D01*
X304883Y356664D01*
X304354Y357354D01*
X303835Y357751D01*
Y368877D01*
X304043Y368962D01*
X304889Y369612D01*
X305538Y370458D01*
X305946Y371443D01*
X306085Y372500D01*
X305946Y373557D01*
X305538Y374542D01*
X304889Y375389D01*
X304043Y376038D01*
X303057Y376446D01*
X302000Y376585D01*
D02*
G37*
G36*
X283800Y385950D02*
X281781Y385751D01*
X279840Y385162D01*
X278050Y384206D01*
X276482Y382919D01*
X275195Y381350D01*
X274238Y379561D01*
X273649Y377620D01*
X273450Y375600D01*
X273649Y373581D01*
X274238Y371640D01*
X275195Y369850D01*
X276482Y368282D01*
X278050Y366995D01*
X279840Y366038D01*
X281781Y365449D01*
X282182Y365410D01*
X282409Y364885D01*
X282131Y364522D01*
X281799Y363719D01*
X281685Y362858D01*
X281799Y361997D01*
X282131Y361194D01*
X282660Y360504D01*
X283178Y360107D01*
Y352762D01*
X282646Y352354D01*
X282118Y351664D01*
X281785Y350862D01*
X281672Y350000D01*
X281785Y349138D01*
X282118Y348336D01*
X282646Y347646D01*
X283336Y347117D01*
X284138Y346785D01*
X285000Y346672D01*
X285861Y346785D01*
X286664Y347117D01*
X287354Y347646D01*
X287882Y348336D01*
X288215Y349138D01*
X288329Y350000D01*
X288215Y350862D01*
X287882Y351664D01*
X287354Y352354D01*
X286849Y352741D01*
Y360107D01*
X287367Y360504D01*
X287896Y361194D01*
X288229Y361997D01*
X288342Y362858D01*
X288229Y363719D01*
X287896Y364522D01*
X287367Y365212D01*
X287141Y365385D01*
X287230Y365877D01*
X287761Y366038D01*
X289550Y366995D01*
X291119Y368282D01*
X292406Y369850D01*
X293362Y371640D01*
X293951Y373581D01*
X294150Y375600D01*
X293951Y377620D01*
X293362Y379561D01*
X292406Y381350D01*
X291119Y382919D01*
X289550Y384206D01*
X287761Y385162D01*
X285820Y385751D01*
X283800Y385950D01*
D02*
G37*
G36*
X110500Y329473D02*
Y325500D01*
X114473D01*
X114384Y326175D01*
X113931Y327269D01*
X113209Y328209D01*
X112269Y328931D01*
X111175Y329384D01*
X110500Y329473D01*
D02*
G37*
G36*
X109500D02*
X108825Y329384D01*
X107731Y328931D01*
X106791Y328209D01*
X106069Y327269D01*
X105616Y326175D01*
X105527Y325500D01*
X109500D01*
Y329473D01*
D02*
G37*
G36*
X358000Y322328D02*
X357138Y322215D01*
X356336Y321883D01*
X355646Y321354D01*
X355249Y320835D01*
X293751D01*
X293354Y321354D01*
X292664Y321883D01*
X291862Y322215D01*
X291000Y322328D01*
X290139Y322215D01*
X289336Y321883D01*
X288646Y321354D01*
X288118Y320664D01*
X287785Y319862D01*
X287671Y319000D01*
X287785Y318139D01*
X288118Y317336D01*
X288646Y316646D01*
X289336Y316118D01*
X290139Y315785D01*
X291000Y315671D01*
X291862Y315785D01*
X292664Y316118D01*
X293354Y316646D01*
X293751Y317165D01*
X355249D01*
X355646Y316646D01*
X356336Y316118D01*
X357138Y315785D01*
X358000Y315671D01*
X358861Y315785D01*
X359664Y316118D01*
X360354Y316646D01*
X360882Y317336D01*
X361215Y318139D01*
X361329Y319000D01*
X361215Y319862D01*
X360882Y320664D01*
X360354Y321354D01*
X359664Y321883D01*
X358861Y322215D01*
X358000Y322328D01*
D02*
G37*
G36*
X200000Y329337D02*
X198878Y329189D01*
X197831Y328756D01*
X196933Y328067D01*
X196244Y327169D01*
X195811Y326122D01*
X195663Y325000D01*
X195811Y323878D01*
X196244Y322831D01*
X196933Y321933D01*
X197831Y321244D01*
X198878Y320811D01*
X200000Y320663D01*
X201122Y320811D01*
X202169Y321244D01*
X203067Y321933D01*
X203756Y322831D01*
X204189Y323878D01*
X204337Y325000D01*
X204189Y326122D01*
X203756Y327169D01*
X203067Y328067D01*
X202169Y328756D01*
X201122Y329189D01*
X200000Y329337D01*
D02*
G37*
G36*
X190000D02*
X188877Y329189D01*
X187831Y328756D01*
X186933Y328067D01*
X186244Y327169D01*
X185811Y326122D01*
X185663Y325000D01*
X185811Y323878D01*
X186244Y322831D01*
X186933Y321933D01*
X187831Y321244D01*
X188877Y320811D01*
X190000Y320663D01*
X191122Y320811D01*
X192169Y321244D01*
X193067Y321933D01*
X193756Y322831D01*
X194189Y323878D01*
X194337Y325000D01*
X194189Y326122D01*
X193756Y327169D01*
X193067Y328067D01*
X192169Y328756D01*
X191122Y329189D01*
X190000Y329337D01*
D02*
G37*
G36*
X180000D02*
X178877Y329189D01*
X177831Y328756D01*
X176933Y328067D01*
X176244Y327169D01*
X175811Y326122D01*
X175663Y325000D01*
X175811Y323878D01*
X176244Y322831D01*
X176933Y321933D01*
X177831Y321244D01*
X178877Y320811D01*
X180000Y320663D01*
X181123Y320811D01*
X182169Y321244D01*
X183067Y321933D01*
X183756Y322831D01*
X184189Y323878D01*
X184337Y325000D01*
X184189Y326122D01*
X183756Y327169D01*
X183067Y328067D01*
X182169Y328756D01*
X181123Y329189D01*
X180000Y329337D01*
D02*
G37*
G36*
X170000Y340329D02*
X169139Y340215D01*
X168336Y339882D01*
X167646Y339354D01*
X167118Y338664D01*
X166785Y337861D01*
X166672Y337000D01*
Y327726D01*
X166244Y327169D01*
X165811Y326122D01*
X165663Y325000D01*
X165811Y323878D01*
X166244Y322831D01*
X166933Y321933D01*
X167831Y321244D01*
X168877Y320811D01*
X170000Y320663D01*
X171123Y320811D01*
X172169Y321244D01*
X173067Y321933D01*
X173756Y322831D01*
X174189Y323878D01*
X174337Y325000D01*
X174189Y326122D01*
X173756Y327169D01*
X173328Y327726D01*
Y337000D01*
X173215Y337861D01*
X172882Y338664D01*
X172354Y339354D01*
X171664Y339882D01*
X170861Y340215D01*
X170000Y340329D01*
D02*
G37*
G36*
X160000Y329337D02*
X158878Y329189D01*
X157831Y328756D01*
X156933Y328067D01*
X156244Y327169D01*
X155811Y326122D01*
X155663Y325000D01*
X155811Y323878D01*
X156244Y322831D01*
X156933Y321933D01*
X157831Y321244D01*
X158878Y320811D01*
X160000Y320663D01*
X161123Y320811D01*
X162169Y321244D01*
X163067Y321933D01*
X163756Y322831D01*
X164189Y323878D01*
X164337Y325000D01*
X164189Y326122D01*
X163756Y327169D01*
X163067Y328067D01*
X162169Y328756D01*
X161123Y329189D01*
X160000Y329337D01*
D02*
G37*
G36*
X150000D02*
X148878Y329189D01*
X147831Y328756D01*
X146933Y328067D01*
X146244Y327169D01*
X145811Y326122D01*
X145663Y325000D01*
X145811Y323878D01*
X146244Y322831D01*
X146933Y321933D01*
X147831Y321244D01*
X148878Y320811D01*
X150000Y320663D01*
X151122Y320811D01*
X152169Y321244D01*
X153067Y321933D01*
X153756Y322831D01*
X154189Y323878D01*
X154337Y325000D01*
X154189Y326122D01*
X153756Y327169D01*
X153067Y328067D01*
X152169Y328756D01*
X151122Y329189D01*
X150000Y329337D01*
D02*
G37*
G36*
X140000D02*
X138877Y329189D01*
X137831Y328756D01*
X136933Y328067D01*
X136244Y327169D01*
X135811Y326122D01*
X135663Y325000D01*
X135811Y323878D01*
X136244Y322831D01*
X136933Y321933D01*
X137831Y321244D01*
X138877Y320811D01*
X140000Y320663D01*
X141122Y320811D01*
X142169Y321244D01*
X143067Y321933D01*
X143756Y322831D01*
X144189Y323878D01*
X144337Y325000D01*
X144189Y326122D01*
X143756Y327169D01*
X143067Y328067D01*
X142169Y328756D01*
X141122Y329189D01*
X140000Y329337D01*
D02*
G37*
G36*
X130000D02*
X128877Y329189D01*
X127831Y328756D01*
X126933Y328067D01*
X126244Y327169D01*
X125811Y326122D01*
X125663Y325000D01*
X125811Y323878D01*
X126244Y322831D01*
X126933Y321933D01*
X127831Y321244D01*
X128877Y320811D01*
X130000Y320663D01*
X131123Y320811D01*
X132169Y321244D01*
X133067Y321933D01*
X133756Y322831D01*
X134189Y323878D01*
X134337Y325000D01*
X134189Y326122D01*
X133756Y327169D01*
X133067Y328067D01*
X132169Y328756D01*
X131123Y329189D01*
X130000Y329337D01*
D02*
G37*
G36*
X120000D02*
X118877Y329189D01*
X117831Y328756D01*
X116933Y328067D01*
X116244Y327169D01*
X115811Y326122D01*
X115663Y325000D01*
X115811Y323878D01*
X116244Y322831D01*
X116933Y321933D01*
X117831Y321244D01*
X118877Y320811D01*
X120000Y320663D01*
X121123Y320811D01*
X122169Y321244D01*
X123067Y321933D01*
X123756Y322831D01*
X124189Y323878D01*
X124337Y325000D01*
X124189Y326122D01*
X123756Y327169D01*
X123067Y328067D01*
X122169Y328756D01*
X121123Y329189D01*
X120000Y329337D01*
D02*
G37*
G36*
X100000D02*
X98878Y329189D01*
X97831Y328756D01*
X96933Y328067D01*
X96244Y327169D01*
X95811Y326122D01*
X95663Y325000D01*
X95811Y323878D01*
X96244Y322831D01*
X96933Y321933D01*
X97831Y321244D01*
X98878Y320811D01*
X100000Y320663D01*
X101122Y320811D01*
X102169Y321244D01*
X103067Y321933D01*
X103756Y322831D01*
X104189Y323878D01*
X104337Y325000D01*
X104189Y326122D01*
X103756Y327169D01*
X103067Y328067D01*
X102169Y328756D01*
X101122Y329189D01*
X100000Y329337D01*
D02*
G37*
G36*
X90000D02*
X88877Y329189D01*
X87831Y328756D01*
X86933Y328067D01*
X86244Y327169D01*
X85811Y326122D01*
X85663Y325000D01*
X85811Y323878D01*
X86244Y322831D01*
X86933Y321933D01*
X87831Y321244D01*
X88877Y320811D01*
X90000Y320663D01*
X91123Y320811D01*
X92169Y321244D01*
X93067Y321933D01*
X93756Y322831D01*
X94189Y323878D01*
X94337Y325000D01*
X94189Y326122D01*
X93756Y327169D01*
X93067Y328067D01*
X92169Y328756D01*
X91123Y329189D01*
X90000Y329337D01*
D02*
G37*
G36*
X80000D02*
X78878Y329189D01*
X77831Y328756D01*
X76933Y328067D01*
X76244Y327169D01*
X75811Y326122D01*
X75663Y325000D01*
X75811Y323878D01*
X76244Y322831D01*
X76933Y321933D01*
X77831Y321244D01*
X78878Y320811D01*
X80000Y320663D01*
X81122Y320811D01*
X82169Y321244D01*
X83067Y321933D01*
X83756Y322831D01*
X84189Y323878D01*
X84337Y325000D01*
X84189Y326122D01*
X83756Y327169D01*
X83067Y328067D01*
X82169Y328756D01*
X81122Y329189D01*
X80000Y329337D01*
D02*
G37*
G36*
X70000D02*
X68878Y329189D01*
X67831Y328756D01*
X66933Y328067D01*
X66244Y327169D01*
X65811Y326122D01*
X65663Y325000D01*
X65811Y323878D01*
X66244Y322831D01*
X66933Y321933D01*
X67831Y321244D01*
X68878Y320811D01*
X70000Y320663D01*
X71122Y320811D01*
X72169Y321244D01*
X73067Y321933D01*
X73756Y322831D01*
X74189Y323878D01*
X74337Y325000D01*
X74189Y326122D01*
X73756Y327169D01*
X73067Y328067D01*
X72169Y328756D01*
X71122Y329189D01*
X70000Y329337D01*
D02*
G37*
G36*
X60000D02*
X58877Y329189D01*
X57831Y328756D01*
X56933Y328067D01*
X56244Y327169D01*
X55811Y326122D01*
X55663Y325000D01*
X55811Y323878D01*
X56244Y322831D01*
X56933Y321933D01*
X57831Y321244D01*
X58877Y320811D01*
X60000Y320663D01*
X61123Y320811D01*
X62169Y321244D01*
X63067Y321933D01*
X63756Y322831D01*
X64189Y323878D01*
X64337Y325000D01*
X64189Y326122D01*
X63756Y327169D01*
X63067Y328067D01*
X62169Y328756D01*
X61123Y329189D01*
X60000Y329337D01*
D02*
G37*
G36*
X50000D02*
X48878Y329189D01*
X47831Y328756D01*
X46933Y328067D01*
X46244Y327169D01*
X45811Y326122D01*
X45663Y325000D01*
X45811Y323878D01*
X46244Y322831D01*
X46933Y321933D01*
X47831Y321244D01*
X48878Y320811D01*
X50000Y320663D01*
X51122Y320811D01*
X52169Y321244D01*
X53067Y321933D01*
X53756Y322831D01*
X54189Y323878D01*
X54337Y325000D01*
X54189Y326122D01*
X53756Y327169D01*
X53067Y328067D01*
X52169Y328756D01*
X51122Y329189D01*
X50000Y329337D01*
D02*
G37*
G36*
X40000D02*
X38877Y329189D01*
X37832Y328756D01*
X36933Y328067D01*
X36244Y327169D01*
X35811Y326122D01*
X35663Y325000D01*
X35811Y323878D01*
X36244Y322831D01*
X36933Y321933D01*
X37832Y321244D01*
X38877Y320811D01*
X40000Y320663D01*
X41122Y320811D01*
X42169Y321244D01*
X43067Y321933D01*
X43756Y322831D01*
X44189Y323878D01*
X44337Y325000D01*
X44189Y326122D01*
X43756Y327169D01*
X43067Y328067D01*
X42169Y328756D01*
X41122Y329189D01*
X40000Y329337D01*
D02*
G37*
G36*
X30000D02*
X28877Y329189D01*
X27832Y328756D01*
X26933Y328067D01*
X26244Y327169D01*
X25811Y326122D01*
X25663Y325000D01*
X25811Y323878D01*
X26244Y322831D01*
X26933Y321933D01*
X27832Y321244D01*
X28877Y320811D01*
X30000Y320663D01*
X31122Y320811D01*
X32168Y321244D01*
X33067Y321933D01*
X33756Y322831D01*
X34189Y323878D01*
X34337Y325000D01*
X34189Y326122D01*
X33756Y327169D01*
X33067Y328067D01*
X32168Y328756D01*
X31122Y329189D01*
X30000Y329337D01*
D02*
G37*
G36*
X20000D02*
X18878Y329189D01*
X17831Y328756D01*
X16933Y328067D01*
X16244Y327169D01*
X15811Y326122D01*
X15663Y325000D01*
X15811Y323878D01*
X16244Y322831D01*
X16933Y321933D01*
X17831Y321244D01*
X18878Y320811D01*
X20000Y320663D01*
X21123Y320811D01*
X22169Y321244D01*
X23067Y321933D01*
X23756Y322831D01*
X24189Y323878D01*
X24337Y325000D01*
X24189Y326122D01*
X23756Y327169D01*
X23067Y328067D01*
X22169Y328756D01*
X21123Y329189D01*
X20000Y329337D01*
D02*
G37*
G36*
X114473Y324500D02*
X110500D01*
Y320527D01*
X111175Y320616D01*
X112269Y321069D01*
X113209Y321791D01*
X113931Y322731D01*
X114384Y323825D01*
X114473Y324500D01*
D02*
G37*
G36*
X109500D02*
X105527D01*
X105616Y323825D01*
X106069Y322731D01*
X106791Y321791D01*
X107731Y321069D01*
X108825Y320616D01*
X109500Y320527D01*
Y324500D01*
D02*
G37*
G36*
X60500Y319473D02*
Y315500D01*
X64473D01*
X64384Y316175D01*
X63931Y317269D01*
X63209Y318209D01*
X62269Y318931D01*
X61175Y319384D01*
X60500Y319473D01*
D02*
G37*
G36*
X59500D02*
X58825Y319384D01*
X57731Y318931D01*
X56791Y318209D01*
X56069Y317269D01*
X55616Y316175D01*
X55527Y315500D01*
X59500D01*
Y319473D01*
D02*
G37*
G36*
X571661Y316594D02*
X570990Y316506D01*
X570365Y316246D01*
X569827Y315834D01*
X569415Y315297D01*
X569156Y314671D01*
X569068Y314000D01*
X569156Y313329D01*
X569415Y312703D01*
X569827Y312166D01*
X570365Y311754D01*
X570990Y311494D01*
X571661Y311406D01*
X572333Y311494D01*
X572958Y311754D01*
X573495Y312166D01*
X573908Y312703D01*
X574167Y313329D01*
X574255Y314000D01*
X574167Y314671D01*
X573908Y315297D01*
X573495Y315834D01*
X572958Y316246D01*
X572333Y316506D01*
X571661Y316594D01*
D02*
G37*
G36*
X24300Y319300D02*
X15700D01*
Y310700D01*
X24300D01*
Y319300D01*
D02*
G37*
G36*
X200000Y319337D02*
X198878Y319189D01*
X197831Y318756D01*
X196933Y318067D01*
X196244Y317169D01*
X195811Y316123D01*
X195663Y315000D01*
X195811Y313878D01*
X196244Y312831D01*
X196933Y311933D01*
X197831Y311244D01*
X198878Y310811D01*
X200000Y310663D01*
X201122Y310811D01*
X202169Y311244D01*
X203067Y311933D01*
X203756Y312831D01*
X204189Y313878D01*
X204337Y315000D01*
X204189Y316123D01*
X203756Y317169D01*
X203067Y318067D01*
X202169Y318756D01*
X201122Y319189D01*
X200000Y319337D01*
D02*
G37*
G36*
X190000D02*
X188877Y319189D01*
X187831Y318756D01*
X186933Y318067D01*
X186244Y317169D01*
X185811Y316123D01*
X185663Y315000D01*
X185811Y313878D01*
X186244Y312831D01*
X186933Y311933D01*
X187831Y311244D01*
X188877Y310811D01*
X190000Y310663D01*
X191122Y310811D01*
X192169Y311244D01*
X193067Y311933D01*
X193756Y312831D01*
X194189Y313878D01*
X194337Y315000D01*
X194189Y316123D01*
X193756Y317169D01*
X193067Y318067D01*
X192169Y318756D01*
X191122Y319189D01*
X190000Y319337D01*
D02*
G37*
G36*
X180000D02*
X178877Y319189D01*
X177831Y318756D01*
X176933Y318067D01*
X176244Y317169D01*
X175811Y316123D01*
X175663Y315000D01*
X175811Y313878D01*
X176244Y312831D01*
X176933Y311933D01*
X177831Y311244D01*
X178877Y310811D01*
X180000Y310663D01*
X181123Y310811D01*
X182169Y311244D01*
X183067Y311933D01*
X183756Y312831D01*
X184189Y313878D01*
X184337Y315000D01*
X184189Y316123D01*
X183756Y317169D01*
X183067Y318067D01*
X182169Y318756D01*
X181123Y319189D01*
X180000Y319337D01*
D02*
G37*
G36*
X170000D02*
X168877Y319189D01*
X167831Y318756D01*
X166933Y318067D01*
X166244Y317169D01*
X165811Y316123D01*
X165663Y315000D01*
X165811Y313878D01*
X166244Y312831D01*
X166933Y311933D01*
X167831Y311244D01*
X168877Y310811D01*
X170000Y310663D01*
X171123Y310811D01*
X172169Y311244D01*
X173067Y311933D01*
X173756Y312831D01*
X174189Y313878D01*
X174337Y315000D01*
X174189Y316123D01*
X173756Y317169D01*
X173067Y318067D01*
X172169Y318756D01*
X171123Y319189D01*
X170000Y319337D01*
D02*
G37*
G36*
X160000D02*
X158878Y319189D01*
X157831Y318756D01*
X156933Y318067D01*
X156244Y317169D01*
X155811Y316123D01*
X155663Y315000D01*
X155811Y313878D01*
X156244Y312831D01*
X156933Y311933D01*
X157831Y311244D01*
X158878Y310811D01*
X160000Y310663D01*
X161123Y310811D01*
X162169Y311244D01*
X163067Y311933D01*
X163756Y312831D01*
X164189Y313878D01*
X164337Y315000D01*
X164189Y316123D01*
X163756Y317169D01*
X163067Y318067D01*
X162169Y318756D01*
X161123Y319189D01*
X160000Y319337D01*
D02*
G37*
G36*
X150000D02*
X148878Y319189D01*
X147831Y318756D01*
X146933Y318067D01*
X146244Y317169D01*
X145811Y316123D01*
X145663Y315000D01*
X145811Y313878D01*
X146244Y312831D01*
X146933Y311933D01*
X147831Y311244D01*
X148878Y310811D01*
X150000Y310663D01*
X151122Y310811D01*
X152169Y311244D01*
X153067Y311933D01*
X153756Y312831D01*
X154189Y313878D01*
X154337Y315000D01*
X154189Y316123D01*
X153756Y317169D01*
X153067Y318067D01*
X152169Y318756D01*
X151122Y319189D01*
X150000Y319337D01*
D02*
G37*
G36*
X140000D02*
X138877Y319189D01*
X137831Y318756D01*
X136933Y318067D01*
X136244Y317169D01*
X135811Y316123D01*
X135663Y315000D01*
X135811Y313878D01*
X136244Y312831D01*
X136933Y311933D01*
X137831Y311244D01*
X138877Y310811D01*
X140000Y310663D01*
X141122Y310811D01*
X142169Y311244D01*
X143067Y311933D01*
X143756Y312831D01*
X144189Y313878D01*
X144337Y315000D01*
X144189Y316123D01*
X143756Y317169D01*
X143067Y318067D01*
X142169Y318756D01*
X141122Y319189D01*
X140000Y319337D01*
D02*
G37*
G36*
X110000D02*
X108878Y319189D01*
X107831Y318756D01*
X106933Y318067D01*
X106244Y317169D01*
X105811Y316123D01*
X105663Y315000D01*
X105811Y313878D01*
X106244Y312831D01*
X106933Y311933D01*
X107831Y311244D01*
X108878Y310811D01*
X110000Y310663D01*
X111123Y310811D01*
X112169Y311244D01*
X113067Y311933D01*
X113756Y312831D01*
X114189Y313878D01*
X114337Y315000D01*
X114189Y316123D01*
X113756Y317169D01*
X113067Y318067D01*
X112169Y318756D01*
X111123Y319189D01*
X110000Y319337D01*
D02*
G37*
G36*
X100000D02*
X98878Y319189D01*
X97831Y318756D01*
X96933Y318067D01*
X96244Y317169D01*
X95811Y316123D01*
X95663Y315000D01*
X95811Y313878D01*
X96244Y312831D01*
X96933Y311933D01*
X97831Y311244D01*
X98878Y310811D01*
X100000Y310663D01*
X101122Y310811D01*
X102169Y311244D01*
X103067Y311933D01*
X103756Y312831D01*
X104189Y313878D01*
X104337Y315000D01*
X104189Y316123D01*
X103756Y317169D01*
X103067Y318067D01*
X102169Y318756D01*
X101122Y319189D01*
X100000Y319337D01*
D02*
G37*
G36*
X90000D02*
X88877Y319189D01*
X87831Y318756D01*
X86933Y318067D01*
X86244Y317169D01*
X85811Y316123D01*
X85663Y315000D01*
X85811Y313878D01*
X86244Y312831D01*
X86933Y311933D01*
X87831Y311244D01*
X88877Y310811D01*
X90000Y310663D01*
X91123Y310811D01*
X92169Y311244D01*
X93067Y311933D01*
X93756Y312831D01*
X94189Y313878D01*
X94337Y315000D01*
X94189Y316123D01*
X93756Y317169D01*
X93067Y318067D01*
X92169Y318756D01*
X91123Y319189D01*
X90000Y319337D01*
D02*
G37*
G36*
X80000D02*
X78878Y319189D01*
X77831Y318756D01*
X76933Y318067D01*
X76244Y317169D01*
X75811Y316123D01*
X75663Y315000D01*
X75811Y313878D01*
X76244Y312831D01*
X76933Y311933D01*
X77831Y311244D01*
X78878Y310811D01*
X80000Y310663D01*
X81122Y310811D01*
X82169Y311244D01*
X83067Y311933D01*
X83756Y312831D01*
X84189Y313878D01*
X84337Y315000D01*
X84189Y316123D01*
X83756Y317169D01*
X83067Y318067D01*
X82169Y318756D01*
X81122Y319189D01*
X80000Y319337D01*
D02*
G37*
G36*
X70000D02*
X68878Y319189D01*
X67831Y318756D01*
X66933Y318067D01*
X66244Y317169D01*
X65811Y316123D01*
X65663Y315000D01*
X65811Y313878D01*
X66244Y312831D01*
X66933Y311933D01*
X67831Y311244D01*
X68878Y310811D01*
X70000Y310663D01*
X71122Y310811D01*
X72169Y311244D01*
X73067Y311933D01*
X73756Y312831D01*
X74189Y313878D01*
X74337Y315000D01*
X74189Y316123D01*
X73756Y317169D01*
X73067Y318067D01*
X72169Y318756D01*
X71122Y319189D01*
X70000Y319337D01*
D02*
G37*
G36*
X50000D02*
X48878Y319189D01*
X47831Y318756D01*
X46933Y318067D01*
X46244Y317169D01*
X45811Y316123D01*
X45663Y315000D01*
X45811Y313878D01*
X46244Y312831D01*
X46933Y311933D01*
X47831Y311244D01*
X48878Y310811D01*
X50000Y310663D01*
X51122Y310811D01*
X52169Y311244D01*
X53067Y311933D01*
X53756Y312831D01*
X54189Y313878D01*
X54337Y315000D01*
X54189Y316123D01*
X53756Y317169D01*
X53067Y318067D01*
X52169Y318756D01*
X51122Y319189D01*
X50000Y319337D01*
D02*
G37*
G36*
X40000D02*
X38877Y319189D01*
X37832Y318756D01*
X36933Y318067D01*
X36244Y317169D01*
X35811Y316123D01*
X35663Y315000D01*
X35811Y313878D01*
X36244Y312831D01*
X36933Y311933D01*
X37832Y311244D01*
X38877Y310811D01*
X40000Y310663D01*
X41122Y310811D01*
X42169Y311244D01*
X43067Y311933D01*
X43756Y312831D01*
X44189Y313878D01*
X44337Y315000D01*
X44189Y316123D01*
X43756Y317169D01*
X43067Y318067D01*
X42169Y318756D01*
X41122Y319189D01*
X40000Y319337D01*
D02*
G37*
G36*
X30000D02*
X28877Y319189D01*
X27832Y318756D01*
X26933Y318067D01*
X26244Y317169D01*
X25811Y316123D01*
X25663Y315000D01*
X25811Y313878D01*
X26244Y312831D01*
X26933Y311933D01*
X27832Y311244D01*
X28877Y310811D01*
X30000Y310663D01*
X31122Y310811D01*
X32168Y311244D01*
X33067Y311933D01*
X33756Y312831D01*
X34189Y313878D01*
X34337Y315000D01*
X34189Y316123D01*
X33756Y317169D01*
X33067Y318067D01*
X32168Y318756D01*
X31122Y319189D01*
X30000Y319337D01*
D02*
G37*
G36*
X64473Y314500D02*
X60500D01*
Y310527D01*
X61175Y310616D01*
X62269Y311069D01*
X63209Y311791D01*
X63931Y312731D01*
X64384Y313825D01*
X64473Y314500D01*
D02*
G37*
G36*
X59500D02*
X55527D01*
X55616Y313825D01*
X56069Y312731D01*
X56791Y311791D01*
X57731Y311069D01*
X58825Y310616D01*
X59500Y310527D01*
Y314500D01*
D02*
G37*
G36*
X332000Y308329D02*
X331138Y308215D01*
X330336Y307882D01*
X329646Y307354D01*
X329249Y306835D01*
X293751D01*
X293354Y307354D01*
X292664Y307882D01*
X291862Y308215D01*
X291000Y308329D01*
X290139Y308215D01*
X289336Y307882D01*
X288646Y307354D01*
X288118Y306664D01*
X287785Y305861D01*
X287671Y305000D01*
X287785Y304138D01*
X288118Y303336D01*
X288646Y302646D01*
X289336Y302117D01*
X290139Y301785D01*
X291000Y301672D01*
X291862Y301785D01*
X292664Y302117D01*
X293354Y302646D01*
X293751Y303165D01*
X329249D01*
X329646Y302646D01*
X330336Y302117D01*
X331138Y301785D01*
X332000Y301672D01*
X332861Y301785D01*
X333664Y302117D01*
X334354Y302646D01*
X334882Y303336D01*
X335215Y304138D01*
X335329Y305000D01*
X335215Y305861D01*
X334882Y306664D01*
X334354Y307354D01*
X333664Y307882D01*
X332861Y308215D01*
X332000Y308329D01*
D02*
G37*
G36*
Y295328D02*
X331138Y295215D01*
X330336Y294882D01*
X330260Y294824D01*
X309740D01*
X309664Y294882D01*
X308861Y295215D01*
X308000Y295328D01*
X307138Y295215D01*
X306336Y294882D01*
X305646Y294354D01*
X305118Y293664D01*
X304785Y292862D01*
X304672Y292000D01*
X304785Y291139D01*
X305118Y290336D01*
X305646Y289646D01*
X306336Y289118D01*
X307138Y288785D01*
X308000Y288671D01*
X308861Y288785D01*
X309664Y289118D01*
X309740Y289176D01*
X330260D01*
X330336Y289118D01*
X331138Y288785D01*
X332000Y288671D01*
X332861Y288785D01*
X333664Y289118D01*
X334354Y289646D01*
X334882Y290336D01*
X335215Y291139D01*
X335329Y292000D01*
X335215Y292862D01*
X334882Y293664D01*
X334354Y294354D01*
X333664Y294882D01*
X332861Y295215D01*
X332000Y295328D01*
D02*
G37*
G36*
X571661Y299271D02*
X570990Y299183D01*
X570365Y298923D01*
X569827Y298511D01*
X569415Y297974D01*
X569156Y297348D01*
X569068Y296677D01*
X569156Y296006D01*
X569415Y295380D01*
X569827Y294843D01*
X570365Y294431D01*
X570990Y294172D01*
X571661Y294083D01*
X572333Y294172D01*
X572958Y294431D01*
X573495Y294843D01*
X573908Y295380D01*
X574167Y296006D01*
X574255Y296677D01*
X574167Y297348D01*
X573908Y297974D01*
X573495Y298511D01*
X572958Y298923D01*
X572333Y299183D01*
X571661Y299271D01*
D02*
G37*
G36*
X120000Y319337D02*
X118877Y319189D01*
X117831Y318756D01*
X116933Y318067D01*
X116244Y317169D01*
X115811Y316123D01*
X115663Y315000D01*
X115811Y313878D01*
X116244Y312831D01*
X116933Y311933D01*
X117831Y311244D01*
X118165Y311106D01*
Y287751D01*
X117646Y287354D01*
X117118Y286664D01*
X116785Y285861D01*
X116672Y285000D01*
X116785Y284138D01*
X117118Y283336D01*
X117646Y282646D01*
X118336Y282118D01*
X119139Y281785D01*
X120000Y281672D01*
X120861Y281785D01*
X121664Y282118D01*
X122354Y282646D01*
X122882Y283336D01*
X123215Y284138D01*
X123328Y285000D01*
X123215Y285861D01*
X122882Y286664D01*
X122354Y287354D01*
X121835Y287751D01*
Y311106D01*
X122169Y311244D01*
X123067Y311933D01*
X123756Y312831D01*
X124189Y313878D01*
X124337Y315000D01*
X124189Y316123D01*
X123756Y317169D01*
X123067Y318067D01*
X122169Y318756D01*
X121123Y319189D01*
X120000Y319337D01*
D02*
G37*
G36*
X130000D02*
X128877Y319189D01*
X127831Y318756D01*
X126933Y318067D01*
X126244Y317169D01*
X125811Y316123D01*
X125663Y315000D01*
X125811Y313878D01*
X126244Y312831D01*
X126933Y311933D01*
X127831Y311244D01*
X127910Y311211D01*
Y272556D01*
X127646Y272354D01*
X127118Y271664D01*
X126785Y270862D01*
X126672Y270000D01*
X126785Y269139D01*
X127118Y268336D01*
X127646Y267646D01*
X128336Y267118D01*
X129139Y266785D01*
X130000Y266671D01*
X130861Y266785D01*
X131664Y267118D01*
X132354Y267646D01*
X132882Y268336D01*
X133215Y269139D01*
X133328Y270000D01*
X133215Y270862D01*
X132882Y271664D01*
X132354Y272354D01*
X132090Y272556D01*
Y311211D01*
X132169Y311244D01*
X133067Y311933D01*
X133756Y312831D01*
X134189Y313878D01*
X134337Y315000D01*
X134189Y316123D01*
X133756Y317169D01*
X133067Y318067D01*
X132169Y318756D01*
X131123Y319189D01*
X130000Y319337D01*
D02*
G37*
G36*
X297204Y290329D02*
X296342Y290215D01*
X295540Y289882D01*
X294850Y289354D01*
X294321Y288664D01*
X293989Y287861D01*
X293875Y287000D01*
X293989Y286139D01*
X294321Y285336D01*
X294850Y284646D01*
X295369Y284249D01*
Y271751D01*
X294850Y271354D01*
X294321Y270664D01*
X293989Y269862D01*
X293875Y269000D01*
X293989Y268139D01*
X294321Y267336D01*
X294850Y266646D01*
X295540Y266118D01*
X296342Y265785D01*
X297204Y265671D01*
X298065Y265785D01*
X298868Y266118D01*
X299557Y266646D01*
X300086Y267336D01*
X300419Y268139D01*
X300532Y269000D01*
X300419Y269862D01*
X300086Y270664D01*
X299557Y271354D01*
X299039Y271751D01*
Y284249D01*
X299557Y284646D01*
X300086Y285336D01*
X300419Y286139D01*
X300532Y287000D01*
X300419Y287861D01*
X300086Y288664D01*
X299557Y289354D01*
X298868Y289882D01*
X298065Y290215D01*
X297204Y290329D01*
D02*
G37*
G36*
X322000Y262329D02*
X321139Y262215D01*
X320336Y261882D01*
X319646Y261354D01*
X319249Y260835D01*
X298751D01*
X298354Y261354D01*
X297664Y261882D01*
X296862Y262215D01*
X296000Y262329D01*
X295139Y262215D01*
X294336Y261882D01*
X293646Y261354D01*
X293117Y260664D01*
X292785Y259861D01*
X292671Y259000D01*
X292785Y258138D01*
X293117Y257336D01*
X293646Y256646D01*
X294336Y256118D01*
X295139Y255785D01*
X296000Y255672D01*
X296862Y255785D01*
X297664Y256118D01*
X298354Y256646D01*
X298751Y257165D01*
X319249D01*
X319646Y256646D01*
X320336Y256118D01*
X321139Y255785D01*
X322000Y255672D01*
X322862Y255785D01*
X323664Y256118D01*
X324354Y256646D01*
X324883Y257336D01*
X325215Y258138D01*
X325328Y259000D01*
X325215Y259861D01*
X324883Y260664D01*
X324354Y261354D01*
X323664Y261882D01*
X322862Y262215D01*
X322000Y262329D01*
D02*
G37*
G36*
X388918Y259966D02*
X386899Y259767D01*
X384958Y259178D01*
X383168Y258222D01*
X381600Y256934D01*
X380313Y255366D01*
X379356Y253577D01*
X378767Y251635D01*
X378569Y249616D01*
X378767Y247597D01*
X379356Y245655D01*
X380313Y243866D01*
X381600Y242298D01*
X383168Y241010D01*
X384958Y240054D01*
X386899Y239465D01*
X388918Y239266D01*
X390938Y239465D01*
X392879Y240054D01*
X394669Y241010D01*
X396237Y242298D01*
X397524Y243866D01*
X398480Y245655D01*
X399069Y247597D01*
X399268Y249616D01*
X399069Y251635D01*
X398480Y253577D01*
X397524Y255366D01*
X396237Y256934D01*
X394669Y258222D01*
X392879Y259178D01*
X390938Y259767D01*
X388918Y259966D01*
D02*
G37*
G36*
X283800D02*
X281781Y259767D01*
X279840Y259178D01*
X278050Y258222D01*
X276482Y256934D01*
X275195Y255366D01*
X274238Y253577D01*
X273649Y251635D01*
X273450Y249616D01*
X273649Y247597D01*
X274238Y245655D01*
X275195Y243866D01*
X276482Y242298D01*
X278050Y241010D01*
X279840Y240054D01*
X281781Y239465D01*
X283800Y239266D01*
X285820Y239465D01*
X287761Y240054D01*
X289550Y241010D01*
X291119Y242298D01*
X292406Y243866D01*
X293362Y245655D01*
X293951Y247597D01*
X294150Y249616D01*
X293951Y251635D01*
X293362Y253577D01*
X292406Y255366D01*
X291119Y256934D01*
X289550Y258222D01*
X287761Y259178D01*
X285820Y259767D01*
X283800Y259966D01*
D02*
G37*
G36*
X360000Y215329D02*
X359138Y215215D01*
X358336Y214882D01*
X357646Y214354D01*
X357249Y213835D01*
X217751D01*
X217354Y214354D01*
X216664Y214882D01*
X215862Y215215D01*
X215000Y215329D01*
X214139Y215215D01*
X213336Y214882D01*
X212646Y214354D01*
X212118Y213664D01*
X211785Y212861D01*
X211671Y212000D01*
X211785Y211139D01*
X212118Y210336D01*
X212646Y209646D01*
X213336Y209118D01*
X214139Y208785D01*
X215000Y208671D01*
X215862Y208785D01*
X216664Y209118D01*
X217354Y209646D01*
X217751Y210165D01*
X357249D01*
X357646Y209646D01*
X358336Y209118D01*
X359138Y208785D01*
X360000Y208671D01*
X360861Y208785D01*
X361664Y209118D01*
X362354Y209646D01*
X362882Y210336D01*
X363215Y211139D01*
X363329Y212000D01*
X363215Y212861D01*
X362882Y213664D01*
X362354Y214354D01*
X361664Y214882D01*
X360861Y215215D01*
X360000Y215329D01*
D02*
G37*
G36*
Y207329D02*
X359138Y207215D01*
X358336Y206883D01*
X357646Y206354D01*
X357249Y205835D01*
X217751D01*
X217354Y206354D01*
X216664Y206883D01*
X215862Y207215D01*
X215000Y207329D01*
X214139Y207215D01*
X213336Y206883D01*
X212646Y206354D01*
X212118Y205664D01*
X211785Y204861D01*
X211671Y204000D01*
X211785Y203138D01*
X212118Y202336D01*
X212646Y201646D01*
X213336Y201117D01*
X214139Y200785D01*
X215000Y200672D01*
X215862Y200785D01*
X216664Y201117D01*
X217354Y201646D01*
X217751Y202165D01*
X357249D01*
X357646Y201646D01*
X358336Y201117D01*
X359138Y200785D01*
X360000Y200672D01*
X360861Y200785D01*
X361664Y201117D01*
X362354Y201646D01*
X362882Y202336D01*
X363215Y203138D01*
X363329Y204000D01*
X363215Y204861D01*
X362882Y205664D01*
X362354Y206354D01*
X361664Y206883D01*
X360861Y207215D01*
X360000Y207329D01*
D02*
G37*
G36*
Y199328D02*
X359138Y199215D01*
X358336Y198882D01*
X357646Y198354D01*
X357249Y197835D01*
X217751D01*
X217354Y198354D01*
X216664Y198882D01*
X215862Y199215D01*
X215000Y199328D01*
X214139Y199215D01*
X213336Y198882D01*
X212646Y198354D01*
X212118Y197664D01*
X211785Y196862D01*
X211671Y196000D01*
X211785Y195139D01*
X212118Y194336D01*
X212646Y193646D01*
X213336Y193117D01*
X214139Y192785D01*
X215000Y192672D01*
X215862Y192785D01*
X216664Y193117D01*
X217354Y193646D01*
X217751Y194165D01*
X357249D01*
X357646Y193646D01*
X358336Y193117D01*
X359138Y192785D01*
X360000Y192672D01*
X360861Y192785D01*
X361664Y193117D01*
X362354Y193646D01*
X362882Y194336D01*
X363215Y195139D01*
X363329Y196000D01*
X363215Y196862D01*
X362882Y197664D01*
X362354Y198354D01*
X361664Y198882D01*
X360861Y199215D01*
X360000Y199328D01*
D02*
G37*
G36*
Y191329D02*
X359138Y191215D01*
X358336Y190883D01*
X357646Y190354D01*
X357249Y189835D01*
X217751D01*
X217354Y190354D01*
X216664Y190883D01*
X215862Y191215D01*
X215000Y191329D01*
X214139Y191215D01*
X213336Y190883D01*
X212646Y190354D01*
X212118Y189664D01*
X211785Y188862D01*
X211671Y188000D01*
X211785Y187138D01*
X212118Y186336D01*
X212646Y185646D01*
X213336Y185117D01*
X214139Y184785D01*
X215000Y184671D01*
X215862Y184785D01*
X216664Y185117D01*
X217354Y185646D01*
X217751Y186165D01*
X357249D01*
X357646Y185646D01*
X358336Y185117D01*
X359138Y184785D01*
X360000Y184671D01*
X360861Y184785D01*
X361664Y185117D01*
X362354Y185646D01*
X362882Y186336D01*
X363215Y187138D01*
X363329Y188000D01*
X363215Y188862D01*
X362882Y189664D01*
X362354Y190354D01*
X361664Y190883D01*
X360861Y191215D01*
X360000Y191329D01*
D02*
G37*
G36*
X325000Y184328D02*
X324138Y184215D01*
X323336Y183882D01*
X322646Y183354D01*
X322117Y182664D01*
X321785Y181861D01*
X321781Y181835D01*
X217751D01*
X217354Y182354D01*
X216664Y182882D01*
X215862Y183215D01*
X215000Y183328D01*
X214139Y183215D01*
X213336Y182882D01*
X212646Y182354D01*
X212118Y181664D01*
X211785Y180861D01*
X211671Y180000D01*
X211785Y179139D01*
X212118Y178336D01*
X212646Y177646D01*
X213336Y177118D01*
X214139Y176785D01*
X215000Y176672D01*
X215862Y176785D01*
X216664Y177118D01*
X217354Y177646D01*
X217751Y178165D01*
X323188D01*
X323256Y178178D01*
X323336Y178118D01*
X324138Y177785D01*
X325000Y177672D01*
X325862Y177785D01*
X326664Y178118D01*
X327354Y178646D01*
X327883Y179336D01*
X328215Y180139D01*
X328328Y181000D01*
X328215Y181861D01*
X327883Y182664D01*
X327354Y183354D01*
X326664Y183882D01*
X325862Y184215D01*
X325000Y184328D01*
D02*
G37*
G36*
X455000Y207304D02*
X454139Y207190D01*
X453336Y206858D01*
X452646Y206329D01*
X452117Y205639D01*
X451785Y204837D01*
X451672Y203975D01*
X451785Y203114D01*
X452117Y202311D01*
X452646Y201622D01*
X453165Y201224D01*
Y186751D01*
X452646Y186354D01*
X452117Y185664D01*
X451785Y184862D01*
X451672Y184000D01*
X451785Y183139D01*
X452117Y182336D01*
X452646Y181646D01*
X453336Y181117D01*
X454139Y180785D01*
X455000Y180672D01*
X455862Y180785D01*
X456664Y181117D01*
X457354Y181646D01*
X457882Y182336D01*
X458215Y183139D01*
X458328Y184000D01*
X458215Y184862D01*
X457882Y185664D01*
X457354Y186354D01*
X456835Y186751D01*
Y201224D01*
X457354Y201622D01*
X457882Y202311D01*
X458215Y203114D01*
X458328Y203975D01*
X458215Y204837D01*
X457882Y205639D01*
X457354Y206329D01*
X456664Y206858D01*
X455862Y207190D01*
X455000Y207304D01*
D02*
G37*
G36*
X332000Y175329D02*
X331138Y175215D01*
X330336Y174882D01*
X330260Y174824D01*
X246740D01*
X246664Y174882D01*
X245862Y175215D01*
X245000Y175329D01*
X244139Y175215D01*
X243336Y174882D01*
X242646Y174354D01*
X242118Y173664D01*
X241785Y172862D01*
X241671Y172000D01*
X241785Y171139D01*
X242118Y170336D01*
X242646Y169646D01*
X243336Y169117D01*
X244139Y168785D01*
X245000Y168672D01*
X245862Y168785D01*
X246664Y169117D01*
X246740Y169176D01*
X330260D01*
X330336Y169117D01*
X331138Y168785D01*
X332000Y168672D01*
X332861Y168785D01*
X333664Y169117D01*
X334354Y169646D01*
X334882Y170336D01*
X335215Y171139D01*
X335329Y172000D01*
X335215Y172862D01*
X334882Y173664D01*
X334354Y174354D01*
X333664Y174882D01*
X332861Y175215D01*
X332000Y175329D01*
D02*
G37*
G36*
X583000Y181085D02*
X581943Y180946D01*
X580958Y180538D01*
X580112Y179888D01*
X579462Y179042D01*
X579054Y178057D01*
X578915Y177000D01*
X579054Y175943D01*
X579462Y174958D01*
X580112Y174111D01*
X580958Y173462D01*
X581943Y173054D01*
X583000Y172915D01*
X584057Y173054D01*
X585042Y173462D01*
X585888Y174111D01*
X586538Y174958D01*
X586946Y175943D01*
X587085Y177000D01*
X586946Y178057D01*
X586538Y179042D01*
X585888Y179888D01*
X585042Y180538D01*
X584057Y180946D01*
X583000Y181085D01*
D02*
G37*
G36*
X338000Y169328D02*
X337139Y169215D01*
X336336Y168883D01*
X335646Y168354D01*
X335249Y167835D01*
X231751D01*
X231354Y168354D01*
X230664Y168883D01*
X229861Y169215D01*
X229000Y169328D01*
X228138Y169215D01*
X227336Y168883D01*
X226646Y168354D01*
X226117Y167664D01*
X225785Y166861D01*
X225672Y166000D01*
X225785Y165138D01*
X226117Y164336D01*
X226646Y163646D01*
X227336Y163118D01*
X228138Y162785D01*
X229000Y162671D01*
X229861Y162785D01*
X230664Y163118D01*
X231354Y163646D01*
X231751Y164165D01*
X335249D01*
X335646Y163646D01*
X336336Y163118D01*
X337139Y162785D01*
X338000Y162671D01*
X338861Y162785D01*
X339664Y163118D01*
X340354Y163646D01*
X340882Y164336D01*
X341215Y165138D01*
X341329Y166000D01*
X341215Y166861D01*
X340882Y167664D01*
X340354Y168354D01*
X339664Y168883D01*
X338861Y169215D01*
X338000Y169328D01*
D02*
G37*
G36*
X583000Y171085D02*
X581943Y170946D01*
X580958Y170538D01*
X580112Y169888D01*
X579462Y169043D01*
X579054Y168057D01*
X578915Y167000D01*
X579054Y165943D01*
X579462Y164957D01*
X580112Y164111D01*
X580958Y163462D01*
X581943Y163054D01*
X583000Y162915D01*
X584057Y163054D01*
X585042Y163462D01*
X585888Y164111D01*
X586538Y164957D01*
X586946Y165943D01*
X587085Y167000D01*
X586946Y168057D01*
X586538Y169043D01*
X585888Y169888D01*
X585042Y170538D01*
X584057Y170946D01*
X583000Y171085D01*
D02*
G37*
G36*
X353000Y163329D02*
X352138Y163215D01*
X351336Y162882D01*
X350646Y162354D01*
X350249Y161835D01*
X237751D01*
X237354Y162354D01*
X236664Y162882D01*
X235861Y163215D01*
X235000Y163329D01*
X234138Y163215D01*
X233336Y162882D01*
X232646Y162354D01*
X232118Y161664D01*
X231785Y160862D01*
X231672Y160000D01*
X231785Y159139D01*
X232118Y158336D01*
X232646Y157646D01*
X233336Y157117D01*
X234138Y156785D01*
X235000Y156672D01*
X235861Y156785D01*
X236664Y157117D01*
X237354Y157646D01*
X237751Y158165D01*
X350249D01*
X350646Y157646D01*
X351336Y157117D01*
X352138Y156785D01*
X353000Y156672D01*
X353861Y156785D01*
X354664Y157117D01*
X355354Y157646D01*
X355883Y158336D01*
X356215Y159139D01*
X356329Y160000D01*
X356215Y160862D01*
X355883Y161664D01*
X355354Y162354D01*
X354664Y162882D01*
X353861Y163215D01*
X353000Y163329D01*
D02*
G37*
G36*
X583000Y161085D02*
X581943Y160946D01*
X580958Y160538D01*
X580112Y159889D01*
X579462Y159043D01*
X579054Y158057D01*
X578915Y157000D01*
X579054Y155943D01*
X579462Y154957D01*
X580112Y154112D01*
X580958Y153462D01*
X581943Y153054D01*
X583000Y152915D01*
X584057Y153054D01*
X585042Y153462D01*
X585888Y154112D01*
X586538Y154957D01*
X586946Y155943D01*
X587085Y157000D01*
X586946Y158057D01*
X586538Y159043D01*
X585888Y159889D01*
X585042Y160538D01*
X584057Y160946D01*
X583000Y161085D01*
D02*
G37*
G36*
X493000Y199328D02*
X492138Y199215D01*
X491336Y198882D01*
X490646Y198354D01*
X490118Y197664D01*
X489785Y196862D01*
X489672Y196000D01*
X489785Y195139D01*
X490118Y194336D01*
X490646Y193646D01*
X491165Y193249D01*
Y158913D01*
X490646Y158515D01*
X490118Y157826D01*
X489785Y157023D01*
X489672Y156161D01*
X489785Y155300D01*
X490118Y154497D01*
X490646Y153808D01*
X491336Y153279D01*
X492138Y152946D01*
X493000Y152833D01*
X493861Y152946D01*
X494664Y153279D01*
X495354Y153808D01*
X495883Y154497D01*
X496215Y155300D01*
X496328Y156161D01*
X496215Y157023D01*
X495883Y157826D01*
X495354Y158515D01*
X494835Y158913D01*
Y193249D01*
X495354Y193646D01*
X495883Y194336D01*
X496215Y195139D01*
X496328Y196000D01*
X496215Y196862D01*
X495883Y197664D01*
X495354Y198354D01*
X494664Y198882D01*
X493861Y199215D01*
X493000Y199328D01*
D02*
G37*
G36*
X587050Y151050D02*
X578950D01*
Y142950D01*
X587050D01*
Y151050D01*
D02*
G37*
G36*
X519000Y200328D02*
X518139Y200215D01*
X517336Y199882D01*
X516646Y199354D01*
X516117Y198664D01*
X515785Y197862D01*
X515671Y197000D01*
Y145328D01*
X502000D01*
X501138Y145215D01*
X500336Y144883D01*
X499646Y144354D01*
X499118Y143664D01*
X498785Y142861D01*
X498671Y142000D01*
X498785Y141139D01*
X499118Y140336D01*
X499646Y139646D01*
X500336Y139118D01*
X501138Y138785D01*
X502000Y138672D01*
X519161D01*
X520023Y138785D01*
X520826Y139118D01*
X521515Y139646D01*
X522044Y140336D01*
X522376Y141139D01*
X522490Y142000D01*
X522376Y142861D01*
X522329Y142977D01*
Y197000D01*
X522215Y197862D01*
X521882Y198664D01*
X521354Y199354D01*
X520664Y199882D01*
X519862Y200215D01*
X519000Y200328D01*
D02*
G37*
G36*
X346000Y123328D02*
X150000D01*
X149138Y123215D01*
X148336Y122882D01*
X147646Y122354D01*
X147117Y121664D01*
X146785Y120861D01*
X146671Y120000D01*
X146785Y119139D01*
X147117Y118336D01*
X147646Y117646D01*
X148336Y117118D01*
X149138Y116785D01*
X150000Y116672D01*
X346000D01*
X346862Y116785D01*
X347664Y117118D01*
X348354Y117646D01*
X348883Y118336D01*
X349215Y119139D01*
X349328Y120000D01*
X349215Y120861D01*
X348883Y121664D01*
X348354Y122354D01*
X347664Y122882D01*
X346862Y123215D01*
X346000Y123328D01*
D02*
G37*
G36*
X351000Y113329D02*
X150000D01*
X149138Y113215D01*
X148336Y112882D01*
X147646Y112354D01*
X147117Y111664D01*
X146785Y110862D01*
X146671Y110000D01*
X146785Y109139D01*
X147117Y108336D01*
X147646Y107646D01*
X148336Y107117D01*
X149138Y106785D01*
X150000Y106672D01*
X351000D01*
X351862Y106785D01*
X352664Y107117D01*
X353354Y107646D01*
X353883Y108336D01*
X354215Y109139D01*
X354328Y110000D01*
X354215Y110862D01*
X353883Y111664D01*
X353354Y112354D01*
X352664Y112882D01*
X351862Y113215D01*
X351000Y113329D01*
D02*
G37*
G36*
X281000Y90964D02*
Y88000D01*
X283964D01*
X283910Y88414D01*
X283557Y89265D01*
X282996Y89996D01*
X282265Y90557D01*
X281414Y90910D01*
X281000Y90964D01*
D02*
G37*
G36*
X280000D02*
X279586Y90910D01*
X278735Y90557D01*
X278004Y89996D01*
X277443Y89265D01*
X277090Y88414D01*
X277036Y88000D01*
X280000D01*
Y90964D01*
D02*
G37*
G36*
X120500Y89473D02*
Y85500D01*
X124473D01*
X124384Y86175D01*
X123931Y87269D01*
X123209Y88209D01*
X122269Y88931D01*
X121175Y89384D01*
X120500Y89473D01*
D02*
G37*
G36*
X119500D02*
X118825Y89384D01*
X117731Y88931D01*
X116791Y88209D01*
X116069Y87269D01*
X115616Y86175D01*
X115527Y85500D01*
X119500D01*
Y89473D01*
D02*
G37*
G36*
X110500D02*
Y85500D01*
X114473D01*
X114384Y86175D01*
X113931Y87269D01*
X113209Y88209D01*
X112269Y88931D01*
X111175Y89384D01*
X110500Y89473D01*
D02*
G37*
G36*
X109500D02*
X108825Y89384D01*
X107731Y88931D01*
X106791Y88209D01*
X106069Y87269D01*
X105616Y86175D01*
X105527Y85500D01*
X109500D01*
Y89473D01*
D02*
G37*
G36*
X50500D02*
Y85500D01*
X54473D01*
X54384Y86175D01*
X53931Y87269D01*
X53209Y88209D01*
X52269Y88931D01*
X51175Y89384D01*
X50500Y89473D01*
D02*
G37*
G36*
X49500D02*
X48825Y89384D01*
X47731Y88931D01*
X46791Y88209D01*
X46069Y87269D01*
X45616Y86175D01*
X45527Y85500D01*
X49500D01*
Y89473D01*
D02*
G37*
G36*
X283964Y87000D02*
X281000D01*
Y84036D01*
X281414Y84090D01*
X282265Y84443D01*
X282996Y85004D01*
X283557Y85735D01*
X283910Y86586D01*
X283964Y87000D01*
D02*
G37*
G36*
X280000D02*
X277036D01*
X277090Y86586D01*
X277443Y85735D01*
X278004Y85004D01*
X278735Y84443D01*
X279586Y84090D01*
X280000Y84036D01*
Y87000D01*
D02*
G37*
G36*
X342500Y86074D02*
Y83110D01*
X345464D01*
X345410Y83523D01*
X345057Y84375D01*
X344496Y85106D01*
X343765Y85667D01*
X342914Y86019D01*
X342500Y86074D01*
D02*
G37*
G36*
X341500D02*
X341086Y86019D01*
X340235Y85667D01*
X339504Y85106D01*
X338943Y84375D01*
X338590Y83523D01*
X338536Y83110D01*
X341500D01*
Y86074D01*
D02*
G37*
G36*
X200000Y89337D02*
X198878Y89189D01*
X197831Y88756D01*
X196933Y88067D01*
X196244Y87169D01*
X195811Y86123D01*
X195663Y85000D01*
X195811Y83877D01*
X196244Y82831D01*
X196933Y81933D01*
X197831Y81244D01*
X198878Y80811D01*
X200000Y80663D01*
X201122Y80811D01*
X202169Y81244D01*
X203067Y81933D01*
X203756Y82831D01*
X204189Y83877D01*
X204337Y85000D01*
X204189Y86123D01*
X203756Y87169D01*
X203067Y88067D01*
X202169Y88756D01*
X201122Y89189D01*
X200000Y89337D01*
D02*
G37*
G36*
X190000D02*
X188877Y89189D01*
X187831Y88756D01*
X186933Y88067D01*
X186244Y87169D01*
X185811Y86123D01*
X185663Y85000D01*
X185811Y83877D01*
X186244Y82831D01*
X186933Y81933D01*
X187831Y81244D01*
X188877Y80811D01*
X190000Y80663D01*
X191122Y80811D01*
X192169Y81244D01*
X193067Y81933D01*
X193756Y82831D01*
X194189Y83877D01*
X194337Y85000D01*
X194189Y86123D01*
X193756Y87169D01*
X193067Y88067D01*
X192169Y88756D01*
X191122Y89189D01*
X190000Y89337D01*
D02*
G37*
G36*
X180000Y105329D02*
X179139Y105215D01*
X178336Y104883D01*
X177646Y104354D01*
X177118Y103664D01*
X176785Y102861D01*
X176672Y102000D01*
X176785Y101138D01*
X177118Y100336D01*
X177646Y99646D01*
X178165Y99249D01*
Y88894D01*
X177831Y88756D01*
X176933Y88067D01*
X176244Y87169D01*
X175811Y86123D01*
X175663Y85000D01*
X175811Y83877D01*
X176244Y82831D01*
X176933Y81933D01*
X177831Y81244D01*
X178877Y80811D01*
X180000Y80663D01*
X181123Y80811D01*
X182169Y81244D01*
X183067Y81933D01*
X183756Y82831D01*
X184189Y83877D01*
X184337Y85000D01*
X184189Y86123D01*
X183756Y87169D01*
X183067Y88067D01*
X182169Y88756D01*
X181835Y88894D01*
Y99249D01*
X182354Y99646D01*
X182882Y100336D01*
X183215Y101138D01*
X183328Y102000D01*
X183215Y102861D01*
X182882Y103664D01*
X182354Y104354D01*
X181664Y104883D01*
X180861Y105215D01*
X180000Y105329D01*
D02*
G37*
G36*
X170000Y89337D02*
X168877Y89189D01*
X167831Y88756D01*
X166933Y88067D01*
X166244Y87169D01*
X165811Y86123D01*
X165663Y85000D01*
X165811Y83877D01*
X166244Y82831D01*
X166933Y81933D01*
X167831Y81244D01*
X168877Y80811D01*
X170000Y80663D01*
X171123Y80811D01*
X172169Y81244D01*
X173067Y81933D01*
X173756Y82831D01*
X174189Y83877D01*
X174337Y85000D01*
X174189Y86123D01*
X173756Y87169D01*
X173067Y88067D01*
X172169Y88756D01*
X171123Y89189D01*
X170000Y89337D01*
D02*
G37*
G36*
X160000D02*
X158878Y89189D01*
X157831Y88756D01*
X156933Y88067D01*
X156244Y87169D01*
X155811Y86123D01*
X155663Y85000D01*
X155811Y83877D01*
X156244Y82831D01*
X156933Y81933D01*
X157831Y81244D01*
X158878Y80811D01*
X160000Y80663D01*
X161123Y80811D01*
X162169Y81244D01*
X163067Y81933D01*
X163756Y82831D01*
X164189Y83877D01*
X164337Y85000D01*
X164189Y86123D01*
X163756Y87169D01*
X163067Y88067D01*
X162169Y88756D01*
X161123Y89189D01*
X160000Y89337D01*
D02*
G37*
G36*
X150000D02*
X148878Y89189D01*
X147831Y88756D01*
X146933Y88067D01*
X146244Y87169D01*
X145811Y86123D01*
X145663Y85000D01*
X145811Y83877D01*
X146244Y82831D01*
X146933Y81933D01*
X147831Y81244D01*
X148878Y80811D01*
X150000Y80663D01*
X151122Y80811D01*
X152169Y81244D01*
X153067Y81933D01*
X153756Y82831D01*
X154189Y83877D01*
X154337Y85000D01*
X154189Y86123D01*
X153756Y87169D01*
X153067Y88067D01*
X152169Y88756D01*
X151122Y89189D01*
X150000Y89337D01*
D02*
G37*
G36*
X140000D02*
X138877Y89189D01*
X137831Y88756D01*
X136933Y88067D01*
X136244Y87169D01*
X135811Y86123D01*
X135663Y85000D01*
X135811Y83877D01*
X136244Y82831D01*
X136933Y81933D01*
X137831Y81244D01*
X138877Y80811D01*
X140000Y80663D01*
X141122Y80811D01*
X142169Y81244D01*
X143067Y81933D01*
X143756Y82831D01*
X144189Y83877D01*
X144337Y85000D01*
X144189Y86123D01*
X143756Y87169D01*
X143067Y88067D01*
X142169Y88756D01*
X141122Y89189D01*
X140000Y89337D01*
D02*
G37*
G36*
X130000D02*
X128877Y89189D01*
X127831Y88756D01*
X126933Y88067D01*
X126244Y87169D01*
X125811Y86123D01*
X125663Y85000D01*
X125811Y83877D01*
X126244Y82831D01*
X126933Y81933D01*
X127831Y81244D01*
X128877Y80811D01*
X130000Y80663D01*
X131123Y80811D01*
X132169Y81244D01*
X133067Y81933D01*
X133756Y82831D01*
X134189Y83877D01*
X134337Y85000D01*
X134189Y86123D01*
X133756Y87169D01*
X133067Y88067D01*
X132169Y88756D01*
X131123Y89189D01*
X130000Y89337D01*
D02*
G37*
G36*
X100000D02*
X98878Y89189D01*
X97831Y88756D01*
X96933Y88067D01*
X96244Y87169D01*
X95811Y86123D01*
X95663Y85000D01*
X95811Y83877D01*
X96244Y82831D01*
X96933Y81933D01*
X97831Y81244D01*
X98878Y80811D01*
X100000Y80663D01*
X101122Y80811D01*
X102169Y81244D01*
X103067Y81933D01*
X103756Y82831D01*
X104189Y83877D01*
X104337Y85000D01*
X104189Y86123D01*
X103756Y87169D01*
X103067Y88067D01*
X102169Y88756D01*
X101122Y89189D01*
X100000Y89337D01*
D02*
G37*
G36*
X90000D02*
X88877Y89189D01*
X87831Y88756D01*
X86933Y88067D01*
X86244Y87169D01*
X85811Y86123D01*
X85663Y85000D01*
X85811Y83877D01*
X86244Y82831D01*
X86933Y81933D01*
X87831Y81244D01*
X88877Y80811D01*
X90000Y80663D01*
X91123Y80811D01*
X92169Y81244D01*
X93067Y81933D01*
X93756Y82831D01*
X94189Y83877D01*
X94337Y85000D01*
X94189Y86123D01*
X93756Y87169D01*
X93067Y88067D01*
X92169Y88756D01*
X91123Y89189D01*
X90000Y89337D01*
D02*
G37*
G36*
X80000D02*
X78878Y89189D01*
X77831Y88756D01*
X76933Y88067D01*
X76244Y87169D01*
X75811Y86123D01*
X75663Y85000D01*
X75811Y83877D01*
X76244Y82831D01*
X76933Y81933D01*
X77831Y81244D01*
X78878Y80811D01*
X80000Y80663D01*
X81122Y80811D01*
X82169Y81244D01*
X83067Y81933D01*
X83756Y82831D01*
X84189Y83877D01*
X84337Y85000D01*
X84189Y86123D01*
X83756Y87169D01*
X83067Y88067D01*
X82169Y88756D01*
X81122Y89189D01*
X80000Y89337D01*
D02*
G37*
G36*
X70000D02*
X68878Y89189D01*
X67831Y88756D01*
X66933Y88067D01*
X66244Y87169D01*
X65811Y86123D01*
X65663Y85000D01*
X65811Y83877D01*
X66244Y82831D01*
X66933Y81933D01*
X67831Y81244D01*
X68878Y80811D01*
X70000Y80663D01*
X71122Y80811D01*
X72169Y81244D01*
X73067Y81933D01*
X73756Y82831D01*
X74189Y83877D01*
X74337Y85000D01*
X74189Y86123D01*
X73756Y87169D01*
X73067Y88067D01*
X72169Y88756D01*
X71122Y89189D01*
X70000Y89337D01*
D02*
G37*
G36*
X60000D02*
X58877Y89189D01*
X57831Y88756D01*
X56933Y88067D01*
X56244Y87169D01*
X55811Y86123D01*
X55663Y85000D01*
X55811Y83877D01*
X56244Y82831D01*
X56933Y81933D01*
X57831Y81244D01*
X58877Y80811D01*
X60000Y80663D01*
X61123Y80811D01*
X62169Y81244D01*
X63067Y81933D01*
X63756Y82831D01*
X64189Y83877D01*
X64337Y85000D01*
X64189Y86123D01*
X63756Y87169D01*
X63067Y88067D01*
X62169Y88756D01*
X61123Y89189D01*
X60000Y89337D01*
D02*
G37*
G36*
X40000D02*
X38877Y89189D01*
X37832Y88756D01*
X36933Y88067D01*
X36244Y87169D01*
X35811Y86123D01*
X35663Y85000D01*
X35811Y83877D01*
X36244Y82831D01*
X36933Y81933D01*
X37832Y81244D01*
X38877Y80811D01*
X40000Y80663D01*
X41122Y80811D01*
X42169Y81244D01*
X43067Y81933D01*
X43756Y82831D01*
X44189Y83877D01*
X44337Y85000D01*
X44189Y86123D01*
X43756Y87169D01*
X43067Y88067D01*
X42169Y88756D01*
X41122Y89189D01*
X40000Y89337D01*
D02*
G37*
G36*
X30000D02*
X28877Y89189D01*
X27832Y88756D01*
X26933Y88067D01*
X26244Y87169D01*
X25811Y86123D01*
X25663Y85000D01*
X25811Y83877D01*
X26244Y82831D01*
X26933Y81933D01*
X27832Y81244D01*
X28877Y80811D01*
X30000Y80663D01*
X31122Y80811D01*
X32168Y81244D01*
X33067Y81933D01*
X33756Y82831D01*
X34189Y83877D01*
X34337Y85000D01*
X34189Y86123D01*
X33756Y87169D01*
X33067Y88067D01*
X32168Y88756D01*
X31122Y89189D01*
X30000Y89337D01*
D02*
G37*
G36*
X20000D02*
X18878Y89189D01*
X17831Y88756D01*
X16933Y88067D01*
X16244Y87169D01*
X15811Y86123D01*
X15663Y85000D01*
X15811Y83877D01*
X16244Y82831D01*
X16933Y81933D01*
X17831Y81244D01*
X18878Y80811D01*
X20000Y80663D01*
X21123Y80811D01*
X22169Y81244D01*
X23067Y81933D01*
X23756Y82831D01*
X24189Y83877D01*
X24337Y85000D01*
X24189Y86123D01*
X23756Y87169D01*
X23067Y88067D01*
X22169Y88756D01*
X21123Y89189D01*
X20000Y89337D01*
D02*
G37*
G36*
X124473Y84500D02*
X120500D01*
Y80527D01*
X121175Y80616D01*
X122269Y81069D01*
X123209Y81791D01*
X123931Y82731D01*
X124384Y83825D01*
X124473Y84500D01*
D02*
G37*
G36*
X119500D02*
X115527D01*
X115616Y83825D01*
X116069Y82731D01*
X116791Y81791D01*
X117731Y81069D01*
X118825Y80616D01*
X119500Y80527D01*
Y84500D01*
D02*
G37*
G36*
X114473D02*
X110500D01*
Y80527D01*
X111175Y80616D01*
X112269Y81069D01*
X113209Y81791D01*
X113931Y82731D01*
X114384Y83825D01*
X114473Y84500D01*
D02*
G37*
G36*
X109500D02*
X105527D01*
X105616Y83825D01*
X106069Y82731D01*
X106791Y81791D01*
X107731Y81069D01*
X108825Y80616D01*
X109500Y80527D01*
Y84500D01*
D02*
G37*
G36*
X54473D02*
X50500D01*
Y80527D01*
X51175Y80616D01*
X52269Y81069D01*
X53209Y81791D01*
X53931Y82731D01*
X54384Y83825D01*
X54473Y84500D01*
D02*
G37*
G36*
X49500D02*
X45527D01*
X45616Y83825D01*
X46069Y82731D01*
X46791Y81791D01*
X47731Y81069D01*
X48825Y80616D01*
X49500Y80527D01*
Y84500D01*
D02*
G37*
G36*
X345464Y82110D02*
X342500D01*
Y79145D01*
X342914Y79200D01*
X343765Y79552D01*
X344496Y80113D01*
X345057Y80844D01*
X345410Y81696D01*
X345464Y82110D01*
D02*
G37*
G36*
X341500D02*
X338536D01*
X338590Y81696D01*
X338943Y80844D01*
X339504Y80113D01*
X340235Y79552D01*
X341086Y79200D01*
X341500Y79145D01*
Y82110D01*
D02*
G37*
G36*
X110500Y79473D02*
Y75500D01*
X114473D01*
X114384Y76175D01*
X113931Y77269D01*
X113209Y78209D01*
X112269Y78931D01*
X111175Y79384D01*
X110500Y79473D01*
D02*
G37*
G36*
X109500D02*
X108825Y79384D01*
X107731Y78931D01*
X106791Y78209D01*
X106069Y77269D01*
X105616Y76175D01*
X105527Y75500D01*
X109500D01*
Y79473D01*
D02*
G37*
G36*
X200000Y79337D02*
X198878Y79189D01*
X197831Y78756D01*
X196933Y78067D01*
X196244Y77169D01*
X195811Y76122D01*
X195663Y75000D01*
X195811Y73878D01*
X196244Y72831D01*
X196933Y71933D01*
X197831Y71244D01*
X198878Y70811D01*
X200000Y70663D01*
X201122Y70811D01*
X202169Y71244D01*
X203067Y71933D01*
X203756Y72831D01*
X203894Y73165D01*
X226249D01*
X226646Y72646D01*
X227336Y72117D01*
X228138Y71785D01*
X229000Y71671D01*
X229861Y71785D01*
X230664Y72117D01*
X231354Y72646D01*
X231883Y73336D01*
X232215Y74138D01*
X232329Y75000D01*
X232215Y75862D01*
X231883Y76664D01*
X231354Y77354D01*
X230664Y77883D01*
X229861Y78215D01*
X229000Y78329D01*
X228138Y78215D01*
X227336Y77883D01*
X226646Y77354D01*
X226249Y76835D01*
X203894D01*
X203756Y77169D01*
X203067Y78067D01*
X202169Y78756D01*
X201122Y79189D01*
X200000Y79337D01*
D02*
G37*
G36*
X24300Y79300D02*
X15700D01*
Y70700D01*
X24300D01*
Y79300D01*
D02*
G37*
G36*
X180000Y79337D02*
X178877Y79189D01*
X177831Y78756D01*
X176933Y78067D01*
X176244Y77169D01*
X175811Y76122D01*
X175663Y75000D01*
X175811Y73878D01*
X176244Y72831D01*
X176933Y71933D01*
X177831Y71244D01*
X178877Y70811D01*
X180000Y70663D01*
X181123Y70811D01*
X182169Y71244D01*
X183067Y71933D01*
X183756Y72831D01*
X184189Y73878D01*
X184337Y75000D01*
X184189Y76122D01*
X183756Y77169D01*
X183067Y78067D01*
X182169Y78756D01*
X181123Y79189D01*
X180000Y79337D01*
D02*
G37*
G36*
X170000D02*
X168877Y79189D01*
X167831Y78756D01*
X166933Y78067D01*
X166244Y77169D01*
X165811Y76122D01*
X165663Y75000D01*
X165811Y73878D01*
X166244Y72831D01*
X166933Y71933D01*
X167831Y71244D01*
X168877Y70811D01*
X170000Y70663D01*
X171123Y70811D01*
X172169Y71244D01*
X173067Y71933D01*
X173756Y72831D01*
X174189Y73878D01*
X174337Y75000D01*
X174189Y76122D01*
X173756Y77169D01*
X173067Y78067D01*
X172169Y78756D01*
X171123Y79189D01*
X170000Y79337D01*
D02*
G37*
G36*
X160000D02*
X158878Y79189D01*
X157831Y78756D01*
X156933Y78067D01*
X156244Y77169D01*
X155811Y76122D01*
X155663Y75000D01*
X155811Y73878D01*
X156244Y72831D01*
X156933Y71933D01*
X157831Y71244D01*
X158878Y70811D01*
X160000Y70663D01*
X161123Y70811D01*
X162169Y71244D01*
X163067Y71933D01*
X163756Y72831D01*
X164189Y73878D01*
X164337Y75000D01*
X164189Y76122D01*
X163756Y77169D01*
X163067Y78067D01*
X162169Y78756D01*
X161123Y79189D01*
X160000Y79337D01*
D02*
G37*
G36*
X150000D02*
X148878Y79189D01*
X147831Y78756D01*
X146933Y78067D01*
X146244Y77169D01*
X145811Y76122D01*
X145663Y75000D01*
X145811Y73878D01*
X146244Y72831D01*
X146933Y71933D01*
X147831Y71244D01*
X148878Y70811D01*
X150000Y70663D01*
X151122Y70811D01*
X152169Y71244D01*
X153067Y71933D01*
X153756Y72831D01*
X154189Y73878D01*
X154337Y75000D01*
X154189Y76122D01*
X153756Y77169D01*
X153067Y78067D01*
X152169Y78756D01*
X151122Y79189D01*
X150000Y79337D01*
D02*
G37*
G36*
X140000D02*
X138877Y79189D01*
X137831Y78756D01*
X136933Y78067D01*
X136244Y77169D01*
X135811Y76122D01*
X135663Y75000D01*
X135811Y73878D01*
X136244Y72831D01*
X136933Y71933D01*
X137831Y71244D01*
X138877Y70811D01*
X140000Y70663D01*
X141122Y70811D01*
X142169Y71244D01*
X143067Y71933D01*
X143756Y72831D01*
X144189Y73878D01*
X144337Y75000D01*
X144189Y76122D01*
X143756Y77169D01*
X143067Y78067D01*
X142169Y78756D01*
X141122Y79189D01*
X140000Y79337D01*
D02*
G37*
G36*
X130000D02*
X128877Y79189D01*
X127831Y78756D01*
X126933Y78067D01*
X126244Y77169D01*
X125811Y76122D01*
X125663Y75000D01*
X125811Y73878D01*
X126244Y72831D01*
X126933Y71933D01*
X127831Y71244D01*
X128877Y70811D01*
X130000Y70663D01*
X131123Y70811D01*
X132169Y71244D01*
X133067Y71933D01*
X133756Y72831D01*
X134189Y73878D01*
X134337Y75000D01*
X134189Y76122D01*
X133756Y77169D01*
X133067Y78067D01*
X132169Y78756D01*
X131123Y79189D01*
X130000Y79337D01*
D02*
G37*
G36*
X100000D02*
X98878Y79189D01*
X97831Y78756D01*
X96933Y78067D01*
X96244Y77169D01*
X95811Y76122D01*
X95663Y75000D01*
X95811Y73878D01*
X96244Y72831D01*
X96933Y71933D01*
X97831Y71244D01*
X98878Y70811D01*
X100000Y70663D01*
X101122Y70811D01*
X102169Y71244D01*
X103067Y71933D01*
X103756Y72831D01*
X104189Y73878D01*
X104337Y75000D01*
X104189Y76122D01*
X103756Y77169D01*
X103067Y78067D01*
X102169Y78756D01*
X101122Y79189D01*
X100000Y79337D01*
D02*
G37*
G36*
X90000D02*
X88877Y79189D01*
X87831Y78756D01*
X86933Y78067D01*
X86244Y77169D01*
X85811Y76122D01*
X85663Y75000D01*
X85811Y73878D01*
X86244Y72831D01*
X86933Y71933D01*
X87831Y71244D01*
X88877Y70811D01*
X90000Y70663D01*
X91123Y70811D01*
X92169Y71244D01*
X93067Y71933D01*
X93756Y72831D01*
X94189Y73878D01*
X94337Y75000D01*
X94189Y76122D01*
X93756Y77169D01*
X93067Y78067D01*
X92169Y78756D01*
X91123Y79189D01*
X90000Y79337D01*
D02*
G37*
G36*
X80000D02*
X78878Y79189D01*
X77831Y78756D01*
X76933Y78067D01*
X76244Y77169D01*
X75811Y76122D01*
X75663Y75000D01*
X75811Y73878D01*
X76244Y72831D01*
X76933Y71933D01*
X77831Y71244D01*
X78878Y70811D01*
X80000Y70663D01*
X81122Y70811D01*
X82169Y71244D01*
X83067Y71933D01*
X83756Y72831D01*
X84189Y73878D01*
X84337Y75000D01*
X84189Y76122D01*
X83756Y77169D01*
X83067Y78067D01*
X82169Y78756D01*
X81122Y79189D01*
X80000Y79337D01*
D02*
G37*
G36*
X70000D02*
X68878Y79189D01*
X67831Y78756D01*
X66933Y78067D01*
X66244Y77169D01*
X65811Y76122D01*
X65663Y75000D01*
X65811Y73878D01*
X66244Y72831D01*
X66933Y71933D01*
X67831Y71244D01*
X68878Y70811D01*
X70000Y70663D01*
X71122Y70811D01*
X72169Y71244D01*
X73067Y71933D01*
X73756Y72831D01*
X74189Y73878D01*
X74337Y75000D01*
X74189Y76122D01*
X73756Y77169D01*
X73067Y78067D01*
X72169Y78756D01*
X71122Y79189D01*
X70000Y79337D01*
D02*
G37*
G36*
X60000D02*
X58877Y79189D01*
X57831Y78756D01*
X56933Y78067D01*
X56244Y77169D01*
X55811Y76122D01*
X55663Y75000D01*
X55811Y73878D01*
X56244Y72831D01*
X56933Y71933D01*
X57831Y71244D01*
X58877Y70811D01*
X60000Y70663D01*
X61123Y70811D01*
X62169Y71244D01*
X63067Y71933D01*
X63756Y72831D01*
X64189Y73878D01*
X64337Y75000D01*
X64189Y76122D01*
X63756Y77169D01*
X63067Y78067D01*
X62169Y78756D01*
X61123Y79189D01*
X60000Y79337D01*
D02*
G37*
G36*
X50000D02*
X48878Y79189D01*
X47831Y78756D01*
X46933Y78067D01*
X46244Y77169D01*
X45811Y76122D01*
X45663Y75000D01*
X45811Y73878D01*
X46244Y72831D01*
X46933Y71933D01*
X47831Y71244D01*
X48878Y70811D01*
X50000Y70663D01*
X51122Y70811D01*
X52169Y71244D01*
X53067Y71933D01*
X53756Y72831D01*
X54189Y73878D01*
X54337Y75000D01*
X54189Y76122D01*
X53756Y77169D01*
X53067Y78067D01*
X52169Y78756D01*
X51122Y79189D01*
X50000Y79337D01*
D02*
G37*
G36*
X40000D02*
X38877Y79189D01*
X37832Y78756D01*
X36933Y78067D01*
X36244Y77169D01*
X35811Y76122D01*
X35663Y75000D01*
X35811Y73878D01*
X36244Y72831D01*
X36933Y71933D01*
X37832Y71244D01*
X38877Y70811D01*
X40000Y70663D01*
X41122Y70811D01*
X42169Y71244D01*
X43067Y71933D01*
X43756Y72831D01*
X44189Y73878D01*
X44337Y75000D01*
X44189Y76122D01*
X43756Y77169D01*
X43067Y78067D01*
X42169Y78756D01*
X41122Y79189D01*
X40000Y79337D01*
D02*
G37*
G36*
X30000D02*
X28877Y79189D01*
X27832Y78756D01*
X26933Y78067D01*
X26244Y77169D01*
X25811Y76122D01*
X25663Y75000D01*
X25811Y73878D01*
X26244Y72831D01*
X26933Y71933D01*
X27832Y71244D01*
X28877Y70811D01*
X30000Y70663D01*
X31122Y70811D01*
X32168Y71244D01*
X33067Y71933D01*
X33756Y72831D01*
X34189Y73878D01*
X34337Y75000D01*
X34189Y76122D01*
X33756Y77169D01*
X33067Y78067D01*
X32168Y78756D01*
X31122Y79189D01*
X30000Y79337D01*
D02*
G37*
G36*
X114473Y74500D02*
X110500D01*
Y70527D01*
X111175Y70616D01*
X112269Y71069D01*
X113209Y71791D01*
X113931Y72731D01*
X114384Y73825D01*
X114473Y74500D01*
D02*
G37*
G36*
X109500D02*
X105527D01*
X105616Y73825D01*
X106069Y72731D01*
X106791Y71791D01*
X107731Y71069D01*
X108825Y70616D01*
X109500Y70527D01*
Y74500D01*
D02*
G37*
G36*
X234729Y68328D02*
X233868Y68215D01*
X233065Y67883D01*
X232376Y67354D01*
X231978Y66835D01*
X202751D01*
X202354Y67354D01*
X201664Y67883D01*
X200862Y68215D01*
X200000Y68328D01*
X199138Y68215D01*
X198336Y67883D01*
X197646Y67354D01*
X197117Y66664D01*
X196785Y65861D01*
X196671Y65000D01*
X196785Y64139D01*
X197117Y63336D01*
X197646Y62646D01*
X198336Y62117D01*
X199138Y61785D01*
X200000Y61672D01*
X200862Y61785D01*
X201664Y62117D01*
X202354Y62646D01*
X202751Y63165D01*
X231978D01*
X232376Y62646D01*
X233065Y62117D01*
X233868Y61785D01*
X234729Y61672D01*
X235591Y61785D01*
X236394Y62117D01*
X237083Y62646D01*
X237612Y63336D01*
X237945Y64139D01*
X238058Y65000D01*
X237945Y65861D01*
X237612Y66664D01*
X237083Y67354D01*
X236394Y67883D01*
X235591Y68215D01*
X234729Y68328D01*
D02*
G37*
G36*
X120000Y79337D02*
X118877Y79189D01*
X117831Y78756D01*
X116933Y78067D01*
X116244Y77169D01*
X115811Y76122D01*
X115663Y75000D01*
X115811Y73878D01*
X116244Y72831D01*
X116933Y71933D01*
X117831Y71244D01*
X117910Y71211D01*
Y60556D01*
X117646Y60354D01*
X117118Y59664D01*
X116785Y58862D01*
X116672Y58000D01*
X116785Y57139D01*
X117118Y56336D01*
X117646Y55646D01*
X118336Y55117D01*
X119139Y54785D01*
X120000Y54672D01*
X120861Y54785D01*
X121664Y55117D01*
X122354Y55646D01*
X122882Y56336D01*
X123215Y57139D01*
X123328Y58000D01*
X123215Y58862D01*
X122882Y59664D01*
X122354Y60354D01*
X122090Y60556D01*
Y71211D01*
X122169Y71244D01*
X123067Y71933D01*
X123756Y72831D01*
X124189Y73878D01*
X124337Y75000D01*
X124189Y76122D01*
X123756Y77169D01*
X123067Y78067D01*
X122169Y78756D01*
X121123Y79189D01*
X120000Y79337D01*
D02*
G37*
G36*
X385000Y53329D02*
X300000D01*
X299138Y53215D01*
X298336Y52883D01*
X297646Y52354D01*
X297117Y51664D01*
X296785Y50862D01*
X296672Y50000D01*
X296785Y49139D01*
X297117Y48336D01*
X297646Y47646D01*
X298336Y47117D01*
X299138Y46785D01*
X300000Y46672D01*
X385000D01*
X385861Y46785D01*
X386664Y47117D01*
X387354Y47646D01*
X387882Y48336D01*
X388215Y49139D01*
X388329Y50000D01*
X388215Y50862D01*
X387882Y51664D01*
X387354Y52354D01*
X386664Y52883D01*
X385861Y53215D01*
X385000Y53329D01*
D02*
G37*
G36*
X190000Y79337D02*
X188877Y79189D01*
X187831Y78756D01*
X186933Y78067D01*
X186244Y77169D01*
X185811Y76122D01*
X185663Y75000D01*
X185811Y73878D01*
X186244Y72831D01*
X186933Y71933D01*
X187831Y71244D01*
X188165Y71106D01*
Y46751D01*
X187646Y46354D01*
X187118Y45664D01*
X186785Y44862D01*
X186671Y44000D01*
X186785Y43139D01*
X187118Y42336D01*
X187646Y41646D01*
X188336Y41118D01*
X189138Y40785D01*
X190000Y40672D01*
X190861Y40785D01*
X191664Y41118D01*
X192354Y41646D01*
X192883Y42336D01*
X193215Y43139D01*
X193328Y44000D01*
X193215Y44862D01*
X192883Y45664D01*
X192354Y46354D01*
X191835Y46751D01*
Y71106D01*
X192169Y71244D01*
X193067Y71933D01*
X193756Y72831D01*
X194189Y73878D01*
X194337Y75000D01*
X194189Y76122D01*
X193756Y77169D01*
X193067Y78067D01*
X192169Y78756D01*
X191122Y79189D01*
X190000Y79337D01*
D02*
G37*
G36*
X507500Y31306D02*
X502000D01*
Y25806D01*
X507500D01*
Y31306D01*
D02*
G37*
G36*
X501000D02*
X495500D01*
Y25806D01*
X501000D01*
Y31306D01*
D02*
G37*
G36*
X431340D02*
X425840D01*
Y25806D01*
X431340D01*
Y31306D01*
D02*
G37*
G36*
X424840D02*
X419340D01*
Y25806D01*
X424840D01*
Y31306D01*
D02*
G37*
G36*
X365500Y24221D02*
Y20500D01*
X369221D01*
X369141Y21110D01*
X368712Y22143D01*
X368031Y23031D01*
X367143Y23712D01*
X366109Y24141D01*
X365500Y24221D01*
D02*
G37*
G36*
X364500D02*
X363891Y24141D01*
X362857Y23712D01*
X361969Y23031D01*
X361288Y22143D01*
X360859Y21110D01*
X360779Y20500D01*
X364500D01*
Y24221D01*
D02*
G37*
G36*
X285500D02*
Y20500D01*
X289221D01*
X289141Y21110D01*
X288712Y22143D01*
X288031Y23031D01*
X287143Y23712D01*
X286109Y24141D01*
X285500Y24221D01*
D02*
G37*
G36*
X284500D02*
X283891Y24141D01*
X282857Y23712D01*
X281969Y23031D01*
X281288Y22143D01*
X280859Y21110D01*
X280779Y20500D01*
X284500D01*
Y24221D01*
D02*
G37*
G36*
X521500Y31134D02*
X520363Y31022D01*
X519270Y30691D01*
X518262Y30152D01*
X517379Y29427D01*
X516654Y28544D01*
X516116Y27537D01*
X515784Y26443D01*
X515672Y25306D01*
X515784Y24169D01*
X516116Y23076D01*
X516654Y22068D01*
X517379Y21185D01*
X518262Y20460D01*
X519270Y19922D01*
X520363Y19590D01*
X521500Y19478D01*
X522637Y19590D01*
X523730Y19922D01*
X524738Y20460D01*
X525621Y21185D01*
X526346Y22068D01*
X526884Y23076D01*
X527216Y24169D01*
X527328Y25306D01*
X527216Y26443D01*
X526884Y27537D01*
X526346Y28544D01*
X525621Y29427D01*
X524738Y30152D01*
X523730Y30691D01*
X522637Y31022D01*
X521500Y31134D01*
D02*
G37*
G36*
X445340D02*
X444203Y31022D01*
X443109Y30691D01*
X442102Y30152D01*
X441219Y29427D01*
X440494Y28544D01*
X439955Y27537D01*
X439624Y26443D01*
X439512Y25306D01*
X439624Y24169D01*
X439955Y23076D01*
X440494Y22068D01*
X441219Y21185D01*
X442102Y20460D01*
X443109Y19922D01*
X444203Y19590D01*
X445340Y19478D01*
X446477Y19590D01*
X447570Y19922D01*
X448578Y20460D01*
X449461Y21185D01*
X450186Y22068D01*
X450724Y23076D01*
X451056Y24169D01*
X451168Y25306D01*
X451056Y26443D01*
X450724Y27537D01*
X450186Y28544D01*
X449461Y29427D01*
X448578Y30152D01*
X447570Y30691D01*
X446477Y31022D01*
X445340Y31134D01*
D02*
G37*
G36*
X507500Y24806D02*
X502000D01*
Y19306D01*
X507500D01*
Y24806D01*
D02*
G37*
G36*
X501000D02*
X495500D01*
Y19306D01*
X501000D01*
Y24806D01*
D02*
G37*
G36*
X431340D02*
X425840D01*
Y19306D01*
X431340D01*
Y24806D01*
D02*
G37*
G36*
X424840D02*
X419340D01*
Y19306D01*
X424840D01*
Y24806D01*
D02*
G37*
G36*
X325000Y43328D02*
X324138Y43215D01*
X323336Y42882D01*
X322646Y42354D01*
X322117Y41664D01*
X321785Y40861D01*
X321672Y40000D01*
Y24050D01*
X320950D01*
Y15950D01*
X329050D01*
Y24050D01*
X328328D01*
Y40000D01*
X328215Y40861D01*
X327883Y41664D01*
X327354Y42354D01*
X326664Y42882D01*
X325862Y43215D01*
X325000Y43328D01*
D02*
G37*
G36*
X274000Y41328D02*
X253000D01*
X252138Y41215D01*
X251336Y40883D01*
X250646Y40354D01*
X242646Y32354D01*
X242118Y31664D01*
X241980Y31332D01*
X241785Y30861D01*
X241671Y30000D01*
Y24050D01*
X240950D01*
Y15950D01*
X249050D01*
Y24050D01*
X248328D01*
Y28621D01*
X254379Y34672D01*
X274000D01*
X274862Y34785D01*
X275664Y35118D01*
X276354Y35646D01*
X276883Y36336D01*
X277215Y37139D01*
X277328Y38000D01*
X277215Y38862D01*
X276883Y39664D01*
X276354Y40354D01*
X275664Y40883D01*
X274862Y41215D01*
X274000Y41328D01*
D02*
G37*
G36*
X375000Y24085D02*
X373943Y23946D01*
X372957Y23538D01*
X372112Y22888D01*
X371462Y22042D01*
X371054Y21057D01*
X370915Y20000D01*
X371054Y18943D01*
X371462Y17957D01*
X372112Y17111D01*
X372957Y16462D01*
X373943Y16054D01*
X375000Y15915D01*
X376057Y16054D01*
X377043Y16462D01*
X377888Y17111D01*
X378538Y17957D01*
X378946Y18943D01*
X379085Y20000D01*
X378946Y21057D01*
X378538Y22042D01*
X377888Y22888D01*
X377043Y23538D01*
X376057Y23946D01*
X375000Y24085D01*
D02*
G37*
G36*
X355000D02*
X353943Y23946D01*
X352958Y23538D01*
X352112Y22888D01*
X351462Y22042D01*
X351054Y21057D01*
X350915Y20000D01*
X351054Y18943D01*
X351462Y17957D01*
X352112Y17111D01*
X352958Y16462D01*
X353943Y16054D01*
X355000Y15915D01*
X356057Y16054D01*
X357043Y16462D01*
X357889Y17111D01*
X358538Y17957D01*
X358946Y18943D01*
X359085Y20000D01*
X358946Y21057D01*
X358538Y22042D01*
X357889Y22888D01*
X357043Y23538D01*
X356057Y23946D01*
X355000Y24085D01*
D02*
G37*
G36*
X345000D02*
X343943Y23946D01*
X342957Y23538D01*
X342111Y22888D01*
X341462Y22042D01*
X341054Y21057D01*
X340915Y20000D01*
X341054Y18943D01*
X341462Y17957D01*
X342111Y17111D01*
X342957Y16462D01*
X343943Y16054D01*
X345000Y15915D01*
X346057Y16054D01*
X347042Y16462D01*
X347888Y17111D01*
X348538Y17957D01*
X348946Y18943D01*
X349085Y20000D01*
X348946Y21057D01*
X348538Y22042D01*
X347888Y22888D01*
X347042Y23538D01*
X346057Y23946D01*
X345000Y24085D01*
D02*
G37*
G36*
X335000D02*
X333943Y23946D01*
X332958Y23538D01*
X332112Y22888D01*
X331462Y22042D01*
X331054Y21057D01*
X330915Y20000D01*
X331054Y18943D01*
X331462Y17957D01*
X332112Y17111D01*
X332958Y16462D01*
X333943Y16054D01*
X335000Y15915D01*
X336057Y16054D01*
X337042Y16462D01*
X337889Y17111D01*
X338538Y17957D01*
X338946Y18943D01*
X339085Y20000D01*
X338946Y21057D01*
X338538Y22042D01*
X337889Y22888D01*
X337042Y23538D01*
X336057Y23946D01*
X335000Y24085D01*
D02*
G37*
G36*
X295000D02*
X293943Y23946D01*
X292957Y23538D01*
X292111Y22888D01*
X291462Y22042D01*
X291054Y21057D01*
X290915Y20000D01*
X291054Y18943D01*
X291462Y17957D01*
X292111Y17111D01*
X292957Y16462D01*
X293943Y16054D01*
X295000Y15915D01*
X296057Y16054D01*
X297042Y16462D01*
X297888Y17111D01*
X298538Y17957D01*
X298946Y18943D01*
X299085Y20000D01*
X298946Y21057D01*
X298538Y22042D01*
X297888Y22888D01*
X297042Y23538D01*
X296057Y23946D01*
X295000Y24085D01*
D02*
G37*
G36*
X275000D02*
X273943Y23946D01*
X272957Y23538D01*
X272112Y22888D01*
X271462Y22042D01*
X271054Y21057D01*
X270915Y20000D01*
X271054Y18943D01*
X271462Y17957D01*
X272112Y17111D01*
X272957Y16462D01*
X273943Y16054D01*
X275000Y15915D01*
X276057Y16054D01*
X277043Y16462D01*
X277888Y17111D01*
X278538Y17957D01*
X278946Y18943D01*
X279085Y20000D01*
X278946Y21057D01*
X278538Y22042D01*
X277888Y22888D01*
X277043Y23538D01*
X276057Y23946D01*
X275000Y24085D01*
D02*
G37*
G36*
X265000D02*
X263943Y23946D01*
X262958Y23538D01*
X262111Y22888D01*
X261462Y22042D01*
X261054Y21057D01*
X260915Y20000D01*
X261054Y18943D01*
X261462Y17957D01*
X262111Y17111D01*
X262958Y16462D01*
X263943Y16054D01*
X265000Y15915D01*
X266057Y16054D01*
X267042Y16462D01*
X267888Y17111D01*
X268538Y17957D01*
X268946Y18943D01*
X269085Y20000D01*
X268946Y21057D01*
X268538Y22042D01*
X267888Y22888D01*
X267042Y23538D01*
X266057Y23946D01*
X265000Y24085D01*
D02*
G37*
G36*
X255000D02*
X253943Y23946D01*
X252958Y23538D01*
X252112Y22888D01*
X251462Y22042D01*
X251054Y21057D01*
X250915Y20000D01*
X251054Y18943D01*
X251462Y17957D01*
X252112Y17111D01*
X252958Y16462D01*
X253943Y16054D01*
X255000Y15915D01*
X256057Y16054D01*
X257043Y16462D01*
X257889Y17111D01*
X258538Y17957D01*
X258946Y18943D01*
X259085Y20000D01*
X258946Y21057D01*
X258538Y22042D01*
X257889Y22888D01*
X257043Y23538D01*
X256057Y23946D01*
X255000Y24085D01*
D02*
G37*
G36*
X369221Y19500D02*
X365500D01*
Y15779D01*
X366109Y15859D01*
X367143Y16288D01*
X368031Y16969D01*
X368712Y17857D01*
X369141Y18891D01*
X369221Y19500D01*
D02*
G37*
G36*
X364500D02*
X360779D01*
X360859Y18891D01*
X361288Y17857D01*
X361969Y16969D01*
X362857Y16288D01*
X363891Y15859D01*
X364500Y15779D01*
Y19500D01*
D02*
G37*
G36*
X289221D02*
X285500D01*
Y15779D01*
X286109Y15859D01*
X287143Y16288D01*
X288031Y16969D01*
X288712Y17857D01*
X289141Y18891D01*
X289221Y19500D01*
D02*
G37*
G36*
X284500D02*
X280779D01*
X280859Y18891D01*
X281288Y17857D01*
X281969Y16969D01*
X282857Y16288D01*
X283891Y15859D01*
X284500Y15779D01*
Y19500D01*
D02*
G37*
G36*
X575000Y41335D02*
X572868Y41195D01*
X570772Y40778D01*
X568749Y40091D01*
X566832Y39147D01*
X565056Y37959D01*
X563449Y36551D01*
X562041Y34944D01*
X560853Y33167D01*
X559908Y31251D01*
X559222Y29228D01*
X558805Y27132D01*
X558665Y25000D01*
X558805Y22868D01*
X559222Y20772D01*
X559908Y18749D01*
X560853Y16833D01*
X562041Y15056D01*
X563449Y13449D01*
X565056Y12041D01*
X566832Y10853D01*
X568749Y9909D01*
X570772Y9222D01*
X572868Y8805D01*
X575000Y8665D01*
X577132Y8805D01*
X579228Y9222D01*
X581251Y9909D01*
X583168Y10853D01*
X584944Y12041D01*
X586551Y13449D01*
X587959Y15056D01*
X589147Y16833D01*
X590092Y18749D01*
X590778Y20772D01*
X591195Y22868D01*
X591335Y25000D01*
X591195Y27132D01*
X590778Y29228D01*
X590092Y31251D01*
X589147Y33167D01*
X587959Y34944D01*
X586551Y36551D01*
X584944Y37959D01*
X583168Y39147D01*
X581251Y40091D01*
X579228Y40778D01*
X577132Y41195D01*
X575000Y41335D01*
D02*
G37*
G36*
X25000D02*
X22868Y41195D01*
X20772Y40778D01*
X18749Y40091D01*
X16833Y39147D01*
X15056Y37959D01*
X13449Y36551D01*
X12041Y34944D01*
X10853Y33167D01*
X9909Y31251D01*
X9222Y29228D01*
X8805Y27132D01*
X8665Y25000D01*
X8805Y22868D01*
X9222Y20772D01*
X9909Y18749D01*
X10853Y16833D01*
X12041Y15056D01*
X13449Y13449D01*
X15056Y12041D01*
X16833Y10853D01*
X18749Y9909D01*
X20772Y9222D01*
X22868Y8805D01*
X25000Y8665D01*
X27132Y8805D01*
X29228Y9222D01*
X31251Y9909D01*
X33167Y10853D01*
X34944Y12041D01*
X36551Y13449D01*
X37959Y15056D01*
X39147Y16833D01*
X40091Y18749D01*
X40778Y20772D01*
X41195Y22868D01*
X41335Y25000D01*
X41195Y27132D01*
X40778Y29228D01*
X40091Y31251D01*
X39147Y33167D01*
X37959Y34944D01*
X36551Y36551D01*
X34944Y37959D01*
X33167Y39147D01*
X31251Y40091D01*
X29228Y40778D01*
X27132Y41195D01*
X25000Y41335D01*
D02*
G37*
G36*
X230000Y26122D02*
X156793D01*
X155932Y26009D01*
X155129Y25676D01*
X154440Y25147D01*
X148103Y18810D01*
X147574Y18121D01*
X147436Y17788D01*
X147241Y17318D01*
X147140Y16550D01*
X145657D01*
Y8450D01*
X153756D01*
Y13034D01*
X153785Y13250D01*
Y15078D01*
X158172Y19465D01*
X230000D01*
X230861Y19579D01*
X231664Y19911D01*
X232354Y20440D01*
X232882Y21129D01*
X233215Y21932D01*
X233329Y22794D01*
X233215Y23655D01*
X232882Y24458D01*
X232354Y25147D01*
X231664Y25676D01*
X230861Y26009D01*
X230000Y26122D01*
D02*
G37*
G36*
X199706Y16585D02*
X198649Y16446D01*
X197664Y16038D01*
X196818Y15389D01*
X196169Y14543D01*
X195761Y13557D01*
X195622Y12500D01*
X195761Y11443D01*
X196169Y10458D01*
X196818Y9612D01*
X197664Y8962D01*
X198649Y8554D01*
X199706Y8415D01*
X200764Y8554D01*
X201749Y8962D01*
X202595Y9612D01*
X203244Y10458D01*
X203652Y11443D01*
X203791Y12500D01*
X203652Y13557D01*
X203244Y14543D01*
X202595Y15389D01*
X201749Y16038D01*
X200764Y16446D01*
X199706Y16585D01*
D02*
G37*
G36*
X189707D02*
X188649Y16446D01*
X187664Y16038D01*
X186818Y15389D01*
X186169Y14543D01*
X185761Y13557D01*
X185622Y12500D01*
X185761Y11443D01*
X186169Y10458D01*
X186818Y9612D01*
X187664Y8962D01*
X188649Y8554D01*
X189707Y8415D01*
X190764Y8554D01*
X191749Y8962D01*
X192595Y9612D01*
X193244Y10458D01*
X193652Y11443D01*
X193791Y12500D01*
X193652Y13557D01*
X193244Y14543D01*
X192595Y15389D01*
X191749Y16038D01*
X190764Y16446D01*
X189707Y16585D01*
D02*
G37*
G36*
X179707D02*
X178649Y16446D01*
X177664Y16038D01*
X176818Y15389D01*
X176169Y14543D01*
X175761Y13557D01*
X175621Y12500D01*
X175761Y11443D01*
X176169Y10458D01*
X176818Y9612D01*
X177664Y8962D01*
X178649Y8554D01*
X179707Y8415D01*
X180764Y8554D01*
X181749Y8962D01*
X182595Y9612D01*
X183244Y10458D01*
X183652Y11443D01*
X183791Y12500D01*
X183652Y13557D01*
X183244Y14543D01*
X182595Y15389D01*
X181749Y16038D01*
X180764Y16446D01*
X179707Y16585D01*
D02*
G37*
G36*
X169706D02*
X168649Y16446D01*
X167664Y16038D01*
X166818Y15389D01*
X166169Y14543D01*
X165761Y13557D01*
X165621Y12500D01*
X165761Y11443D01*
X166169Y10458D01*
X166818Y9612D01*
X167664Y8962D01*
X168649Y8554D01*
X169706Y8415D01*
X170764Y8554D01*
X171749Y8962D01*
X172595Y9612D01*
X173244Y10458D01*
X173652Y11443D01*
X173791Y12500D01*
X173652Y13557D01*
X173244Y14543D01*
X172595Y15389D01*
X171749Y16038D01*
X170764Y16446D01*
X169706Y16585D01*
D02*
G37*
G36*
X159706D02*
X158649Y16446D01*
X157664Y16038D01*
X156818Y15389D01*
X156169Y14543D01*
X155761Y13557D01*
X155622Y12500D01*
X155761Y11443D01*
X156169Y10458D01*
X156818Y9612D01*
X157664Y8962D01*
X158649Y8554D01*
X159706Y8415D01*
X160764Y8554D01*
X161749Y8962D01*
X162595Y9612D01*
X163244Y10458D01*
X163652Y11443D01*
X163791Y12500D01*
X163652Y13557D01*
X163244Y14543D01*
X162595Y15389D01*
X161749Y16038D01*
X160764Y16446D01*
X159706Y16585D01*
D02*
G37*
%LPD*%
G36*
X577142Y388524D02*
X579231Y388022D01*
X581216Y387200D01*
X583048Y386077D01*
X584682Y384682D01*
X586077Y383048D01*
X587200Y381216D01*
X588022Y379231D01*
X588524Y377142D01*
X588692Y375000D01*
X588524Y372858D01*
X588022Y370769D01*
X587200Y368784D01*
X586077Y366952D01*
X584682Y365318D01*
X583048Y363923D01*
X581216Y362800D01*
X579231Y361978D01*
X577142Y361476D01*
X575000Y361308D01*
X572858Y361476D01*
X570769Y361978D01*
X568784Y362800D01*
X566952Y363923D01*
X565318Y365318D01*
X563923Y366952D01*
X562800Y368784D01*
X561978Y370769D01*
X561476Y372858D01*
X561308Y375000D01*
X561476Y377142D01*
X561978Y379231D01*
X562800Y381216D01*
X563923Y383048D01*
X565318Y384682D01*
X566952Y386077D01*
X568784Y387200D01*
X570769Y388022D01*
X572858Y388524D01*
X575000Y388692D01*
X577142Y388524D01*
D02*
G37*
%LPC*%
G36*
X575000Y384847D02*
X573079Y384658D01*
X571232Y384098D01*
X569529Y383188D01*
X568037Y381963D01*
X566812Y380471D01*
X565902Y378768D01*
X565342Y376921D01*
X565153Y375000D01*
X565342Y373079D01*
X565902Y371232D01*
X566812Y369529D01*
X568037Y368037D01*
X569529Y366812D01*
X571232Y365902D01*
X573079Y365342D01*
X575000Y365153D01*
X576921Y365342D01*
X578768Y365902D01*
X580471Y366812D01*
X581963Y368037D01*
X583188Y369529D01*
X584098Y371232D01*
X584658Y373079D01*
X584847Y375000D01*
X584658Y376921D01*
X584098Y378768D01*
X583188Y380471D01*
X581963Y381963D01*
X580471Y383188D01*
X578768Y384098D01*
X576921Y384658D01*
X575000Y384847D01*
D02*
G37*
%LPD*%
G36*
X27142Y388524D02*
X29231Y388022D01*
X31216Y387200D01*
X33048Y386077D01*
X34682Y384682D01*
X36077Y383048D01*
X37200Y381216D01*
X38022Y379231D01*
X38524Y377142D01*
X38692Y375000D01*
X38524Y372858D01*
X38022Y370769D01*
X37200Y368784D01*
X36077Y366952D01*
X34682Y365318D01*
X33048Y363923D01*
X31216Y362800D01*
X29231Y361978D01*
X27142Y361476D01*
X25000Y361308D01*
X22858Y361476D01*
X20769Y361978D01*
X18784Y362800D01*
X16952Y363923D01*
X15318Y365318D01*
X13923Y366952D01*
X12800Y368784D01*
X11978Y370769D01*
X11476Y372858D01*
X11308Y375000D01*
X11476Y377142D01*
X11978Y379231D01*
X12800Y381216D01*
X13923Y383048D01*
X15318Y384682D01*
X16952Y386077D01*
X18784Y387200D01*
X20769Y388022D01*
X22858Y388524D01*
X25000Y388692D01*
X27142Y388524D01*
D02*
G37*
%LPC*%
G36*
X25000Y384847D02*
X23079Y384658D01*
X21232Y384098D01*
X19529Y383188D01*
X18037Y381963D01*
X16812Y380471D01*
X15902Y378768D01*
X15342Y376921D01*
X15153Y375000D01*
X15342Y373079D01*
X15902Y371232D01*
X16812Y369529D01*
X18037Y368037D01*
X19529Y366812D01*
X21232Y365902D01*
X23079Y365342D01*
X25000Y365153D01*
X26921Y365342D01*
X28768Y365902D01*
X30471Y366812D01*
X31963Y368037D01*
X33188Y369529D01*
X34098Y371232D01*
X34658Y373079D01*
X34847Y375000D01*
X34658Y376921D01*
X34098Y378768D01*
X33188Y380471D01*
X31963Y381963D01*
X30471Y383188D01*
X28768Y384098D01*
X26921Y384658D01*
X25000Y384847D01*
D02*
G37*
%LPD*%
G36*
X577142Y38524D02*
X579231Y38022D01*
X581216Y37200D01*
X583048Y36077D01*
X584682Y34682D01*
X586077Y33048D01*
X587200Y31216D01*
X588022Y29231D01*
X588524Y27142D01*
X588692Y25000D01*
X588524Y22858D01*
X588022Y20769D01*
X587200Y18784D01*
X586077Y16952D01*
X584682Y15318D01*
X583048Y13923D01*
X581216Y12800D01*
X579231Y11978D01*
X577142Y11476D01*
X575000Y11308D01*
X572858Y11476D01*
X570769Y11978D01*
X568784Y12800D01*
X566952Y13923D01*
X565318Y15318D01*
X563923Y16952D01*
X562800Y18784D01*
X561978Y20769D01*
X561476Y22858D01*
X561308Y25000D01*
X561476Y27142D01*
X561978Y29231D01*
X562800Y31216D01*
X563923Y33048D01*
X565318Y34682D01*
X566952Y36077D01*
X568784Y37200D01*
X570769Y38022D01*
X572858Y38524D01*
X575000Y38692D01*
X577142Y38524D01*
D02*
G37*
%LPC*%
G36*
X575000Y34847D02*
X573079Y34658D01*
X571232Y34098D01*
X569529Y33188D01*
X568037Y31963D01*
X566812Y30471D01*
X565902Y28768D01*
X565342Y26921D01*
X565153Y25000D01*
X565342Y23079D01*
X565902Y21232D01*
X566812Y19529D01*
X568037Y18037D01*
X569529Y16812D01*
X571232Y15902D01*
X573079Y15342D01*
X575000Y15153D01*
X576921Y15342D01*
X578768Y15902D01*
X580471Y16812D01*
X581963Y18037D01*
X583188Y19529D01*
X584098Y21232D01*
X584658Y23079D01*
X584847Y25000D01*
X584658Y26921D01*
X584098Y28768D01*
X583188Y30471D01*
X581963Y31963D01*
X580471Y33188D01*
X578768Y34098D01*
X576921Y34658D01*
X575000Y34847D01*
D02*
G37*
%LPD*%
G36*
X27142Y38524D02*
X29231Y38022D01*
X31216Y37200D01*
X33048Y36077D01*
X34682Y34682D01*
X36077Y33048D01*
X37200Y31216D01*
X38022Y29231D01*
X38524Y27142D01*
X38692Y25000D01*
X38524Y22858D01*
X38022Y20769D01*
X37200Y18784D01*
X36077Y16952D01*
X34682Y15318D01*
X33048Y13923D01*
X31216Y12800D01*
X29231Y11978D01*
X27142Y11476D01*
X25000Y11308D01*
X22858Y11476D01*
X20769Y11978D01*
X18784Y12800D01*
X16952Y13923D01*
X15318Y15318D01*
X13923Y16952D01*
X12800Y18784D01*
X11978Y20769D01*
X11476Y22858D01*
X11308Y25000D01*
X11476Y27142D01*
X11978Y29231D01*
X12800Y31216D01*
X13923Y33048D01*
X15318Y34682D01*
X16952Y36077D01*
X18784Y37200D01*
X20769Y38022D01*
X22858Y38524D01*
X25000Y38692D01*
X27142Y38524D01*
D02*
G37*
%LPC*%
G36*
X25000Y34847D02*
X23079Y34658D01*
X21232Y34098D01*
X19529Y33188D01*
X18037Y31963D01*
X16812Y30471D01*
X15902Y28768D01*
X15342Y26921D01*
X15153Y25000D01*
X15342Y23079D01*
X15902Y21232D01*
X16812Y19529D01*
X18037Y18037D01*
X19529Y16812D01*
X21232Y15902D01*
X23079Y15342D01*
X25000Y15153D01*
X26921Y15342D01*
X28768Y15902D01*
X30471Y16812D01*
X31963Y18037D01*
X33188Y19529D01*
X34098Y21232D01*
X34658Y23079D01*
X34847Y25000D01*
X34658Y26921D01*
X34098Y28768D01*
X33188Y30471D01*
X31963Y31963D01*
X30471Y33188D01*
X28768Y34098D01*
X26921Y34658D01*
X25000Y34847D01*
D02*
G37*
%LPD*%
D52*
X296000Y259000D02*
X322000D01*
X180000Y85000D02*
Y102000D01*
X324188Y181000D02*
X325000D01*
X215000Y180000D02*
X323188D01*
X324188Y181000D01*
X291000Y305000D02*
X332000D01*
X297204Y269000D02*
Y287000D01*
X302000Y355000D02*
Y372500D01*
X493000Y156161D02*
Y196000D01*
X455000Y184000D02*
Y203975D01*
X215000Y196000D02*
X360000D01*
X215000Y212000D02*
X360000D01*
X215000Y204000D02*
X360000D01*
X215000Y188000D02*
X360000D01*
X229000Y166000D02*
X338000D01*
X190000Y44000D02*
Y75000D01*
X235000Y160000D02*
X353000D01*
X200000Y65000D02*
X234729D01*
X200000Y75000D02*
X229000D01*
X291000Y319000D02*
X358000D01*
X285000Y350000D02*
X285014Y350013D01*
Y362858D01*
X120000Y285000D02*
Y315000D01*
D54*
X519000Y142161D02*
Y197000D01*
X502000Y142000D02*
X519161D01*
X519000Y142161D02*
X519161Y142000D01*
X150000Y120000D02*
X346000D01*
X253000Y38000D02*
X274000D01*
X150000Y110000D02*
X351000D01*
X325000Y20000D02*
Y40000D01*
X300000Y50000D02*
X385000D01*
X170000Y325000D02*
Y337000D01*
X156793Y22794D02*
X230000D01*
X150457Y16456D02*
X156793Y22794D01*
X150457Y13250D02*
Y16456D01*
X149706Y12500D02*
X150457Y13250D01*
X245000Y30000D02*
X253000Y38000D01*
X245000Y20000D02*
Y30000D01*
D55*
X308000Y292000D02*
X332000D01*
X245000Y172000D02*
X332000D01*
D56*
X120000Y58000D02*
Y75000D01*
X130000Y270000D02*
Y315000D01*
D57*
X302000Y372500D02*
D03*
X312000D02*
D03*
X322000D02*
D03*
X332000D02*
D03*
X342000D02*
D03*
X352000D02*
D03*
X362000D02*
D03*
X583000Y157000D02*
D03*
Y167000D02*
D03*
Y177000D02*
D03*
X295000Y20000D02*
D03*
X285000D02*
D03*
X275000D02*
D03*
X265000D02*
D03*
X255000D02*
D03*
X375000D02*
D03*
X365000D02*
D03*
X355000D02*
D03*
X345000D02*
D03*
X335000D02*
D03*
X199706Y12500D02*
D03*
X189707D02*
D03*
X179707D02*
D03*
X169706D02*
D03*
X159706D02*
D03*
D58*
X372000Y372500D02*
D03*
X245000Y20000D02*
D03*
X325000D02*
D03*
X149706Y12500D02*
D03*
D59*
X283800Y375600D02*
D03*
X388918D02*
D03*
Y249616D02*
D03*
X283800D02*
D03*
D60*
X571661Y314000D02*
D03*
Y296677D02*
D03*
D61*
X501500Y25306D02*
D03*
X425340D02*
D03*
D62*
X521500D02*
D03*
X445340D02*
D03*
D63*
X583000Y147000D02*
D03*
D64*
X200000Y325000D02*
D03*
Y315000D02*
D03*
X190000Y325000D02*
D03*
Y315000D02*
D03*
X180000Y325000D02*
D03*
Y315000D02*
D03*
X170000Y325000D02*
D03*
Y315000D02*
D03*
X160000Y325000D02*
D03*
Y315000D02*
D03*
X150000Y325000D02*
D03*
Y315000D02*
D03*
X140000Y325000D02*
D03*
Y315000D02*
D03*
X130000Y325000D02*
D03*
Y315000D02*
D03*
X120000Y325000D02*
D03*
Y315000D02*
D03*
X110000Y325000D02*
D03*
Y315000D02*
D03*
X100000Y325000D02*
D03*
Y315000D02*
D03*
X90000Y325000D02*
D03*
Y315000D02*
D03*
X80000Y325000D02*
D03*
Y315000D02*
D03*
X70000Y325000D02*
D03*
Y315000D02*
D03*
X60000Y325000D02*
D03*
Y315000D02*
D03*
X50000Y325000D02*
D03*
Y315000D02*
D03*
X40000Y325000D02*
D03*
Y315000D02*
D03*
X30000Y325000D02*
D03*
Y315000D02*
D03*
X20000Y325000D02*
D03*
X200000Y85000D02*
D03*
Y75000D02*
D03*
X190000Y85000D02*
D03*
Y75000D02*
D03*
X180000Y85000D02*
D03*
Y75000D02*
D03*
X170000Y85000D02*
D03*
Y75000D02*
D03*
X160000Y85000D02*
D03*
Y75000D02*
D03*
X150000Y85000D02*
D03*
Y75000D02*
D03*
X140000Y85000D02*
D03*
Y75000D02*
D03*
X130000Y85000D02*
D03*
Y75000D02*
D03*
X120000Y85000D02*
D03*
Y75000D02*
D03*
X110000Y85000D02*
D03*
Y75000D02*
D03*
X100000Y85000D02*
D03*
Y75000D02*
D03*
X90000Y85000D02*
D03*
Y75000D02*
D03*
X80000Y85000D02*
D03*
Y75000D02*
D03*
X70000Y85000D02*
D03*
Y75000D02*
D03*
X60000Y85000D02*
D03*
Y75000D02*
D03*
X50000Y85000D02*
D03*
Y75000D02*
D03*
X40000Y85000D02*
D03*
Y75000D02*
D03*
X30000Y85000D02*
D03*
Y75000D02*
D03*
X20000Y85000D02*
D03*
D65*
Y315000D02*
D03*
Y75000D02*
D03*
D66*
X590000Y360000D02*
D03*
X580000Y340000D02*
D03*
Y300000D02*
D03*
Y260000D02*
D03*
X590000Y240000D02*
D03*
X580000Y220000D02*
D03*
X590000Y200000D02*
D03*
Y120000D02*
D03*
X580000Y100000D02*
D03*
X590000Y80000D02*
D03*
X580000Y60000D02*
D03*
X590000Y40000D02*
D03*
X560000Y340000D02*
D03*
Y260000D02*
D03*
X570000Y240000D02*
D03*
X560000Y220000D02*
D03*
X570000Y200000D02*
D03*
X560000Y140000D02*
D03*
X570000Y120000D02*
D03*
X560000Y100000D02*
D03*
X570000Y80000D02*
D03*
X560000Y60000D02*
D03*
X540000Y380000D02*
D03*
X550000Y360000D02*
D03*
Y320000D02*
D03*
Y280000D02*
D03*
Y240000D02*
D03*
X540000Y220000D02*
D03*
X550000Y200000D02*
D03*
Y120000D02*
D03*
Y80000D02*
D03*
Y40000D02*
D03*
X540000Y20000D02*
D03*
X520000Y380000D02*
D03*
X530000Y360000D02*
D03*
X520000Y300000D02*
D03*
Y260000D02*
D03*
X530000Y240000D02*
D03*
X520000Y220000D02*
D03*
Y60000D02*
D03*
X530000Y40000D02*
D03*
X500000Y380000D02*
D03*
X510000Y360000D02*
D03*
Y320000D02*
D03*
X500000Y300000D02*
D03*
X510000Y280000D02*
D03*
Y240000D02*
D03*
X500000Y220000D02*
D03*
Y180000D02*
D03*
X510000Y80000D02*
D03*
X500000Y60000D02*
D03*
X510000Y40000D02*
D03*
X480000Y380000D02*
D03*
X490000Y360000D02*
D03*
X480000Y260000D02*
D03*
X490000Y240000D02*
D03*
X480000Y220000D02*
D03*
X490000Y120000D02*
D03*
X480000Y100000D02*
D03*
X490000Y80000D02*
D03*
X480000Y60000D02*
D03*
X490000Y40000D02*
D03*
X480000Y20000D02*
D03*
X460000Y380000D02*
D03*
X470000Y360000D02*
D03*
X460000Y340000D02*
D03*
Y300000D02*
D03*
X470000Y240000D02*
D03*
X460000Y220000D02*
D03*
X470000Y120000D02*
D03*
X460000Y100000D02*
D03*
X470000Y80000D02*
D03*
X460000Y60000D02*
D03*
X470000Y40000D02*
D03*
X460000Y20000D02*
D03*
X440000Y380000D02*
D03*
X450000Y360000D02*
D03*
X440000Y340000D02*
D03*
Y300000D02*
D03*
X450000Y280000D02*
D03*
X440000Y260000D02*
D03*
X450000Y240000D02*
D03*
X440000Y220000D02*
D03*
Y180000D02*
D03*
X450000Y160000D02*
D03*
X420000Y380000D02*
D03*
X430000Y360000D02*
D03*
X420000Y340000D02*
D03*
Y300000D02*
D03*
X430000Y280000D02*
D03*
X420000Y260000D02*
D03*
X430000Y240000D02*
D03*
X420000Y220000D02*
D03*
Y180000D02*
D03*
X430000Y160000D02*
D03*
Y80000D02*
D03*
X420000Y60000D02*
D03*
X430000Y40000D02*
D03*
X410000Y360000D02*
D03*
X400000Y340000D02*
D03*
Y300000D02*
D03*
X410000Y280000D02*
D03*
X400000Y260000D02*
D03*
X410000Y240000D02*
D03*
X400000Y220000D02*
D03*
Y180000D02*
D03*
X410000Y160000D02*
D03*
Y120000D02*
D03*
X400000Y100000D02*
D03*
X410000Y80000D02*
D03*
X400000Y60000D02*
D03*
X410000Y40000D02*
D03*
X400000Y20000D02*
D03*
X390000Y360000D02*
D03*
X380000Y340000D02*
D03*
Y300000D02*
D03*
X390000Y280000D02*
D03*
X380000Y260000D02*
D03*
Y220000D02*
D03*
Y180000D02*
D03*
X390000Y160000D02*
D03*
Y120000D02*
D03*
X380000Y100000D02*
D03*
X390000Y80000D02*
D03*
Y40000D02*
D03*
X360000Y380000D02*
D03*
Y300000D02*
D03*
X370000Y280000D02*
D03*
X360000Y260000D02*
D03*
X370000Y240000D02*
D03*
X360000Y220000D02*
D03*
Y180000D02*
D03*
X370000Y160000D02*
D03*
X360000Y60000D02*
D03*
X340000Y380000D02*
D03*
X350000Y360000D02*
D03*
X340000Y140000D02*
D03*
X350000Y80000D02*
D03*
Y40000D02*
D03*
X310000Y360000D02*
D03*
X280000Y300000D02*
D03*
Y220000D02*
D03*
Y140000D02*
D03*
X290000Y40000D02*
D03*
X260000Y380000D02*
D03*
X270000Y320000D02*
D03*
X260000Y300000D02*
D03*
Y260000D02*
D03*
X240000Y380000D02*
D03*
X250000Y320000D02*
D03*
X240000Y300000D02*
D03*
Y260000D02*
D03*
Y220000D02*
D03*
X220000Y380000D02*
D03*
X230000Y320000D02*
D03*
X220000Y300000D02*
D03*
Y260000D02*
D03*
X230000Y40000D02*
D03*
X200000Y380000D02*
D03*
X210000Y320000D02*
D03*
X200000Y300000D02*
D03*
Y260000D02*
D03*
Y220000D02*
D03*
X210000Y160000D02*
D03*
X200000Y140000D02*
D03*
X210000Y40000D02*
D03*
X180000Y380000D02*
D03*
Y300000D02*
D03*
Y260000D02*
D03*
Y220000D02*
D03*
X190000Y160000D02*
D03*
X180000Y60000D02*
D03*
X160000Y380000D02*
D03*
Y300000D02*
D03*
Y260000D02*
D03*
Y220000D02*
D03*
X170000Y160000D02*
D03*
X160000Y60000D02*
D03*
X140000Y380000D02*
D03*
Y300000D02*
D03*
Y260000D02*
D03*
Y220000D02*
D03*
Y180000D02*
D03*
X150000Y160000D02*
D03*
X140000Y140000D02*
D03*
Y100000D02*
D03*
Y60000D02*
D03*
X150000Y40000D02*
D03*
X140000Y20000D02*
D03*
X120000Y380000D02*
D03*
Y260000D02*
D03*
Y220000D02*
D03*
Y180000D02*
D03*
X130000Y160000D02*
D03*
X120000Y140000D02*
D03*
Y100000D02*
D03*
X130000Y40000D02*
D03*
X100000Y380000D02*
D03*
Y340000D02*
D03*
X110000Y280000D02*
D03*
X100000Y260000D02*
D03*
Y220000D02*
D03*
Y180000D02*
D03*
X110000Y160000D02*
D03*
X100000Y140000D02*
D03*
Y60000D02*
D03*
X110000Y40000D02*
D03*
X100000Y20000D02*
D03*
X80000Y380000D02*
D03*
Y340000D02*
D03*
Y220000D02*
D03*
Y180000D02*
D03*
X90000Y160000D02*
D03*
X80000Y140000D02*
D03*
Y100000D02*
D03*
Y60000D02*
D03*
X90000Y40000D02*
D03*
X80000Y20000D02*
D03*
X60000Y380000D02*
D03*
X70000Y360000D02*
D03*
X60000Y340000D02*
D03*
Y300000D02*
D03*
X70000Y280000D02*
D03*
X60000Y260000D02*
D03*
X70000Y240000D02*
D03*
X60000Y220000D02*
D03*
Y180000D02*
D03*
X70000Y160000D02*
D03*
X60000Y140000D02*
D03*
Y100000D02*
D03*
Y60000D02*
D03*
X70000Y40000D02*
D03*
X60000Y20000D02*
D03*
X50000Y360000D02*
D03*
X40000Y340000D02*
D03*
Y300000D02*
D03*
Y260000D02*
D03*
Y220000D02*
D03*
Y180000D02*
D03*
X50000Y160000D02*
D03*
X40000Y140000D02*
D03*
X50000Y120000D02*
D03*
X40000Y100000D02*
D03*
Y60000D02*
D03*
X50000Y40000D02*
D03*
X20000Y340000D02*
D03*
X30000Y280000D02*
D03*
Y240000D02*
D03*
X20000Y180000D02*
D03*
X30000Y160000D02*
D03*
X20000Y140000D02*
D03*
X30000Y120000D02*
D03*
X20000Y100000D02*
D03*
Y60000D02*
D03*
X519161Y142000D02*
D03*
X519000Y197000D02*
D03*
X502000Y142000D02*
D03*
X322000Y259000D02*
D03*
X308000Y292000D02*
D03*
X180000Y102000D02*
D03*
X332000Y305000D02*
D03*
Y292000D02*
D03*
X297204Y269000D02*
D03*
Y287000D02*
D03*
X296000Y259000D02*
D03*
X302000Y355000D02*
D03*
X230000Y22794D02*
D03*
X493000Y156161D02*
D03*
Y196000D02*
D03*
X455000Y184000D02*
D03*
X360000Y196000D02*
D03*
Y212000D02*
D03*
X215000D02*
D03*
X455000Y203975D02*
D03*
X360000Y204000D02*
D03*
X215000D02*
D03*
X360000Y188000D02*
D03*
X215000Y196000D02*
D03*
Y188000D02*
D03*
Y180000D02*
D03*
X325000Y181000D02*
D03*
X332000Y172000D02*
D03*
X245000D02*
D03*
X338000Y166000D02*
D03*
X229000D02*
D03*
X346000Y120000D02*
D03*
X274000Y38000D02*
D03*
X280500Y87500D02*
D03*
X342000Y82610D02*
D03*
X351000Y110000D02*
D03*
X255000Y120000D02*
D03*
X150000D02*
D03*
Y110000D02*
D03*
X325000Y40000D02*
D03*
X300000Y50000D02*
D03*
X385000D02*
D03*
X190000Y44000D02*
D03*
X120000Y58000D02*
D03*
X235000Y160000D02*
D03*
X353000D02*
D03*
X234729Y65000D02*
D03*
X200000D02*
D03*
X229000Y75000D02*
D03*
X291000Y305000D02*
D03*
Y319000D02*
D03*
X358000D02*
D03*
X285000Y350000D02*
D03*
X285014Y362858D02*
D03*
X170000Y337000D02*
D03*
X130000Y270000D02*
D03*
X120000Y285000D02*
D03*
D67*
X25000Y375000D02*
D03*
X575000D02*
D03*
Y25000D02*
D03*
X25000D02*
D03*
M02*
