G04*
G04 #@! TF.GenerationSoftware,Altium Limited,Altium Designer,21.9.2 (33)*
G04*
G04 Layer_Color=16711935*
%FSLAX25Y25*%
%MOIN*%
G70*
G04*
G04 #@! TF.SameCoordinates,86937909-DB1A-4A49-A316-6C6AAAB68E2C*
G04*
G04*
G04 #@! TF.FilePolarity,Positive*
G04*
G01*
G75*
%ADD52C,0.02000*%
%ADD68C,0.00394*%
%ADD69R,0.11496X0.02436*%
D52*
X0Y0D02*
X600000D01*
X0Y400000D02*
X600000D01*
Y0D02*
Y400000D01*
X0Y0D02*
Y400000D01*
D68*
X515323Y158488D02*
G03*
X515323Y158488I-1969J0D01*
G01*
X479386Y327642D02*
G03*
X479386Y327642I-1969J0D01*
G01*
X301129Y106763D02*
G03*
X301129Y106763I-1969J0D01*
G01*
X464669Y127146D02*
X473331D01*
X464669Y132854D02*
X473331D01*
Y127146D02*
Y132854D01*
X464669Y127146D02*
Y132854D01*
X464669Y175244D02*
X473331D01*
X464669Y180756D02*
X473331D01*
Y175244D02*
Y180756D01*
X464669Y175244D02*
Y180756D01*
X445252Y76055D02*
X456748D01*
X445252Y57945D02*
X456748D01*
Y76055D01*
X445252Y57945D02*
Y76055D01*
X490098Y269646D02*
Y275354D01*
X498760Y269646D02*
Y275354D01*
X490098D02*
X498760D01*
X490098Y269646D02*
X498760D01*
X474760D02*
Y275354D01*
X466098Y269646D02*
Y275354D01*
Y269646D02*
X474760D01*
X466098Y275354D02*
X474760D01*
X530736Y67134D02*
Y85244D01*
X542232Y67134D02*
Y85244D01*
X530736Y67134D02*
X542232D01*
X530736Y85244D02*
X542232D01*
X533492Y204146D02*
Y209854D01*
X524831Y204146D02*
Y209854D01*
Y204146D02*
X533492D01*
X524831Y209854D02*
X533492D01*
X501669Y121146D02*
Y126854D01*
X510331Y121146D02*
Y126854D01*
X501669D02*
X510331D01*
X501669Y121146D02*
X510331D01*
X509811Y154945D02*
X536189D01*
X509811Y173055D02*
X536189D01*
X509811Y154945D02*
Y173055D01*
X536189Y154945D02*
Y173055D01*
X464669Y151315D02*
Y156827D01*
X473331Y151315D02*
Y156827D01*
X464669D02*
X473331D01*
X464669Y151315D02*
X473331D01*
X375492Y118146D02*
Y123854D01*
X366831Y118146D02*
Y123854D01*
Y118146D02*
X375492D01*
X366831Y123854D02*
X375492D01*
X520669Y277146D02*
Y282854D01*
X529331Y277146D02*
Y282854D01*
X520669D02*
X529331D01*
X520669Y277146D02*
X529331D01*
X473874Y291815D02*
Y331185D01*
X489622Y291815D02*
Y331185D01*
X473874D02*
X489622D01*
X473874Y291815D02*
X489622D01*
X295618Y59913D02*
X325145D01*
X295618Y110306D02*
X325145D01*
Y59913D02*
Y110306D01*
X295618Y59913D02*
Y110306D01*
X440831Y311146D02*
Y316854D01*
X449492Y311146D02*
Y316854D01*
X440831D02*
X449492D01*
X440831Y311146D02*
X449492D01*
X506000Y240364D02*
Y258868D01*
X456000Y240364D02*
Y258868D01*
X506000D01*
X456000Y240364D02*
X506000D01*
X423669Y118146D02*
Y123854D01*
X432331Y118146D02*
Y123854D01*
X423669D02*
X432331D01*
X423669Y118146D02*
X432331D01*
D69*
X451000Y74837D02*
D03*
X536484Y84026D02*
D03*
M02*
