G04*
G04 #@! TF.GenerationSoftware,Altium Limited,Altium Designer,21.9.2 (33)*
G04*
G04 Layer_Physical_Order=1*
G04 Layer_Color=255*
%FSLAX25Y25*%
%MOIN*%
G70*
G04*
G04 #@! TF.SameCoordinates,86937909-DB1A-4A49-A316-6C6AAAB68E2C*
G04*
G04*
G04 #@! TF.FilePolarity,Positive*
G04*
G01*
G75*
G04:AMPARAMS|DCode=39|XSize=110.24mil|YSize=19.68mil|CornerRadius=4.92mil|HoleSize=0mil|Usage=FLASHONLY|Rotation=0.000|XOffset=0mil|YOffset=0mil|HoleType=Round|Shape=RoundedRectangle|*
%AMROUNDEDRECTD39*
21,1,0.11024,0.00984,0,0,0.0*
21,1,0.10039,0.01968,0,0,0.0*
1,1,0.00984,0.05020,-0.00492*
1,1,0.00984,-0.05020,-0.00492*
1,1,0.00984,-0.05020,0.00492*
1,1,0.00984,0.05020,0.00492*
%
%ADD39ROUNDEDRECTD39*%
G04:AMPARAMS|DCode=40|XSize=137.8mil|YSize=80.71mil|CornerRadius=20.18mil|HoleSize=0mil|Usage=FLASHONLY|Rotation=0.000|XOffset=0mil|YOffset=0mil|HoleType=Round|Shape=RoundedRectangle|*
%AMROUNDEDRECTD40*
21,1,0.13780,0.04036,0,0,0.0*
21,1,0.09744,0.08071,0,0,0.0*
1,1,0.04035,0.04872,-0.02018*
1,1,0.04035,-0.04872,-0.02018*
1,1,0.04035,-0.04872,0.02018*
1,1,0.04035,0.04872,0.02018*
%
%ADD40ROUNDEDRECTD40*%
G04:AMPARAMS|DCode=41|XSize=157.48mil|YSize=80.71mil|CornerRadius=20.18mil|HoleSize=0mil|Usage=FLASHONLY|Rotation=0.000|XOffset=0mil|YOffset=0mil|HoleType=Round|Shape=RoundedRectangle|*
%AMROUNDEDRECTD41*
21,1,0.15748,0.04035,0,0,0.0*
21,1,0.11713,0.08071,0,0,0.0*
1,1,0.04035,0.05856,-0.02018*
1,1,0.04035,-0.05856,-0.02018*
1,1,0.04035,-0.05856,0.02018*
1,1,0.04035,0.05856,0.02018*
%
%ADD41ROUNDEDRECTD41*%
G04:AMPARAMS|DCode=42|XSize=137.8mil|YSize=80.71mil|CornerRadius=20.18mil|HoleSize=0mil|Usage=FLASHONLY|Rotation=0.000|XOffset=0mil|YOffset=0mil|HoleType=Round|Shape=RoundedRectangle|*
%AMROUNDEDRECTD42*
21,1,0.13780,0.04035,0,0,0.0*
21,1,0.09744,0.08071,0,0,0.0*
1,1,0.04035,0.04872,-0.02018*
1,1,0.04035,-0.04872,-0.02018*
1,1,0.04035,-0.04872,0.02018*
1,1,0.04035,0.04872,0.02018*
%
%ADD42ROUNDEDRECTD42*%
%ADD43R,0.05906X0.06299*%
%ADD44R,0.04921X0.05709*%
%ADD45R,0.06693X0.11417*%
%ADD46R,0.11811X0.06299*%
%ADD47O,0.01772X0.06299*%
%ADD48O,0.07480X0.02362*%
%ADD49O,0.09055X0.02362*%
%ADD50R,0.22047X0.08268*%
%ADD51C,0.03000*%
%ADD52C,0.02000*%
%ADD53C,0.01500*%
%ADD54C,0.05000*%
%ADD55C,0.04000*%
%ADD56C,0.02500*%
%ADD57C,0.06500*%
%ADD58R,0.06500X0.06500*%
%ADD59C,0.14500*%
%ADD60C,0.03543*%
%ADD61R,0.10000X0.10000*%
%ADD62C,0.10000*%
%ADD63R,0.06500X0.06500*%
%ADD64C,0.07000*%
%ADD65R,0.07000X0.07000*%
%ADD66C,0.05000*%
%ADD67C,0.18000*%
G36*
X598165Y1835D02*
X1835D01*
Y398165D01*
X598165D01*
X598165Y1835D01*
D02*
G37*
%LPC*%
G36*
X362500Y376721D02*
Y373000D01*
X366221D01*
X366141Y373609D01*
X365712Y374643D01*
X365031Y375531D01*
X364143Y376212D01*
X363109Y376641D01*
X362500Y376721D01*
D02*
G37*
G36*
X361500D02*
X360891Y376641D01*
X359857Y376212D01*
X358969Y375531D01*
X358288Y374643D01*
X357859Y373609D01*
X357779Y373000D01*
X361500D01*
Y376721D01*
D02*
G37*
G36*
X352000Y376585D02*
X350943Y376446D01*
X349957Y376038D01*
X349112Y375389D01*
X348462Y374542D01*
X348054Y373557D01*
X347915Y372500D01*
X348054Y371443D01*
X348462Y370458D01*
X349112Y369612D01*
X349957Y368962D01*
X350943Y368554D01*
X352000Y368415D01*
X353057Y368554D01*
X354043Y368962D01*
X354889Y369612D01*
X355538Y370458D01*
X355946Y371443D01*
X356085Y372500D01*
X355946Y373557D01*
X355538Y374542D01*
X354889Y375389D01*
X354043Y376038D01*
X353057Y376446D01*
X352000Y376585D01*
D02*
G37*
G36*
X283800Y385950D02*
X281781Y385751D01*
X279840Y385162D01*
X278050Y384206D01*
X276482Y382919D01*
X275195Y381350D01*
X274238Y379561D01*
X273649Y377620D01*
X273450Y375600D01*
X273649Y373581D01*
X274238Y371640D01*
X275195Y369850D01*
X276482Y368282D01*
X278050Y366995D01*
X279840Y366038D01*
X281706Y365472D01*
X281845Y365250D01*
X281948Y364930D01*
X281886Y364835D01*
X98000D01*
X97298Y364696D01*
X96702Y364298D01*
X88702Y356298D01*
X88304Y355702D01*
X88165Y355000D01*
Y328894D01*
X87831Y328756D01*
X86933Y328067D01*
X86244Y327169D01*
X85811Y326122D01*
X85663Y325000D01*
X85811Y323878D01*
X86244Y322831D01*
X86933Y321933D01*
X87831Y321244D01*
X88877Y320811D01*
X90000Y320663D01*
X91123Y320811D01*
X92169Y321244D01*
X93067Y321933D01*
X93756Y322831D01*
X94189Y323878D01*
X94337Y325000D01*
X94189Y326122D01*
X93756Y327169D01*
X93067Y328067D01*
X92169Y328756D01*
X91835Y328894D01*
Y354240D01*
X98760Y361165D01*
X281971D01*
X282168Y360871D01*
X281922Y360393D01*
X128558D01*
X127856Y360254D01*
X127260Y359856D01*
X118702Y351298D01*
X118304Y350702D01*
X118165Y350000D01*
Y328894D01*
X117831Y328756D01*
X116933Y328067D01*
X116244Y327169D01*
X115811Y326122D01*
X115663Y325000D01*
X115811Y323878D01*
X116244Y322831D01*
X116933Y321933D01*
X117831Y321244D01*
X118877Y320811D01*
X120000Y320663D01*
X121123Y320811D01*
X122169Y321244D01*
X123067Y321933D01*
X123756Y322831D01*
X124189Y323878D01*
X124337Y325000D01*
X124189Y326122D01*
X123756Y327169D01*
X123067Y328067D01*
X122169Y328756D01*
X121835Y328894D01*
Y349240D01*
X129318Y356723D01*
X136438D01*
X136564Y356520D01*
X136627Y356223D01*
X128702Y348298D01*
X128304Y347702D01*
X128165Y347000D01*
Y328894D01*
X127831Y328756D01*
X126933Y328067D01*
X126244Y327169D01*
X125811Y326122D01*
X125663Y325000D01*
X125811Y323878D01*
X126244Y322831D01*
X126933Y321933D01*
X127831Y321244D01*
X128877Y320811D01*
X130000Y320663D01*
X131123Y320811D01*
X132169Y321244D01*
X133067Y321933D01*
X133756Y322831D01*
X134189Y323878D01*
X134337Y325000D01*
X134189Y326122D01*
X133756Y327169D01*
X133067Y328067D01*
X132169Y328756D01*
X131835Y328894D01*
Y346240D01*
X138760Y353165D01*
X282882D01*
X283052Y352665D01*
X282646Y352354D01*
X282118Y351664D01*
X281785Y350862D01*
X281672Y350000D01*
X281785Y349138D01*
X282118Y348336D01*
X282646Y347646D01*
X283052Y347335D01*
X282882Y346835D01*
X146000D01*
X145298Y346696D01*
X144702Y346298D01*
X138798Y340394D01*
X138401Y339798D01*
X138261Y339096D01*
Y328934D01*
X137831Y328756D01*
X136933Y328067D01*
X136244Y327169D01*
X135811Y326122D01*
X135663Y325000D01*
X135811Y323878D01*
X136244Y322831D01*
X136933Y321933D01*
X137831Y321244D01*
X138877Y320811D01*
X140000Y320663D01*
X141122Y320811D01*
X142169Y321244D01*
X143067Y321933D01*
X143756Y322831D01*
X144189Y323878D01*
X144337Y325000D01*
X144189Y326122D01*
X143756Y327169D01*
X143067Y328067D01*
X142169Y328756D01*
X141931Y328854D01*
Y338336D01*
X146760Y343165D01*
X153916D01*
X154107Y342703D01*
X148799Y337394D01*
X148401Y336799D01*
X148261Y336096D01*
Y328934D01*
X147831Y328756D01*
X146933Y328067D01*
X146244Y327169D01*
X145811Y326122D01*
X145663Y325000D01*
X145811Y323878D01*
X146244Y322831D01*
X146933Y321933D01*
X147831Y321244D01*
X148878Y320811D01*
X150000Y320663D01*
X151122Y320811D01*
X152169Y321244D01*
X153067Y321933D01*
X153756Y322831D01*
X154189Y323878D01*
X154337Y325000D01*
X154189Y326122D01*
X153756Y327169D01*
X153067Y328067D01*
X152169Y328756D01*
X151931Y328854D01*
Y335336D01*
X156760Y340165D01*
X167882D01*
X168052Y339665D01*
X167646Y339354D01*
X167118Y338664D01*
X166785Y337861D01*
X166672Y337000D01*
X166785Y336139D01*
X167118Y335336D01*
X167646Y334646D01*
X168317Y334131D01*
X168322Y334082D01*
X168183Y333631D01*
X163796D01*
X163094Y333492D01*
X162498Y333094D01*
X159659Y330254D01*
X159261Y329659D01*
X159176Y329229D01*
X158878Y329189D01*
X157831Y328756D01*
X156933Y328067D01*
X156244Y327169D01*
X155811Y326122D01*
X155663Y325000D01*
X155811Y323878D01*
X156244Y322831D01*
X156933Y321933D01*
X157831Y321244D01*
X158878Y320811D01*
X160000Y320663D01*
X161123Y320811D01*
X162169Y321244D01*
X163067Y321933D01*
X163756Y322831D01*
X164189Y323878D01*
X164337Y325000D01*
X164189Y326122D01*
X163756Y327169D01*
X163067Y328067D01*
X163042Y328447D01*
X164556Y329961D01*
X295272D01*
X295369Y329864D01*
Y289751D01*
X294850Y289354D01*
X294321Y288664D01*
X293989Y287861D01*
X293875Y287000D01*
X293989Y286139D01*
X294321Y285336D01*
X294850Y284646D01*
X295540Y284118D01*
X296342Y283785D01*
X297204Y283671D01*
X298065Y283785D01*
X298868Y284118D01*
X299557Y284646D01*
X300086Y285336D01*
X300419Y286139D01*
X300532Y287000D01*
X300419Y287861D01*
X300086Y288664D01*
X299557Y289354D01*
X299039Y289751D01*
Y330625D01*
X298899Y331327D01*
X298501Y331922D01*
X297330Y333094D01*
X296735Y333492D01*
X296032Y333631D01*
X172380D01*
X172133Y334131D01*
X172167Y334176D01*
X300830D01*
X305176Y329830D01*
Y293740D01*
X305118Y293664D01*
X304785Y292862D01*
X304672Y292000D01*
X304785Y291139D01*
X305118Y290336D01*
X305646Y289646D01*
X306336Y289118D01*
X307138Y288785D01*
X308000Y288671D01*
X308861Y288785D01*
X309664Y289118D01*
X310354Y289646D01*
X310882Y290336D01*
X311215Y291139D01*
X311329Y292000D01*
X311215Y292862D01*
X310882Y293664D01*
X310824Y293740D01*
Y331000D01*
X310728Y331731D01*
X310446Y332412D01*
X309997Y332997D01*
X303997Y338997D01*
X303412Y339446D01*
X302884Y339665D01*
X302983Y340165D01*
X305240D01*
X312165Y333240D01*
Y277081D01*
X312082Y277021D01*
X311402Y277142D01*
X311298Y277298D01*
X307298Y281298D01*
X306702Y281696D01*
X306000Y281835D01*
X125760D01*
X123243Y284352D01*
X123328Y285000D01*
X123215Y285861D01*
X122882Y286664D01*
X122354Y287354D01*
X121664Y287882D01*
X120861Y288215D01*
X120000Y288329D01*
X119139Y288215D01*
X118336Y287882D01*
X117646Y287354D01*
X117118Y286664D01*
X116785Y285861D01*
X116672Y285000D01*
X116785Y284138D01*
X117118Y283336D01*
X117646Y282646D01*
X118336Y282118D01*
X119139Y281785D01*
X120000Y281672D01*
X120648Y281757D01*
X123702Y278702D01*
X124298Y278304D01*
X125000Y278165D01*
X305240D01*
X308165Y275240D01*
Y274081D01*
X308082Y274021D01*
X307402Y274142D01*
X307298Y274298D01*
X305298Y276298D01*
X304702Y276696D01*
X304000Y276835D01*
X107760D01*
X101835Y282760D01*
Y311106D01*
X102169Y311244D01*
X103067Y311933D01*
X103756Y312831D01*
X104189Y313878D01*
X104337Y315000D01*
X104189Y316123D01*
X103756Y317169D01*
X103067Y318067D01*
X102169Y318756D01*
X101122Y319189D01*
X100000Y319337D01*
X98878Y319189D01*
X97831Y318756D01*
X96933Y318067D01*
X96244Y317169D01*
X95811Y316123D01*
X95663Y315000D01*
X95811Y313878D01*
X96244Y312831D01*
X96933Y311933D01*
X97831Y311244D01*
X98165Y311106D01*
Y282000D01*
X98304Y281298D01*
X98702Y280702D01*
X105702Y273702D01*
X106298Y273304D01*
X107000Y273165D01*
X127882D01*
X128052Y272665D01*
X127646Y272354D01*
X127118Y271664D01*
X126785Y270862D01*
X126672Y270000D01*
X126785Y269139D01*
X127118Y268336D01*
X127646Y267646D01*
X128336Y267118D01*
X129139Y266785D01*
X130000Y266671D01*
X130861Y266785D01*
X131664Y267118D01*
X132354Y267646D01*
X132751Y268165D01*
X265240D01*
X270165Y263240D01*
Y237081D01*
X270081Y237021D01*
X269402Y237142D01*
X269298Y237298D01*
X266298Y240298D01*
X265702Y240696D01*
X265000Y240835D01*
X96760D01*
X91835Y245760D01*
Y311106D01*
X92169Y311244D01*
X93067Y311933D01*
X93756Y312831D01*
X94189Y313878D01*
X94337Y315000D01*
X94189Y316123D01*
X93756Y317169D01*
X93067Y318067D01*
X92169Y318756D01*
X91123Y319189D01*
X90000Y319337D01*
X88877Y319189D01*
X87831Y318756D01*
X86933Y318067D01*
X86244Y317169D01*
X85811Y316123D01*
X85663Y315000D01*
X85811Y313878D01*
X86244Y312831D01*
X86933Y311933D01*
X87831Y311244D01*
X88165Y311106D01*
Y245000D01*
X88304Y244298D01*
X88702Y243702D01*
X94702Y237702D01*
X95298Y237304D01*
X96000Y237165D01*
X264240D01*
X266165Y235240D01*
Y230081D01*
X266082Y230021D01*
X265402Y230142D01*
X265298Y230298D01*
X261298Y234298D01*
X260702Y234696D01*
X260000Y234835D01*
X90760D01*
X81835Y243760D01*
Y311106D01*
X82169Y311244D01*
X83067Y311933D01*
X83756Y312831D01*
X84189Y313878D01*
X84337Y315000D01*
X84189Y316123D01*
X83756Y317169D01*
X83067Y318067D01*
X82169Y318756D01*
X81122Y319189D01*
X80000Y319337D01*
X78878Y319189D01*
X77831Y318756D01*
X76933Y318067D01*
X76244Y317169D01*
X75811Y316123D01*
X75663Y315000D01*
X75811Y313878D01*
X76244Y312831D01*
X76933Y311933D01*
X77831Y311244D01*
X78165Y311106D01*
Y243000D01*
X78304Y242298D01*
X78702Y241702D01*
X88702Y231702D01*
X89298Y231304D01*
X90000Y231165D01*
X259240D01*
X262165Y228240D01*
Y23422D01*
X262250Y22995D01*
X262111Y22888D01*
X261462Y22042D01*
X261054Y21057D01*
X260915Y20000D01*
X261054Y18943D01*
X261462Y17957D01*
X262111Y17111D01*
X262958Y16462D01*
X263943Y16054D01*
X265000Y15915D01*
X266057Y16054D01*
X267042Y16462D01*
X267888Y17111D01*
X268538Y17957D01*
X268946Y18943D01*
X269085Y20000D01*
X268946Y21057D01*
X268538Y22042D01*
X267888Y22888D01*
X267042Y23538D01*
X266057Y23946D01*
X265837Y23975D01*
X265835Y23981D01*
Y28919D01*
X265918Y28979D01*
X266598Y28858D01*
X266702Y28702D01*
X271984Y23421D01*
X272112Y22888D01*
X271462Y22042D01*
X271054Y21057D01*
X270915Y20000D01*
X271054Y18943D01*
X271462Y17957D01*
X272112Y17111D01*
X272957Y16462D01*
X273943Y16054D01*
X275000Y15915D01*
X276057Y16054D01*
X277043Y16462D01*
X277888Y17111D01*
X278538Y17957D01*
X278946Y18943D01*
X279085Y20000D01*
X278946Y21057D01*
X278538Y22042D01*
X277888Y22888D01*
X277043Y23538D01*
X276057Y23946D01*
X275955Y23959D01*
X275834Y24563D01*
X275437Y25159D01*
X269835Y30760D01*
Y109598D01*
X269918Y109658D01*
X270598Y109537D01*
X270702Y109381D01*
X273702Y106381D01*
X274298Y105983D01*
X275000Y105844D01*
X288198D01*
X288348Y105743D01*
X289121Y105590D01*
X295814D01*
X296405Y105707D01*
X296651Y105246D01*
X295998Y104593D01*
X295814Y104630D01*
X289121D01*
X288348Y104476D01*
X287693Y104038D01*
X287255Y103383D01*
X287102Y102610D01*
X287255Y101837D01*
X287693Y101181D01*
X288348Y100743D01*
X289121Y100590D01*
X295814D01*
X296587Y100743D01*
X296762Y100860D01*
X297381Y100983D01*
X297977Y101381D01*
X299665Y103069D01*
X300165Y102862D01*
Y70472D01*
X299028Y69335D01*
X296797D01*
X296587Y69476D01*
X295814Y69630D01*
X289121D01*
X288375Y69481D01*
X288348Y69476D01*
X288260Y69424D01*
X288089Y69444D01*
X287907Y69715D01*
X288004Y69878D01*
X288354Y70146D01*
X288556Y70410D01*
X292087D01*
X292886Y70569D01*
X292917Y70590D01*
X295814D01*
X296587Y70743D01*
X297243Y71181D01*
X297680Y71837D01*
X297834Y72610D01*
X297680Y73383D01*
X297243Y74038D01*
X296587Y74476D01*
X295814Y74629D01*
X289121D01*
X288924Y74590D01*
X288556D01*
X288354Y74854D01*
X287967Y75150D01*
X287905Y75198D01*
X288196Y75604D01*
X288270Y75555D01*
X289121Y75386D01*
X291968D01*
Y77110D01*
X286997D01*
X287067Y76759D01*
X287549Y76037D01*
X287807Y75865D01*
X287570Y75422D01*
X287490Y75455D01*
X286861Y75715D01*
X286000Y75828D01*
X285000D01*
X284138Y75715D01*
X283668Y75520D01*
X283336Y75383D01*
X282646Y74854D01*
X279646Y71854D01*
X279117Y71164D01*
X278980Y70832D01*
X278785Y70362D01*
X278672Y69500D01*
Y37000D01*
X278785Y36138D01*
X278980Y35668D01*
X279117Y35336D01*
X279646Y34646D01*
X291385Y22908D01*
Y21855D01*
X291054Y21057D01*
X290915Y20000D01*
X291054Y18943D01*
X291462Y17957D01*
X292111Y17111D01*
X292957Y16462D01*
X293943Y16054D01*
X295000Y15915D01*
X296057Y16054D01*
X297042Y16462D01*
X297888Y17111D01*
X298538Y17957D01*
X298946Y18943D01*
X299085Y20000D01*
X298946Y21057D01*
X298538Y22042D01*
X298042Y22689D01*
Y24287D01*
X297928Y25148D01*
X297596Y25951D01*
X297067Y26641D01*
X285329Y38379D01*
Y68121D01*
X286436Y69229D01*
X286861Y69285D01*
X287255Y69448D01*
X287702Y69092D01*
X287693Y69038D01*
X287693Y69038D01*
X287617Y68924D01*
X287255Y68383D01*
X287102Y67610D01*
X287255Y66837D01*
X287693Y66181D01*
X288348Y65743D01*
X289121Y65590D01*
X295814D01*
X296192Y65665D01*
X299788D01*
X300490Y65804D01*
X301086Y66202D01*
X303298Y68414D01*
X303402Y68570D01*
X304082Y68691D01*
X304165Y68631D01*
Y34000D01*
X304304Y33298D01*
X304702Y32702D01*
X309702Y27702D01*
X310298Y27304D01*
X311000Y27165D01*
X338546D01*
X342182Y23529D01*
X342148Y22916D01*
X342111Y22888D01*
X341462Y22042D01*
X341054Y21057D01*
X340915Y20000D01*
X341054Y18943D01*
X341462Y17957D01*
X342111Y17111D01*
X342957Y16462D01*
X343943Y16054D01*
X345000Y15915D01*
X346057Y16054D01*
X347042Y16462D01*
X347888Y17111D01*
X348538Y17957D01*
X348946Y18943D01*
X349085Y20000D01*
X348946Y21057D01*
X348538Y22042D01*
X347888Y22888D01*
X347042Y23538D01*
X346069Y23941D01*
Y24073D01*
X345929Y24775D01*
X345532Y25370D01*
X340604Y30298D01*
X340009Y30696D01*
X339306Y30835D01*
X311760D01*
X307835Y34760D01*
Y67631D01*
X307919Y67691D01*
X308598Y67570D01*
X308702Y67414D01*
X314914Y61202D01*
X315510Y60804D01*
X316212Y60665D01*
X324571D01*
X324948Y60590D01*
X331641D01*
X332414Y60743D01*
X333069Y61181D01*
X333507Y61837D01*
X333661Y62610D01*
X333507Y63383D01*
X333069Y64038D01*
X332414Y64476D01*
X331641Y64630D01*
X324948D01*
X324175Y64476D01*
X323965Y64335D01*
X316972D01*
X316123Y65184D01*
X316124Y65189D01*
X316350Y65665D01*
X324571D01*
X324948Y65590D01*
X331641D01*
X332414Y65743D01*
X333069Y66181D01*
X333507Y66837D01*
X333661Y67610D01*
X333517Y68332D01*
X333525Y68414D01*
X333785Y68867D01*
X333912Y68881D01*
X334671Y68121D01*
Y54379D01*
X322646Y42354D01*
X322117Y41664D01*
X321980Y41332D01*
X321785Y40861D01*
X321672Y40000D01*
X321785Y39138D01*
X321980Y38668D01*
X322117Y38336D01*
X322646Y37646D01*
X323336Y37117D01*
X323668Y36980D01*
X324138Y36785D01*
X325000Y36672D01*
X325862Y36785D01*
X326332Y36980D01*
X326664Y37117D01*
X327354Y37646D01*
X340354Y50646D01*
X340882Y51336D01*
X341215Y52139D01*
X341329Y53000D01*
Y69500D01*
X341215Y70362D01*
X341020Y70832D01*
X340882Y71164D01*
X340354Y71854D01*
X337354Y74854D01*
X336664Y75383D01*
X336332Y75520D01*
X335861Y75715D01*
X335000Y75828D01*
X334104D01*
X333953Y76112D01*
X333917Y76322D01*
X336298Y78702D01*
X336696Y79298D01*
X336835Y80000D01*
Y80665D01*
X339081D01*
X339504Y80113D01*
X340235Y79552D01*
X341086Y79200D01*
X341500Y79145D01*
Y82610D01*
Y86074D01*
X341086Y86019D01*
X340235Y85667D01*
X339504Y85106D01*
X338943Y84375D01*
X338926Y84335D01*
X336835D01*
Y87500D01*
Y90000D01*
X336696Y90702D01*
X336298Y91298D01*
X333917Y93678D01*
X333953Y93888D01*
X334104Y94172D01*
X369121D01*
X371672Y91621D01*
Y22315D01*
X371462Y22042D01*
X371054Y21057D01*
X370915Y20000D01*
X371054Y18943D01*
X371462Y17957D01*
X372112Y17111D01*
X372957Y16462D01*
X373943Y16054D01*
X375000Y15915D01*
X376057Y16054D01*
X377043Y16462D01*
X377888Y17111D01*
X378538Y17957D01*
X378946Y18943D01*
X379085Y20000D01*
X378946Y21057D01*
X378538Y22042D01*
X378328Y22315D01*
Y93000D01*
X378215Y93862D01*
X378020Y94332D01*
X377883Y94664D01*
X377354Y95354D01*
X372854Y99854D01*
X372164Y100383D01*
X371832Y100520D01*
X371361Y100715D01*
X370500Y100829D01*
X334000D01*
X333304Y100737D01*
X333128Y101070D01*
X333091Y101213D01*
X333507Y101837D01*
X333661Y102610D01*
X333507Y103383D01*
X333069Y104038D01*
X332414Y104476D01*
X331641Y104630D01*
X324966D01*
X324408Y105187D01*
X324655Y105648D01*
X324948Y105590D01*
X331641D01*
X332414Y105743D01*
X333069Y106181D01*
X333397Y106672D01*
X351000D01*
X351862Y106785D01*
X352332Y106980D01*
X352664Y107117D01*
X353354Y107646D01*
X363070Y117363D01*
X363570Y117156D01*
Y117050D01*
X371047D01*
Y116850D01*
X374500D01*
Y121000D01*
Y125150D01*
X371047D01*
Y124950D01*
X363570D01*
Y124328D01*
X362000D01*
X361139Y124215D01*
X360336Y123882D01*
X359646Y123354D01*
X349621Y113329D01*
X327728D01*
X326867Y113215D01*
X326064Y112882D01*
X325375Y112354D01*
X324846Y111664D01*
X324513Y110862D01*
X324400Y110000D01*
X324461Y109533D01*
X324175Y109476D01*
X323520Y109038D01*
X323082Y108383D01*
X322928Y107610D01*
X322987Y107316D01*
X322526Y107070D01*
X318835Y110760D01*
Y256882D01*
X319335Y257052D01*
X319646Y256646D01*
X320336Y256118D01*
X321139Y255785D01*
X322000Y255672D01*
X322862Y255785D01*
X323664Y256118D01*
X324354Y256646D01*
X324665Y257052D01*
X325165Y256882D01*
Y184572D01*
X324909Y184317D01*
X324138Y184215D01*
X323336Y183882D01*
X322646Y183354D01*
X322117Y182664D01*
X321785Y181861D01*
X321672Y181000D01*
X321785Y180139D01*
X322117Y179336D01*
X322646Y178646D01*
X323336Y178118D01*
X324138Y177785D01*
X325000Y177672D01*
X325862Y177785D01*
X326664Y178118D01*
X327354Y178646D01*
X327883Y179336D01*
X328215Y180139D01*
X328328Y181000D01*
X328215Y181861D01*
X328048Y182264D01*
X328298Y182514D01*
X328676Y183080D01*
X328713Y183086D01*
X329176Y182834D01*
Y173740D01*
X329117Y173664D01*
X328785Y172862D01*
X328672Y172000D01*
X328785Y171139D01*
X329117Y170336D01*
X329646Y169646D01*
X330336Y169117D01*
X331138Y168785D01*
X332000Y168672D01*
X332861Y168785D01*
X333664Y169117D01*
X334354Y169646D01*
X334882Y170336D01*
X335215Y171139D01*
X335329Y172000D01*
X335215Y172862D01*
X334882Y173664D01*
X334824Y173740D01*
Y290260D01*
X334882Y290336D01*
X335215Y291139D01*
X335329Y292000D01*
X335215Y292862D01*
X334882Y293664D01*
X334354Y294354D01*
X333664Y294882D01*
X332861Y295215D01*
X332000Y295328D01*
X331138Y295215D01*
X330336Y294882D01*
X329646Y294354D01*
X329335Y293948D01*
X328835Y294118D01*
Y302882D01*
X329335Y303052D01*
X329646Y302646D01*
X330336Y302117D01*
X331138Y301785D01*
X332000Y301672D01*
X332861Y301785D01*
X333664Y302117D01*
X334354Y302646D01*
X334882Y303336D01*
X335215Y304138D01*
X335329Y305000D01*
X335215Y305861D01*
X334882Y306664D01*
X334354Y307354D01*
X333835Y307751D01*
Y368877D01*
X334043Y368962D01*
X334889Y369612D01*
X335538Y370458D01*
X335946Y371443D01*
X336085Y372500D01*
X335946Y373557D01*
X335538Y374542D01*
X334889Y375389D01*
X334043Y376038D01*
X333057Y376446D01*
X332000Y376585D01*
X330943Y376446D01*
X329958Y376038D01*
X329112Y375389D01*
X328462Y374542D01*
X328054Y373557D01*
X327915Y372500D01*
X328054Y371443D01*
X328462Y370458D01*
X329112Y369612D01*
X329958Y368962D01*
X330165Y368877D01*
Y307751D01*
X329646Y307354D01*
X329335Y306948D01*
X328835Y307118D01*
Y343000D01*
X328696Y343702D01*
X328298Y344298D01*
X316298Y356298D01*
X315702Y356696D01*
X315000Y356835D01*
X304751D01*
X304354Y357354D01*
X303664Y357882D01*
X302861Y358215D01*
X302000Y358329D01*
X301138Y358215D01*
X300932Y358130D01*
X300649Y358554D01*
X310736Y368640D01*
X310943Y368554D01*
X312000Y368415D01*
X313057Y368554D01*
X314042Y368962D01*
X314889Y369612D01*
X315538Y370458D01*
X315946Y371443D01*
X316085Y372500D01*
X315946Y373557D01*
X315538Y374542D01*
X314889Y375389D01*
X314042Y376038D01*
X313057Y376446D01*
X312000Y376585D01*
X310943Y376446D01*
X309958Y376038D01*
X309111Y375389D01*
X308462Y374542D01*
X308054Y373557D01*
X307915Y372500D01*
X308054Y371443D01*
X308140Y371235D01*
X293740Y356835D01*
X291120D01*
X290994Y357038D01*
X290931Y357335D01*
X296398Y362803D01*
X296796Y363398D01*
X296936Y364100D01*
Y375169D01*
X298932Y377165D01*
X317240D01*
X319070Y375335D01*
X318462Y374542D01*
X318054Y373557D01*
X317915Y372500D01*
X318054Y371443D01*
X318462Y370458D01*
X319111Y369612D01*
X319957Y368962D01*
X320943Y368554D01*
X322000Y368415D01*
X323057Y368554D01*
X324043Y368962D01*
X324888Y369612D01*
X325538Y370458D01*
X325946Y371443D01*
X326085Y372500D01*
X325946Y373557D01*
X325538Y374542D01*
X324888Y375389D01*
X324043Y376038D01*
X323057Y376446D01*
X322853Y376473D01*
X322834Y376563D01*
X322437Y377159D01*
X319298Y380298D01*
X318702Y380696D01*
X318000Y380835D01*
X298172D01*
X297469Y380696D01*
X296874Y380298D01*
X294409Y377833D01*
X293844Y377975D01*
X293362Y379561D01*
X292406Y381350D01*
X291119Y382919D01*
X289550Y384206D01*
X287761Y385162D01*
X285820Y385751D01*
X283800Y385950D01*
D02*
G37*
G36*
X302000Y376585D02*
X300943Y376446D01*
X299957Y376038D01*
X299112Y375389D01*
X298462Y374542D01*
X298054Y373557D01*
X297915Y372500D01*
X298054Y371443D01*
X298462Y370458D01*
X299112Y369612D01*
X299957Y368962D01*
X300943Y368554D01*
X302000Y368415D01*
X303057Y368554D01*
X304043Y368962D01*
X304889Y369612D01*
X305538Y370458D01*
X305946Y371443D01*
X306085Y372500D01*
X305946Y373557D01*
X305538Y374542D01*
X304889Y375389D01*
X304043Y376038D01*
X303057Y376446D01*
X302000Y376585D01*
D02*
G37*
G36*
X366221Y372000D02*
X362500D01*
Y368279D01*
X363109Y368359D01*
X364143Y368788D01*
X365031Y369469D01*
X365712Y370357D01*
X366141Y371391D01*
X366221Y372000D01*
D02*
G37*
G36*
X361500D02*
X357779D01*
X357859Y371391D01*
X358288Y370357D01*
X358969Y369469D01*
X359857Y368788D01*
X360891Y368359D01*
X361500Y368279D01*
Y372000D01*
D02*
G37*
G36*
X388918Y385950D02*
X386899Y385751D01*
X384958Y385162D01*
X383168Y384206D01*
X381600Y382919D01*
X380313Y381350D01*
X379356Y379561D01*
X378767Y377620D01*
X378569Y375600D01*
X378767Y373581D01*
X379356Y371640D01*
X380313Y369850D01*
X381600Y368282D01*
X383168Y366995D01*
X384958Y366038D01*
X386899Y365449D01*
X388918Y365250D01*
X390938Y365449D01*
X392879Y366038D01*
X394669Y366995D01*
X396237Y368282D01*
X397524Y369850D01*
X398480Y371640D01*
X399069Y373581D01*
X399268Y375600D01*
X399069Y377620D01*
X398480Y379561D01*
X397524Y381350D01*
X396237Y382919D01*
X394669Y384206D01*
X392879Y385162D01*
X390938Y385751D01*
X388918Y385950D01*
D02*
G37*
G36*
X575000Y391335D02*
X572868Y391195D01*
X570772Y390778D01*
X568749Y390091D01*
X566832Y389146D01*
X565056Y387959D01*
X563449Y386551D01*
X562041Y384944D01*
X560853Y383168D01*
X559908Y381251D01*
X559222Y379228D01*
X558805Y377132D01*
X558665Y375000D01*
X558805Y372868D01*
X559222Y370772D01*
X559908Y368749D01*
X560853Y366832D01*
X562041Y365056D01*
X563449Y363449D01*
X565056Y362041D01*
X566832Y360854D01*
X568749Y359909D01*
X570772Y359222D01*
X572868Y358805D01*
X575000Y358665D01*
X577132Y358805D01*
X579228Y359222D01*
X581251Y359909D01*
X583168Y360854D01*
X584944Y362041D01*
X586551Y363449D01*
X587959Y365056D01*
X589147Y366832D01*
X590092Y368749D01*
X590778Y370772D01*
X591195Y372868D01*
X591335Y375000D01*
X591195Y377132D01*
X590778Y379228D01*
X590092Y381251D01*
X589147Y383168D01*
X587959Y384944D01*
X586551Y386551D01*
X584944Y387959D01*
X583168Y389146D01*
X581251Y390091D01*
X579228Y390778D01*
X577132Y391195D01*
X575000Y391335D01*
D02*
G37*
G36*
X25000D02*
X22868Y391195D01*
X20772Y390778D01*
X18749Y390091D01*
X16833Y389146D01*
X15056Y387959D01*
X13449Y386551D01*
X12041Y384944D01*
X10853Y383168D01*
X9909Y381251D01*
X9222Y379228D01*
X8805Y377132D01*
X8665Y375000D01*
X8805Y372868D01*
X9222Y370772D01*
X9909Y368749D01*
X10853Y366832D01*
X12041Y365056D01*
X13449Y363449D01*
X15056Y362041D01*
X16833Y360854D01*
X18749Y359909D01*
X20772Y359222D01*
X22868Y358805D01*
X25000Y358665D01*
X27132Y358805D01*
X29228Y359222D01*
X31251Y359909D01*
X33167Y360854D01*
X34944Y362041D01*
X36551Y363449D01*
X37959Y365056D01*
X39147Y366832D01*
X40091Y368749D01*
X40778Y370772D01*
X41195Y372868D01*
X41335Y375000D01*
X41195Y377132D01*
X40778Y379228D01*
X40091Y381251D01*
X39147Y383168D01*
X37959Y384944D01*
X36551Y386551D01*
X34944Y387959D01*
X33167Y389146D01*
X31251Y390091D01*
X29228Y390778D01*
X27132Y391195D01*
X25000Y391335D01*
D02*
G37*
G36*
X471996Y331224D02*
X469937D01*
X469086Y331055D01*
X468364Y330573D01*
X467882Y329851D01*
X467813Y329500D01*
X471996D01*
Y331224D01*
D02*
G37*
G36*
Y328500D02*
X467813D01*
X467882Y328149D01*
X468364Y327428D01*
X469086Y326945D01*
X469937Y326776D01*
X471996D01*
Y328500D01*
D02*
G37*
G36*
X110500Y329473D02*
Y325500D01*
X114473D01*
X114384Y326175D01*
X113931Y327269D01*
X113209Y328209D01*
X112269Y328931D01*
X111175Y329384D01*
X110500Y329473D01*
D02*
G37*
G36*
X109500D02*
X108825Y329384D01*
X107731Y328931D01*
X106791Y328209D01*
X106069Y327269D01*
X105616Y326175D01*
X105527Y325500D01*
X109500D01*
Y329473D01*
D02*
G37*
G36*
X584998Y329790D02*
X579642D01*
Y325228D01*
X588042D01*
Y326746D01*
X587938Y327534D01*
X587634Y328268D01*
X587150Y328898D01*
X586520Y329382D01*
X585786Y329686D01*
X584998Y329790D01*
D02*
G37*
G36*
X561909Y329790D02*
X557537D01*
X556750Y329686D01*
X556015Y329382D01*
X555385Y328898D01*
X554901Y328268D01*
X554597Y327534D01*
X554494Y326746D01*
Y325228D01*
X561909D01*
Y329790D01*
D02*
G37*
G36*
X493559Y326224D02*
X491500D01*
Y324500D01*
X495683D01*
X495614Y324851D01*
X495131Y325572D01*
X494410Y326055D01*
X493559Y326224D01*
D02*
G37*
G36*
X490500D02*
X488441D01*
X487590Y326055D01*
X486868Y325572D01*
X486386Y324851D01*
X486317Y324500D01*
X490500D01*
Y326224D01*
D02*
G37*
G36*
X495683Y323500D02*
X491500D01*
Y321776D01*
X493559D01*
X494410Y321945D01*
X495131Y322428D01*
X495614Y323149D01*
X495683Y323500D01*
D02*
G37*
G36*
X490500D02*
X486317D01*
X486386Y323149D01*
X486868Y322428D01*
X487590Y321945D01*
X488441Y321776D01*
X490500D01*
Y323500D01*
D02*
G37*
G36*
X200000Y329337D02*
X198878Y329189D01*
X197831Y328756D01*
X196933Y328067D01*
X196244Y327169D01*
X195811Y326122D01*
X195663Y325000D01*
X195811Y323878D01*
X196244Y322831D01*
X196933Y321933D01*
X197831Y321244D01*
X198878Y320811D01*
X200000Y320663D01*
X201122Y320811D01*
X202169Y321244D01*
X203067Y321933D01*
X203756Y322831D01*
X204189Y323878D01*
X204337Y325000D01*
X204189Y326122D01*
X203756Y327169D01*
X203067Y328067D01*
X202169Y328756D01*
X201122Y329189D01*
X200000Y329337D01*
D02*
G37*
G36*
X190000D02*
X188877Y329189D01*
X187831Y328756D01*
X186933Y328067D01*
X186244Y327169D01*
X185811Y326122D01*
X185663Y325000D01*
X185811Y323878D01*
X186244Y322831D01*
X186933Y321933D01*
X187831Y321244D01*
X188877Y320811D01*
X190000Y320663D01*
X191122Y320811D01*
X192169Y321244D01*
X193067Y321933D01*
X193756Y322831D01*
X194189Y323878D01*
X194337Y325000D01*
X194189Y326122D01*
X193756Y327169D01*
X193067Y328067D01*
X192169Y328756D01*
X191122Y329189D01*
X190000Y329337D01*
D02*
G37*
G36*
X180000D02*
X178877Y329189D01*
X177831Y328756D01*
X176933Y328067D01*
X176244Y327169D01*
X175811Y326122D01*
X175663Y325000D01*
X175811Y323878D01*
X176244Y322831D01*
X176933Y321933D01*
X177831Y321244D01*
X178877Y320811D01*
X180000Y320663D01*
X181123Y320811D01*
X182169Y321244D01*
X183067Y321933D01*
X183756Y322831D01*
X184189Y323878D01*
X184337Y325000D01*
X184189Y326122D01*
X183756Y327169D01*
X183067Y328067D01*
X182169Y328756D01*
X181123Y329189D01*
X180000Y329337D01*
D02*
G37*
G36*
X170000D02*
X168877Y329189D01*
X167831Y328756D01*
X166933Y328067D01*
X166244Y327169D01*
X165811Y326122D01*
X165663Y325000D01*
X165811Y323878D01*
X166244Y322831D01*
X166933Y321933D01*
X167831Y321244D01*
X168877Y320811D01*
X170000Y320663D01*
X171123Y320811D01*
X172169Y321244D01*
X173067Y321933D01*
X173756Y322831D01*
X174189Y323878D01*
X174337Y325000D01*
X174189Y326122D01*
X173756Y327169D01*
X173067Y328067D01*
X172169Y328756D01*
X171123Y329189D01*
X170000Y329337D01*
D02*
G37*
G36*
X100000D02*
X98878Y329189D01*
X97831Y328756D01*
X96933Y328067D01*
X96244Y327169D01*
X95811Y326122D01*
X95663Y325000D01*
X95811Y323878D01*
X96244Y322831D01*
X96933Y321933D01*
X97831Y321244D01*
X98878Y320811D01*
X100000Y320663D01*
X101122Y320811D01*
X102169Y321244D01*
X103067Y321933D01*
X103756Y322831D01*
X104189Y323878D01*
X104337Y325000D01*
X104189Y326122D01*
X103756Y327169D01*
X103067Y328067D01*
X102169Y328756D01*
X101122Y329189D01*
X100000Y329337D01*
D02*
G37*
G36*
X80000D02*
X78878Y329189D01*
X77831Y328756D01*
X76933Y328067D01*
X76244Y327169D01*
X75811Y326122D01*
X75663Y325000D01*
X75811Y323878D01*
X76244Y322831D01*
X76933Y321933D01*
X77831Y321244D01*
X78878Y320811D01*
X80000Y320663D01*
X81122Y320811D01*
X82169Y321244D01*
X83067Y321933D01*
X83756Y322831D01*
X84189Y323878D01*
X84337Y325000D01*
X84189Y326122D01*
X83756Y327169D01*
X83067Y328067D01*
X82169Y328756D01*
X81122Y329189D01*
X80000Y329337D01*
D02*
G37*
G36*
X70000D02*
X68878Y329189D01*
X67831Y328756D01*
X66933Y328067D01*
X66244Y327169D01*
X65811Y326122D01*
X65663Y325000D01*
X65811Y323878D01*
X66244Y322831D01*
X66933Y321933D01*
X67831Y321244D01*
X68878Y320811D01*
X70000Y320663D01*
X71122Y320811D01*
X72169Y321244D01*
X73067Y321933D01*
X73756Y322831D01*
X74189Y323878D01*
X74337Y325000D01*
X74189Y326122D01*
X73756Y327169D01*
X73067Y328067D01*
X72169Y328756D01*
X71122Y329189D01*
X70000Y329337D01*
D02*
G37*
G36*
X60000D02*
X58877Y329189D01*
X57831Y328756D01*
X56933Y328067D01*
X56244Y327169D01*
X55811Y326122D01*
X55663Y325000D01*
X55811Y323878D01*
X56244Y322831D01*
X56933Y321933D01*
X57831Y321244D01*
X58877Y320811D01*
X60000Y320663D01*
X61123Y320811D01*
X62169Y321244D01*
X63067Y321933D01*
X63756Y322831D01*
X64189Y323878D01*
X64337Y325000D01*
X64189Y326122D01*
X63756Y327169D01*
X63067Y328067D01*
X62169Y328756D01*
X61123Y329189D01*
X60000Y329337D01*
D02*
G37*
G36*
X50000D02*
X48878Y329189D01*
X47831Y328756D01*
X46933Y328067D01*
X46244Y327169D01*
X45811Y326122D01*
X45663Y325000D01*
X45811Y323878D01*
X46244Y322831D01*
X46933Y321933D01*
X47831Y321244D01*
X48878Y320811D01*
X50000Y320663D01*
X51122Y320811D01*
X52169Y321244D01*
X53067Y321933D01*
X53756Y322831D01*
X54189Y323878D01*
X54337Y325000D01*
X54189Y326122D01*
X53756Y327169D01*
X53067Y328067D01*
X52169Y328756D01*
X51122Y329189D01*
X50000Y329337D01*
D02*
G37*
G36*
X40000D02*
X38877Y329189D01*
X37832Y328756D01*
X36933Y328067D01*
X36244Y327169D01*
X35811Y326122D01*
X35663Y325000D01*
X35811Y323878D01*
X36244Y322831D01*
X36933Y321933D01*
X37832Y321244D01*
X38877Y320811D01*
X40000Y320663D01*
X41122Y320811D01*
X42169Y321244D01*
X43067Y321933D01*
X43756Y322831D01*
X44189Y323878D01*
X44337Y325000D01*
X44189Y326122D01*
X43756Y327169D01*
X43067Y328067D01*
X42169Y328756D01*
X41122Y329189D01*
X40000Y329337D01*
D02*
G37*
G36*
X27000Y333835D02*
X14000D01*
X13298Y333696D01*
X12702Y333298D01*
X7702Y328298D01*
X7304Y327702D01*
X7165Y327000D01*
Y208000D01*
X7304Y207298D01*
X7702Y206702D01*
X19702Y194702D01*
X20298Y194304D01*
X21000Y194165D01*
X212249D01*
X212646Y193646D01*
X213336Y193117D01*
X214139Y192785D01*
X215000Y192672D01*
X215862Y192785D01*
X216664Y193117D01*
X217354Y193646D01*
X217882Y194336D01*
X218215Y195139D01*
X218328Y196000D01*
X218215Y196862D01*
X217882Y197664D01*
X217354Y198354D01*
X216664Y198882D01*
X215862Y199215D01*
X215000Y199328D01*
X214139Y199215D01*
X213336Y198882D01*
X212646Y198354D01*
X212249Y197835D01*
X21760D01*
X10835Y208760D01*
Y211919D01*
X10919Y211979D01*
X11598Y211858D01*
X11702Y211702D01*
X20702Y202702D01*
X21298Y202304D01*
X22000Y202165D01*
X212249D01*
X212646Y201646D01*
X213336Y201117D01*
X214139Y200785D01*
X215000Y200672D01*
X215862Y200785D01*
X216664Y201117D01*
X217354Y201646D01*
X217882Y202336D01*
X218215Y203138D01*
X218328Y204000D01*
X218215Y204861D01*
X217882Y205664D01*
X217354Y206354D01*
X216664Y206883D01*
X215862Y207215D01*
X215000Y207329D01*
X214139Y207215D01*
X213336Y206883D01*
X212646Y206354D01*
X212249Y205835D01*
X22760D01*
X14835Y213760D01*
Y321240D01*
X16055Y322460D01*
X16554Y322427D01*
X16933Y321933D01*
X17831Y321244D01*
X18878Y320811D01*
X20000Y320663D01*
X21123Y320811D01*
X22169Y321244D01*
X23067Y321933D01*
X23756Y322831D01*
X24189Y323878D01*
X24337Y325000D01*
X24189Y326122D01*
X23756Y327169D01*
X23067Y328067D01*
X22169Y328756D01*
X21123Y329189D01*
X20000Y329337D01*
X18878Y329189D01*
X17831Y328756D01*
X16933Y328067D01*
X16244Y327169D01*
X16098Y326816D01*
X16000Y326835D01*
X15298Y326696D01*
X14702Y326298D01*
X11702Y323298D01*
X11598Y323142D01*
X10919Y323021D01*
X10835Y323081D01*
Y326240D01*
X14760Y330165D01*
X26240D01*
X27413Y328991D01*
X27384Y328413D01*
X26933Y328067D01*
X26244Y327169D01*
X25811Y326122D01*
X25663Y325000D01*
X25811Y323878D01*
X26244Y322831D01*
X26933Y321933D01*
X27832Y321244D01*
X28877Y320811D01*
X30000Y320663D01*
X31122Y320811D01*
X32168Y321244D01*
X33067Y321933D01*
X33756Y322831D01*
X34189Y323878D01*
X34337Y325000D01*
X34189Y326122D01*
X33756Y327169D01*
X33067Y328067D01*
X32168Y328756D01*
X31239Y329141D01*
Y329596D01*
X31099Y330298D01*
X30702Y330894D01*
X28298Y333298D01*
X27702Y333696D01*
X27586Y333719D01*
X27000Y333835D01*
D02*
G37*
G36*
X114473Y324500D02*
X110500D01*
Y320527D01*
X111175Y320616D01*
X112269Y321069D01*
X113209Y321791D01*
X113931Y322731D01*
X114384Y323825D01*
X114473Y324500D01*
D02*
G37*
G36*
X109500D02*
X105527D01*
X105616Y323825D01*
X106069Y322731D01*
X106791Y321791D01*
X107731Y321069D01*
X108825Y320616D01*
X109500Y320527D01*
Y324500D01*
D02*
G37*
G36*
X588042Y324228D02*
X579642D01*
Y319667D01*
X584998D01*
X585786Y319771D01*
X586520Y320075D01*
X587150Y320558D01*
X587634Y321189D01*
X587938Y321923D01*
X588042Y322711D01*
Y324228D01*
D02*
G37*
G36*
X567281Y329790D02*
X562909D01*
Y324728D01*
Y319667D01*
X567281D01*
X568069Y319771D01*
X568803Y320075D01*
X569434Y320558D01*
X569917Y321189D01*
X570013Y321419D01*
X570554D01*
X570650Y321189D01*
X571133Y320558D01*
X571764Y320075D01*
X572498Y319771D01*
X573285Y319667D01*
X578642D01*
Y324728D01*
Y329790D01*
X573285D01*
X572498Y329686D01*
X571764Y329382D01*
X571133Y328898D01*
X570650Y328268D01*
X570554Y328038D01*
X570013D01*
X569917Y328268D01*
X569434Y328898D01*
X568803Y329382D01*
X568069Y329686D01*
X567281Y329790D01*
D02*
G37*
G36*
X561909Y324228D02*
X554494D01*
Y322711D01*
X554597Y321923D01*
X554901Y321189D01*
X555385Y320558D01*
X556015Y320075D01*
X556750Y319771D01*
X557537Y319667D01*
X561909D01*
Y324228D01*
D02*
G37*
G36*
X493559Y321020D02*
X488441D01*
X487668Y320866D01*
X487013Y320428D01*
X486575Y319773D01*
X486421Y319000D01*
X486575Y318227D01*
X487013Y317572D01*
X487668Y317134D01*
X488441Y316980D01*
X493559D01*
X494332Y317134D01*
X494987Y317572D01*
X495425Y318227D01*
X495579Y319000D01*
X495425Y319773D01*
X494987Y320428D01*
X494332Y320866D01*
X493559Y321020D01*
D02*
G37*
G36*
X60500Y319473D02*
Y315500D01*
X64473D01*
X64384Y316175D01*
X63931Y317269D01*
X63209Y318209D01*
X62269Y318931D01*
X61175Y319384D01*
X60500Y319473D01*
D02*
G37*
G36*
X59500D02*
X58825Y319384D01*
X57731Y318931D01*
X56791Y318209D01*
X56069Y317269D01*
X55616Y316175D01*
X55527Y315500D01*
X59500D01*
Y319473D01*
D02*
G37*
G36*
X571661Y316594D02*
X570990Y316506D01*
X570365Y316246D01*
X569827Y315834D01*
X569415Y315297D01*
X569156Y314671D01*
X569068Y314000D01*
X569156Y313329D01*
X569210Y313197D01*
X568767Y312961D01*
X568604Y313206D01*
X568110Y313535D01*
X567528Y313651D01*
X563008D01*
Y312138D01*
X569047D01*
X568978Y312487D01*
X569415Y312703D01*
X569827Y312166D01*
X570365Y311754D01*
X570990Y311494D01*
X571661Y311406D01*
X572333Y311494D01*
X572958Y311754D01*
X573495Y312166D01*
X573908Y312703D01*
X574167Y313329D01*
X574255Y314000D01*
X574167Y314671D01*
X573908Y315297D01*
X573495Y315834D01*
X572958Y316246D01*
X572333Y316506D01*
X571661Y316594D01*
D02*
G37*
G36*
X562008Y313651D02*
X557488D01*
X556906Y313535D01*
X556413Y313206D01*
X556083Y312712D01*
X555969Y312138D01*
X562008D01*
Y313651D01*
D02*
G37*
G36*
X493559Y316020D02*
X488441D01*
X487668Y315866D01*
X487013Y315428D01*
X486575Y314773D01*
X486421Y314000D01*
X486575Y313227D01*
X487013Y312572D01*
X487668Y312134D01*
X488441Y311980D01*
X493559D01*
X494332Y312134D01*
X494987Y312572D01*
X495425Y313227D01*
X495579Y314000D01*
X495425Y314773D01*
X494987Y315428D01*
X494332Y315866D01*
X493559Y316020D01*
D02*
G37*
G36*
X291000Y322328D02*
X290139Y322215D01*
X289336Y321883D01*
X288646Y321354D01*
X288118Y320664D01*
X287785Y319862D01*
X287671Y319000D01*
X287763Y318308D01*
X280290Y310835D01*
X202428D01*
X202288Y311335D01*
X203067Y311933D01*
X203756Y312831D01*
X204189Y313878D01*
X204337Y315000D01*
X204189Y316123D01*
X203756Y317169D01*
X203067Y318067D01*
X202169Y318756D01*
X201122Y319189D01*
X200000Y319337D01*
X198878Y319189D01*
X197831Y318756D01*
X196933Y318067D01*
X196244Y317169D01*
X195811Y316123D01*
X195663Y315000D01*
X195811Y313878D01*
X196244Y312831D01*
X196933Y311933D01*
X197713Y311335D01*
X197572Y310835D01*
X192428D01*
X192288Y311335D01*
X193067Y311933D01*
X193756Y312831D01*
X194189Y313878D01*
X194337Y315000D01*
X194189Y316123D01*
X193756Y317169D01*
X193067Y318067D01*
X192169Y318756D01*
X191122Y319189D01*
X190000Y319337D01*
X188877Y319189D01*
X187831Y318756D01*
X186933Y318067D01*
X186244Y317169D01*
X185811Y316123D01*
X185663Y315000D01*
X185811Y313878D01*
X186244Y312831D01*
X186933Y311933D01*
X187713Y311335D01*
X187572Y310835D01*
X186760D01*
X184051Y313544D01*
X184189Y313878D01*
X184337Y315000D01*
X184189Y316123D01*
X183756Y317169D01*
X183067Y318067D01*
X182169Y318756D01*
X181123Y319189D01*
X180000Y319337D01*
X178877Y319189D01*
X177831Y318756D01*
X176933Y318067D01*
X176244Y317169D01*
X175811Y316123D01*
X175663Y315000D01*
X175811Y313878D01*
X176244Y312831D01*
X176933Y311933D01*
X177831Y311244D01*
X178877Y310811D01*
X180000Y310663D01*
X181123Y310811D01*
X181456Y310949D01*
X184702Y307702D01*
X184858Y307598D01*
X184979Y306919D01*
X184919Y306835D01*
X115760D01*
X111962Y310634D01*
Y311158D01*
X112169Y311244D01*
X113067Y311933D01*
X113756Y312831D01*
X114189Y313878D01*
X114337Y315000D01*
X114189Y316123D01*
X113756Y317169D01*
X113067Y318067D01*
X112169Y318756D01*
X111123Y319189D01*
X110000Y319337D01*
X108878Y319189D01*
X107831Y318756D01*
X106933Y318067D01*
X106244Y317169D01*
X105811Y316123D01*
X105663Y315000D01*
X105811Y313878D01*
X106244Y312831D01*
X106933Y311933D01*
X107831Y311244D01*
X108291Y311053D01*
Y309874D01*
X108431Y309171D01*
X108829Y308576D01*
X113702Y303702D01*
X114298Y303304D01*
X115000Y303165D01*
X288249D01*
X288646Y302646D01*
X289336Y302117D01*
X290139Y301785D01*
X291000Y301672D01*
X291862Y301785D01*
X292664Y302117D01*
X293354Y302646D01*
X293882Y303336D01*
X294215Y304138D01*
X294328Y305000D01*
X294215Y305861D01*
X293882Y306664D01*
X293354Y307354D01*
X292664Y307882D01*
X291862Y308215D01*
X291000Y308329D01*
X290139Y308215D01*
X289336Y307882D01*
X288646Y307354D01*
X288249Y306835D01*
X282131D01*
X282071Y306919D01*
X282192Y307598D01*
X282348Y307702D01*
X290396Y315751D01*
X291000Y315671D01*
X291862Y315785D01*
X292664Y316118D01*
X293354Y316646D01*
X293882Y317336D01*
X294215Y318139D01*
X294328Y319000D01*
X294215Y319862D01*
X293882Y320664D01*
X293354Y321354D01*
X292664Y321883D01*
X291862Y322215D01*
X291000Y322328D01*
D02*
G37*
G36*
X170000Y319337D02*
X168877Y319189D01*
X167831Y318756D01*
X166933Y318067D01*
X166244Y317169D01*
X165811Y316123D01*
X165663Y315000D01*
X165811Y313878D01*
X166244Y312831D01*
X166933Y311933D01*
X167831Y311244D01*
X168877Y310811D01*
X170000Y310663D01*
X171123Y310811D01*
X172169Y311244D01*
X173067Y311933D01*
X173756Y312831D01*
X174189Y313878D01*
X174337Y315000D01*
X174189Y316123D01*
X173756Y317169D01*
X173067Y318067D01*
X172169Y318756D01*
X171123Y319189D01*
X170000Y319337D01*
D02*
G37*
G36*
X160000D02*
X158878Y319189D01*
X157831Y318756D01*
X156933Y318067D01*
X156244Y317169D01*
X155811Y316123D01*
X155663Y315000D01*
X155811Y313878D01*
X156244Y312831D01*
X156933Y311933D01*
X157831Y311244D01*
X158878Y310811D01*
X160000Y310663D01*
X161123Y310811D01*
X162169Y311244D01*
X163067Y311933D01*
X163756Y312831D01*
X164189Y313878D01*
X164337Y315000D01*
X164189Y316123D01*
X163756Y317169D01*
X163067Y318067D01*
X162169Y318756D01*
X161123Y319189D01*
X160000Y319337D01*
D02*
G37*
G36*
X150000D02*
X148878Y319189D01*
X147831Y318756D01*
X146933Y318067D01*
X146244Y317169D01*
X145811Y316123D01*
X145663Y315000D01*
X145811Y313878D01*
X146244Y312831D01*
X146933Y311933D01*
X147831Y311244D01*
X148878Y310811D01*
X150000Y310663D01*
X151122Y310811D01*
X152169Y311244D01*
X153067Y311933D01*
X153756Y312831D01*
X154189Y313878D01*
X154337Y315000D01*
X154189Y316123D01*
X153756Y317169D01*
X153067Y318067D01*
X152169Y318756D01*
X151122Y319189D01*
X150000Y319337D01*
D02*
G37*
G36*
X140000D02*
X138877Y319189D01*
X137831Y318756D01*
X136933Y318067D01*
X136244Y317169D01*
X135811Y316123D01*
X135663Y315000D01*
X135811Y313878D01*
X136244Y312831D01*
X136933Y311933D01*
X137831Y311244D01*
X138877Y310811D01*
X140000Y310663D01*
X141122Y310811D01*
X142169Y311244D01*
X143067Y311933D01*
X143756Y312831D01*
X144189Y313878D01*
X144337Y315000D01*
X144189Y316123D01*
X143756Y317169D01*
X143067Y318067D01*
X142169Y318756D01*
X141122Y319189D01*
X140000Y319337D01*
D02*
G37*
G36*
X130000D02*
X128877Y319189D01*
X127831Y318756D01*
X126933Y318067D01*
X126244Y317169D01*
X125811Y316123D01*
X125663Y315000D01*
X125811Y313878D01*
X126244Y312831D01*
X126933Y311933D01*
X127831Y311244D01*
X128877Y310811D01*
X130000Y310663D01*
X131123Y310811D01*
X132169Y311244D01*
X133067Y311933D01*
X133756Y312831D01*
X134189Y313878D01*
X134337Y315000D01*
X134189Y316123D01*
X133756Y317169D01*
X133067Y318067D01*
X132169Y318756D01*
X131123Y319189D01*
X130000Y319337D01*
D02*
G37*
G36*
X120000D02*
X118877Y319189D01*
X117831Y318756D01*
X116933Y318067D01*
X116244Y317169D01*
X115811Y316123D01*
X115663Y315000D01*
X115811Y313878D01*
X116244Y312831D01*
X116933Y311933D01*
X117831Y311244D01*
X118877Y310811D01*
X120000Y310663D01*
X121123Y310811D01*
X122169Y311244D01*
X123067Y311933D01*
X123756Y312831D01*
X124189Y313878D01*
X124337Y315000D01*
X124189Y316123D01*
X123756Y317169D01*
X123067Y318067D01*
X122169Y318756D01*
X121123Y319189D01*
X120000Y319337D01*
D02*
G37*
G36*
X70000D02*
X68878Y319189D01*
X67831Y318756D01*
X66933Y318067D01*
X66244Y317169D01*
X65811Y316123D01*
X65663Y315000D01*
X65811Y313878D01*
X66244Y312831D01*
X66933Y311933D01*
X67831Y311244D01*
X68878Y310811D01*
X70000Y310663D01*
X71122Y310811D01*
X72169Y311244D01*
X73067Y311933D01*
X73756Y312831D01*
X74189Y313878D01*
X74337Y315000D01*
X74189Y316123D01*
X73756Y317169D01*
X73067Y318067D01*
X72169Y318756D01*
X71122Y319189D01*
X70000Y319337D01*
D02*
G37*
G36*
X40000D02*
X38877Y319189D01*
X37832Y318756D01*
X36933Y318067D01*
X36244Y317169D01*
X35811Y316123D01*
X35663Y315000D01*
X35811Y313878D01*
X36244Y312831D01*
X36933Y311933D01*
X37832Y311244D01*
X38877Y310811D01*
X40000Y310663D01*
X41122Y310811D01*
X42169Y311244D01*
X43067Y311933D01*
X43756Y312831D01*
X44189Y313878D01*
X44337Y315000D01*
X44189Y316123D01*
X43756Y317169D01*
X43067Y318067D01*
X42169Y318756D01*
X41122Y319189D01*
X40000Y319337D01*
D02*
G37*
G36*
X30000D02*
X28877Y319189D01*
X27832Y318756D01*
X26933Y318067D01*
X26244Y317169D01*
X25811Y316123D01*
X25663Y315000D01*
X25811Y313878D01*
X26244Y312831D01*
X26933Y311933D01*
X27832Y311244D01*
X28877Y310811D01*
X30000Y310663D01*
X31122Y310811D01*
X32168Y311244D01*
X33067Y311933D01*
X33756Y312831D01*
X34189Y313878D01*
X34337Y315000D01*
X34189Y316123D01*
X33756Y317169D01*
X33067Y318067D01*
X32168Y318756D01*
X31122Y319189D01*
X30000Y319337D01*
D02*
G37*
G36*
X64473Y314500D02*
X60500D01*
Y310527D01*
X61175Y310616D01*
X62269Y311069D01*
X63209Y311791D01*
X63931Y312731D01*
X64384Y313825D01*
X64473Y314500D01*
D02*
G37*
G36*
X59500D02*
X55527D01*
X55616Y313825D01*
X56069Y312731D01*
X56791Y311791D01*
X57731Y311069D01*
X58825Y310616D01*
X59500Y310527D01*
Y314500D01*
D02*
G37*
G36*
X440823Y313500D02*
X437370D01*
Y309850D01*
X440823D01*
Y313500D01*
D02*
G37*
G36*
X493559Y311020D02*
X488441D01*
X487668Y310866D01*
X487013Y310428D01*
X486575Y309773D01*
X486421Y309000D01*
X486575Y308227D01*
X487013Y307572D01*
X487668Y307134D01*
X488441Y306980D01*
X493559D01*
X494332Y307134D01*
X494987Y307572D01*
X495425Y308227D01*
X495579Y309000D01*
X495425Y309773D01*
X494987Y310428D01*
X494332Y310866D01*
X493559Y311020D01*
D02*
G37*
G36*
Y306020D02*
X488441D01*
X487668Y305866D01*
X487013Y305428D01*
X486575Y304773D01*
X486421Y304000D01*
X486575Y303227D01*
X487013Y302572D01*
X487668Y302134D01*
X488441Y301980D01*
X493559D01*
X494332Y302134D01*
X494987Y302572D01*
X495425Y303227D01*
X495579Y304000D01*
X495425Y304773D01*
X494987Y305428D01*
X494332Y305866D01*
X493559Y306020D01*
D02*
G37*
G36*
Y301020D02*
X488441D01*
X487668Y300866D01*
X487013Y300428D01*
X486575Y299773D01*
X486421Y299000D01*
X486575Y298227D01*
X487013Y297572D01*
X487668Y297134D01*
X488441Y296980D01*
X493559D01*
X494332Y297134D01*
X494987Y297572D01*
X495425Y298227D01*
X495579Y299000D01*
X495425Y299773D01*
X494987Y300428D01*
X494332Y300866D01*
X493559Y301020D01*
D02*
G37*
G36*
X475055D02*
X469937D01*
X469164Y300866D01*
X469118Y300835D01*
X465779D01*
X465077Y300696D01*
X464482Y300298D01*
X459702Y295518D01*
X459304Y294923D01*
X459165Y294220D01*
Y272568D01*
Y254550D01*
X450476D01*
Y244682D01*
X474123D01*
Y254550D01*
X462835D01*
Y268052D01*
X462838Y268550D01*
X470315D01*
Y268350D01*
X473768D01*
Y272500D01*
Y276650D01*
X470315D01*
Y276450D01*
X462838D01*
X462835Y276948D01*
Y293460D01*
X466540Y297165D01*
X469118D01*
X469164Y297134D01*
X469937Y296980D01*
X475055D01*
X475828Y297134D01*
X476483Y297572D01*
X476921Y298227D01*
X477075Y299000D01*
X476921Y299773D01*
X476483Y300428D01*
X475828Y300866D01*
X475055Y301020D01*
D02*
G37*
G36*
X571661Y299271D02*
X570990Y299183D01*
X570365Y298923D01*
X569827Y298511D01*
X569415Y297974D01*
X569156Y297348D01*
X569068Y296677D01*
X569156Y296006D01*
X569415Y295380D01*
X569827Y294843D01*
X570365Y294431D01*
X570990Y294172D01*
X571661Y294083D01*
X572333Y294172D01*
X572958Y294431D01*
X573495Y294843D01*
X573908Y295380D01*
X574167Y296006D01*
X574255Y296677D01*
X574167Y297348D01*
X573908Y297974D01*
X573495Y298511D01*
X572958Y298923D01*
X572333Y299183D01*
X571661Y299271D01*
D02*
G37*
G36*
X493559Y296020D02*
X488441D01*
X487668Y295866D01*
X487013Y295428D01*
X486575Y294773D01*
X486421Y294000D01*
X486575Y293227D01*
X487013Y292572D01*
X487668Y292134D01*
X488441Y291980D01*
X493559D01*
X494332Y292134D01*
X494987Y292572D01*
X495425Y293227D01*
X495579Y294000D01*
X495425Y294773D01*
X494987Y295428D01*
X494332Y295866D01*
X493559Y296020D01*
D02*
G37*
G36*
X578642Y291010D02*
X573285D01*
X572498Y290907D01*
X571764Y290602D01*
X571133Y290119D01*
X570650Y289488D01*
X570554Y289258D01*
X570013D01*
X569917Y289488D01*
X569434Y290119D01*
X568803Y290602D01*
X568069Y290907D01*
X567281Y291010D01*
X562909D01*
Y285949D01*
Y280887D01*
X567281D01*
X568069Y280991D01*
X568803Y281295D01*
X569434Y281779D01*
X569917Y282409D01*
X570013Y282640D01*
X570554D01*
X570650Y282409D01*
X571133Y281779D01*
X571764Y281295D01*
X572498Y280991D01*
X573285Y280887D01*
X578642D01*
Y285949D01*
Y291010D01*
D02*
G37*
G36*
X584998D02*
X579642D01*
Y286449D01*
X588042D01*
Y287966D01*
X587938Y288754D01*
X587634Y289488D01*
X587150Y290119D01*
X586520Y290602D01*
X585786Y290907D01*
X584998Y291010D01*
D02*
G37*
G36*
X561909D02*
X557537D01*
X556750Y290907D01*
X556015Y290602D01*
X555385Y290119D01*
X554901Y289488D01*
X554597Y288754D01*
X554494Y287966D01*
Y286449D01*
X561909D01*
Y291010D01*
D02*
G37*
G36*
X376050Y376550D02*
X367950D01*
Y368450D01*
X368671D01*
Y352379D01*
X343646Y327354D01*
X343117Y326664D01*
X342980Y326332D01*
X342785Y325862D01*
X342671Y325000D01*
Y142000D01*
Y120000D01*
X342785Y119139D01*
X343117Y118336D01*
X343646Y117646D01*
X344336Y117118D01*
X345139Y116785D01*
X346000Y116672D01*
X346862Y116785D01*
X347664Y117118D01*
X348354Y117646D01*
X348883Y118336D01*
X349215Y119139D01*
X349328Y120000D01*
Y138672D01*
X502000D01*
X502861Y138785D01*
X503664Y139118D01*
X504354Y139646D01*
X504743Y140154D01*
X512354Y147765D01*
X512778Y148318D01*
X512828Y148316D01*
X513385Y147943D01*
X514043Y147813D01*
X514444Y147420D01*
X514461Y147057D01*
X512848Y145443D01*
X512450Y144848D01*
X512310Y144146D01*
Y131932D01*
X512214Y131835D01*
X476591D01*
Y133950D01*
X469114D01*
Y134150D01*
X465661D01*
Y130000D01*
Y125850D01*
X469114D01*
Y126050D01*
X476591D01*
Y128165D01*
X497715D01*
X498209Y128150D01*
Y124500D01*
X502161D01*
Y124000D01*
X502661D01*
Y119850D01*
X506114D01*
Y120050D01*
X513591D01*
Y120671D01*
X529106D01*
X533156Y116621D01*
Y98518D01*
X520851D01*
Y99139D01*
X507440D01*
Y91239D01*
X520851D01*
Y91861D01*
X533156D01*
Y89292D01*
X532338D01*
Y76603D01*
X532338Y76275D01*
X532338Y75775D01*
Y63086D01*
X533156D01*
Y31379D01*
X531368Y29592D01*
X525421D01*
X524738Y30152D01*
X523730Y30691D01*
X522637Y31022D01*
X521500Y31134D01*
X520363Y31022D01*
X519270Y30691D01*
X518262Y30152D01*
X517379Y29427D01*
X516654Y28544D01*
X516116Y27537D01*
X515784Y26443D01*
X515672Y25306D01*
X515784Y24169D01*
X516116Y23076D01*
X516654Y22068D01*
X517379Y21185D01*
X518262Y20460D01*
X519270Y19922D01*
X520363Y19590D01*
X521500Y19478D01*
X522637Y19590D01*
X523730Y19922D01*
X524738Y20460D01*
X525621Y21185D01*
X526346Y22068D01*
X526809Y22934D01*
X532747D01*
X533609Y23048D01*
X534079Y23243D01*
X534411Y23380D01*
X535101Y23909D01*
X538838Y27646D01*
X539367Y28336D01*
X539699Y29138D01*
X539813Y30000D01*
Y63086D01*
X540631D01*
Y75775D01*
X540631Y76103D01*
X540631Y76603D01*
Y89292D01*
X539813D01*
Y95189D01*
Y118000D01*
X539699Y118861D01*
X539504Y119332D01*
X539367Y119664D01*
X538838Y120354D01*
X532838Y126354D01*
X532149Y126883D01*
X531816Y127020D01*
X531346Y127215D01*
X530484Y127329D01*
X526625D01*
Y138000D01*
X526446Y138897D01*
X526115Y139393D01*
Y147447D01*
X526615Y147857D01*
X526839Y147813D01*
X527062Y147857D01*
X527562Y147447D01*
Y147140D01*
X527197Y146664D01*
X526864Y145861D01*
X526751Y145000D01*
X526864Y144139D01*
X527197Y143336D01*
X527726Y142646D01*
X529726Y140646D01*
X530415Y140118D01*
X531218Y139785D01*
X532080Y139672D01*
X547000D01*
X547861Y139785D01*
X548332Y139980D01*
X548664Y140118D01*
X549354Y140646D01*
X552379Y143672D01*
X578511D01*
X578574Y143680D01*
X578950Y143350D01*
Y142950D01*
X587050D01*
Y151050D01*
X578950D01*
Y150650D01*
X578574Y150320D01*
X578511Y150329D01*
X551000D01*
X550139Y150215D01*
X549336Y149882D01*
X548646Y149354D01*
X545621Y146328D01*
X533458D01*
X532433Y147354D01*
X532388Y147389D01*
X532512Y147923D01*
X532615Y147943D01*
X533172Y148316D01*
X533300D01*
X533858Y147943D01*
X534516Y147813D01*
X535174Y147943D01*
X535731Y148316D01*
X535885Y148546D01*
X536484Y148467D01*
X537346Y148580D01*
X538148Y148913D01*
X538838Y149442D01*
X539367Y150131D01*
X539699Y150934D01*
X539813Y151795D01*
Y152692D01*
X540792Y153672D01*
X578511D01*
X579373Y153785D01*
X580129Y154098D01*
X580958Y153462D01*
X581943Y153054D01*
X583000Y152915D01*
X584057Y153054D01*
X585042Y153462D01*
X585888Y154112D01*
X586538Y154957D01*
X586946Y155943D01*
X587085Y157000D01*
X586946Y158057D01*
X586538Y159043D01*
X585888Y159889D01*
X585042Y160538D01*
X584057Y160946D01*
X583000Y161085D01*
X581943Y160946D01*
X580958Y160538D01*
X580129Y159902D01*
X579373Y160215D01*
X578511Y160328D01*
X539413D01*
X538552Y160215D01*
X537749Y159882D01*
X537060Y159354D01*
X534131Y156425D01*
X534037Y156303D01*
X533537Y156472D01*
Y158169D01*
X533652Y158341D01*
X533792Y159043D01*
X533652Y159746D01*
X533254Y160341D01*
X530298Y163298D01*
X529702Y163696D01*
X529493Y163737D01*
Y164247D01*
X529782Y164304D01*
X530377Y164702D01*
X533254Y167579D01*
X533367Y167749D01*
X533982Y167769D01*
X534131Y167575D01*
X537060Y164646D01*
X537749Y164118D01*
X538552Y163785D01*
X539413Y163672D01*
X578511D01*
X579373Y163785D01*
X580129Y164098D01*
X580958Y163462D01*
X581943Y163054D01*
X583000Y162915D01*
X584057Y163054D01*
X585042Y163462D01*
X585888Y164111D01*
X586538Y164957D01*
X586946Y165943D01*
X587085Y167000D01*
X586946Y168057D01*
X586538Y169043D01*
X585888Y169888D01*
X585042Y170538D01*
X584057Y170946D01*
X583000Y171085D01*
X581943Y170946D01*
X580958Y170538D01*
X580129Y169902D01*
X579373Y170215D01*
X578511Y170328D01*
X540792D01*
X539813Y171308D01*
Y175000D01*
X539699Y175862D01*
X539367Y176664D01*
X538838Y177354D01*
X538148Y177883D01*
X537346Y178215D01*
X536484Y178329D01*
X536406Y178318D01*
X536235Y178469D01*
X536104Y179126D01*
X535731Y179684D01*
X535174Y180057D01*
X534516Y180187D01*
X533858Y180057D01*
X533627Y179903D01*
X533236Y179715D01*
X532845Y179903D01*
X532615Y180057D01*
X532495Y180080D01*
X532330Y180623D01*
X533379Y181672D01*
X545621D01*
X552646Y174646D01*
X553336Y174118D01*
X554139Y173785D01*
X555000Y173671D01*
X578511D01*
X579373Y173785D01*
X580129Y174098D01*
X580958Y173462D01*
X581943Y173054D01*
X583000Y172915D01*
X584057Y173054D01*
X585042Y173462D01*
X585888Y174111D01*
X586538Y174958D01*
X586946Y175943D01*
X587085Y177000D01*
X586946Y178057D01*
X586538Y179042D01*
X585888Y179888D01*
X585042Y180538D01*
X584057Y180946D01*
X583000Y181085D01*
X581943Y180946D01*
X580958Y180538D01*
X580129Y179902D01*
X579373Y180215D01*
X578511Y180329D01*
X556379D01*
X549354Y187354D01*
X548664Y187882D01*
X548332Y188020D01*
X547861Y188215D01*
X547000Y188329D01*
X532000D01*
X531139Y188215D01*
X530336Y187882D01*
X529646Y187354D01*
X527044Y184751D01*
X526515Y184062D01*
X526183Y183259D01*
X526069Y182398D01*
X526183Y181536D01*
X526515Y180733D01*
X526582Y180646D01*
X526375Y180095D01*
X526181Y180057D01*
X525701Y179736D01*
X525639Y179828D01*
X525015Y180245D01*
X524780Y180292D01*
Y176205D01*
X523779D01*
Y180292D01*
X523544Y180245D01*
X522920Y179828D01*
X522858Y179736D01*
X522378Y180057D01*
X522328Y180067D01*
X522092Y180508D01*
X522215Y180805D01*
X522329Y181666D01*
Y197000D01*
Y202043D01*
X523308Y203022D01*
X524870D01*
X525086Y203050D01*
X529047D01*
Y202850D01*
X532500D01*
Y207000D01*
Y211150D01*
X529047D01*
Y210950D01*
X521570D01*
Y209632D01*
X521067Y209565D01*
X520265Y209233D01*
X519575Y208704D01*
X516646Y205775D01*
X516117Y205086D01*
X515980Y204753D01*
X515785Y204283D01*
X515671Y203421D01*
Y197000D01*
Y181695D01*
X515611Y181641D01*
X515194Y181466D01*
X514835Y181824D01*
Y207000D01*
X514696Y207702D01*
X514298Y208298D01*
X509298Y213298D01*
X508702Y213696D01*
X508000Y213835D01*
X362751D01*
X362354Y214354D01*
X361664Y214882D01*
X360861Y215215D01*
X360000Y215329D01*
X359138Y215215D01*
X358336Y214882D01*
X357646Y214354D01*
X357118Y213664D01*
X356785Y212861D01*
X356672Y212000D01*
X356785Y211139D01*
X357118Y210336D01*
X357646Y209646D01*
X358336Y209118D01*
X359138Y208785D01*
X360000Y208671D01*
X360861Y208785D01*
X361664Y209118D01*
X362354Y209646D01*
X362751Y210165D01*
X507240D01*
X511165Y206240D01*
Y190138D01*
X510665Y189931D01*
X509298Y191298D01*
X508702Y191696D01*
X508000Y191835D01*
X362672D01*
X361969Y191696D01*
X361374Y191298D01*
X361165Y191089D01*
X360861Y191215D01*
X360000Y191329D01*
X359138Y191215D01*
X358336Y190883D01*
X357646Y190354D01*
X357118Y189664D01*
X356785Y188862D01*
X356672Y188000D01*
X356785Y187138D01*
X357118Y186336D01*
X357646Y185646D01*
X358336Y185117D01*
X359138Y184785D01*
X360000Y184671D01*
X360861Y184785D01*
X361664Y185117D01*
X362354Y185646D01*
X362882Y186336D01*
X363215Y187138D01*
X363329Y188000D01*
X363791Y188165D01*
X507240D01*
X508003Y187401D01*
Y177850D01*
X508143Y177148D01*
X508541Y176553D01*
X509129Y175965D01*
X509724Y175567D01*
X509765Y175559D01*
Y173941D01*
X509896Y173283D01*
X510269Y172725D01*
X510826Y172353D01*
X510915Y172335D01*
X510866Y171835D01*
X498760D01*
X485298Y185298D01*
X484702Y185696D01*
X484000Y185835D01*
X457751D01*
X457354Y186354D01*
X456664Y186882D01*
X455862Y187215D01*
X455000Y187329D01*
X454139Y187215D01*
X453336Y186882D01*
X452646Y186354D01*
X452117Y185664D01*
X451785Y184862D01*
X451672Y184000D01*
X451785Y183139D01*
X452117Y182336D01*
X452646Y181646D01*
X453336Y181117D01*
X454139Y180785D01*
X455000Y180672D01*
X455862Y180785D01*
X456664Y181117D01*
X457354Y181646D01*
X457751Y182165D01*
X460739D01*
X461110Y181854D01*
X461110Y181665D01*
Y178500D01*
X464571D01*
X468032D01*
Y181665D01*
X468032Y181854D01*
X468403Y182165D01*
X483240D01*
X496702Y168702D01*
X496858Y168598D01*
X496979Y167919D01*
X496919Y167835D01*
X494599D01*
X483136Y179298D01*
X482541Y179696D01*
X481839Y179835D01*
X476690D01*
Y181654D01*
X470168D01*
Y174346D01*
X476690D01*
Y176165D01*
X481078D01*
X492541Y164702D01*
X492697Y164598D01*
X492818Y163918D01*
X492758Y163835D01*
X490000D01*
X489298Y163696D01*
X488702Y163298D01*
X481311Y155906D01*
X476690D01*
Y157725D01*
X470168D01*
Y150417D01*
X476690D01*
Y152236D01*
X482071D01*
X482773Y152375D01*
X483369Y152773D01*
X490760Y160165D01*
X494569D01*
X494629Y160082D01*
X494509Y159402D01*
X494353Y159298D01*
X494265Y159210D01*
X493861Y159377D01*
X493000Y159490D01*
X492138Y159377D01*
X491336Y159044D01*
X490646Y158515D01*
X490118Y157826D01*
X489785Y157023D01*
X489672Y156161D01*
X489785Y155300D01*
X490118Y154497D01*
X490646Y153808D01*
X491336Y153279D01*
X492138Y152946D01*
X493000Y152833D01*
X493861Y152946D01*
X494664Y153279D01*
X495354Y153808D01*
X495883Y154497D01*
X496215Y155300D01*
X496316Y156071D01*
X496411Y156165D01*
X510866D01*
X510915Y155665D01*
X510826Y155647D01*
X510269Y155274D01*
X509896Y154717D01*
X509765Y154059D01*
Y153416D01*
X509138Y153333D01*
X508336Y153001D01*
X507646Y152472D01*
X500503Y145328D01*
X349328D01*
Y158934D01*
X349829Y159033D01*
X350117Y158336D01*
X350646Y157646D01*
X351336Y157117D01*
X352138Y156785D01*
X353000Y156672D01*
X353861Y156785D01*
X354664Y157117D01*
X355354Y157646D01*
X355883Y158336D01*
X356215Y159139D01*
X356329Y160000D01*
X356215Y160862D01*
X355883Y161664D01*
X355354Y162354D01*
X354835Y162751D01*
Y304240D01*
X368760Y318165D01*
X436876D01*
X437370Y318150D01*
Y314500D01*
X441323D01*
Y314000D01*
X441823D01*
Y309850D01*
X445276D01*
Y310050D01*
X452753D01*
Y310671D01*
X468000D01*
X468077Y310682D01*
X468366Y310215D01*
X468071Y309773D01*
X467917Y309000D01*
X468071Y308227D01*
X468509Y307572D01*
X469164Y307134D01*
X469937Y306980D01*
X475055D01*
X475828Y307134D01*
X475978Y307234D01*
X477419D01*
X478121Y307374D01*
X478717Y307772D01*
X479665Y308720D01*
X480165Y308512D01*
Y307760D01*
X478240Y305835D01*
X475874D01*
X475828Y305866D01*
X475055Y306020D01*
X469937D01*
X469164Y305866D01*
X468509Y305428D01*
X468071Y304773D01*
X467917Y304000D01*
X468071Y303227D01*
X468509Y302572D01*
X469164Y302134D01*
X469937Y301980D01*
X475055D01*
X475828Y302134D01*
X475874Y302165D01*
X479000D01*
X479702Y302304D01*
X480298Y302702D01*
X483298Y305702D01*
X483696Y306298D01*
X483835Y307000D01*
Y330830D01*
X487170Y334165D01*
X531240D01*
X534165Y331240D01*
Y306000D01*
X534304Y305298D01*
X534702Y304702D01*
X538513Y300891D01*
X539109Y300493D01*
X539811Y300354D01*
X547013D01*
X547138Y299987D01*
X547147Y299854D01*
X540646Y293354D01*
X540118Y292664D01*
X539980Y292332D01*
X539785Y291862D01*
X539672Y291000D01*
Y283329D01*
X532591D01*
Y283950D01*
X532167D01*
Y325161D01*
X532054Y326023D01*
X531721Y326826D01*
X531192Y327515D01*
X526154Y332554D01*
X525464Y333083D01*
X525132Y333220D01*
X524661Y333415D01*
X523800Y333528D01*
X492200D01*
X491338Y333415D01*
X490536Y333083D01*
X489846Y332554D01*
X489318Y331864D01*
X488985Y331062D01*
X488979Y331020D01*
X488441D01*
X487668Y330866D01*
X487013Y330428D01*
X486575Y329773D01*
X486421Y329000D01*
X486575Y328227D01*
X487013Y327572D01*
X487668Y327134D01*
X488441Y326980D01*
X491375D01*
X492200Y326871D01*
X522421D01*
X525510Y323783D01*
Y284401D01*
X525114Y284150D01*
X521661D01*
Y280000D01*
Y275850D01*
X525114D01*
Y276050D01*
X532591D01*
Y276672D01*
X539672D01*
Y256254D01*
X539785Y255392D01*
X539980Y254922D01*
X540118Y254590D01*
X540646Y253900D01*
X545851Y248695D01*
X546540Y248167D01*
X547343Y247834D01*
X547633Y247796D01*
Y247050D01*
X561044D01*
Y254950D01*
X549011D01*
X546328Y257632D01*
Y280000D01*
Y289621D01*
X550902Y294195D01*
X559496D01*
X560358Y294309D01*
X561161Y294641D01*
X561850Y295170D01*
X562379Y295859D01*
X562711Y296662D01*
X562786Y297230D01*
X567528D01*
X568032Y297330D01*
X568459Y297616D01*
X568745Y298043D01*
X568845Y298547D01*
Y299532D01*
X568745Y300036D01*
X568459Y300463D01*
Y300765D01*
X568745Y301193D01*
X568845Y301697D01*
Y302681D01*
X568745Y303185D01*
X568459Y303613D01*
Y303915D01*
X568745Y304342D01*
X568845Y304847D01*
Y305831D01*
X568745Y306335D01*
X568459Y306762D01*
Y307065D01*
X568745Y307492D01*
X568845Y307996D01*
Y308980D01*
X568745Y309485D01*
X568709Y309539D01*
X568604Y310070D01*
X568933Y310563D01*
X569047Y311138D01*
X555969D01*
X556083Y310563D01*
X556413Y310070D01*
X556308Y309539D01*
X556271Y309485D01*
X556171Y308980D01*
Y307996D01*
X556235Y307674D01*
X555928Y307174D01*
X543760D01*
X541835Y309099D01*
Y335000D01*
X541696Y335702D01*
X541298Y336298D01*
X536298Y341298D01*
X535702Y341696D01*
X535000Y341835D01*
X484000D01*
X483298Y341696D01*
X482702Y341298D01*
X477293Y335888D01*
X476895Y335293D01*
X476755Y334591D01*
Y331088D01*
X476255Y330821D01*
X475906Y331055D01*
X475055Y331224D01*
X472996D01*
Y329000D01*
Y326776D01*
X475055D01*
X475906Y326945D01*
X476255Y327179D01*
X476755Y326911D01*
Y325848D01*
X476255Y325581D01*
X475828Y325866D01*
X475055Y326020D01*
X469937D01*
X469164Y325866D01*
X469118Y325835D01*
X363050D01*
X362348Y325696D01*
X361752Y325298D01*
X358692Y322237D01*
X358000Y322328D01*
X357138Y322215D01*
X356336Y321883D01*
X355646Y321354D01*
X355118Y320664D01*
X354785Y319862D01*
X354672Y319000D01*
X354785Y318139D01*
X355118Y317336D01*
X355646Y316646D01*
X356336Y316118D01*
X357138Y315785D01*
X358000Y315671D01*
X358861Y315785D01*
X359664Y316118D01*
X360354Y316646D01*
X360882Y317336D01*
X361215Y318139D01*
X361329Y319000D01*
X361249Y319604D01*
X363810Y322165D01*
X366919D01*
X366979Y322081D01*
X366858Y321402D01*
X366702Y321298D01*
X351702Y306298D01*
X351304Y305702D01*
X351165Y305000D01*
Y162751D01*
X350646Y162354D01*
X350117Y161664D01*
X349829Y160967D01*
X349328Y161066D01*
Y323621D01*
X374354Y348646D01*
X374883Y349336D01*
X375215Y350138D01*
X375328Y351000D01*
Y368450D01*
X376050D01*
Y376550D01*
D02*
G37*
G36*
X588042Y285449D02*
X579642D01*
Y280887D01*
X584998D01*
X585786Y280991D01*
X586520Y281295D01*
X587150Y281779D01*
X587634Y282409D01*
X587938Y283143D01*
X588042Y283931D01*
Y285449D01*
D02*
G37*
G36*
X561909D02*
X554494D01*
Y283931D01*
X554597Y283143D01*
X554901Y282409D01*
X555385Y281779D01*
X556015Y281295D01*
X556750Y280991D01*
X557537Y280887D01*
X561909D01*
Y285449D01*
D02*
G37*
G36*
X520661Y284150D02*
X517209D01*
Y280500D01*
X520661D01*
Y284150D01*
D02*
G37*
G36*
X475055Y296020D02*
X469937D01*
X469164Y295866D01*
X468509Y295428D01*
X468071Y294773D01*
X467917Y294000D01*
X468071Y293227D01*
X468509Y292572D01*
X469164Y292134D01*
X469937Y291980D01*
X475055D01*
X475828Y292134D01*
X475874Y292165D01*
X477830D01*
X489293Y280702D01*
X489888Y280304D01*
X490591Y280165D01*
X500240D01*
X502165Y278240D01*
Y276890D01*
X502021Y276450D01*
X494543D01*
Y276650D01*
X491091D01*
Y272500D01*
Y268350D01*
X494543D01*
Y268550D01*
X502021D01*
X502165Y268110D01*
Y254550D01*
X487877D01*
Y244682D01*
X511524D01*
Y254550D01*
X505835D01*
Y272500D01*
Y279000D01*
X505696Y279702D01*
X505298Y280298D01*
X502298Y283298D01*
X501702Y283696D01*
X501000Y283835D01*
X491351D01*
X479888Y295298D01*
X479293Y295696D01*
X478591Y295835D01*
X475874D01*
X475828Y295866D01*
X475055Y296020D01*
D02*
G37*
G36*
X520661Y279500D02*
X517209D01*
Y275850D01*
X520661D01*
Y279500D01*
D02*
G37*
G36*
X478221Y276650D02*
X474768D01*
Y273000D01*
X478221D01*
Y276650D01*
D02*
G37*
G36*
X490091D02*
X486638D01*
Y273000D01*
X490091D01*
Y276650D01*
D02*
G37*
G36*
Y272000D02*
X486638D01*
Y268350D01*
X490091D01*
Y272000D01*
D02*
G37*
G36*
X478221D02*
X474768D01*
Y268350D01*
X478221D01*
Y272000D01*
D02*
G37*
G36*
X578567Y255150D02*
X572161D01*
Y251500D01*
X578567D01*
Y255150D01*
D02*
G37*
G36*
X571161D02*
X564756D01*
Y251500D01*
X571161D01*
Y255150D01*
D02*
G37*
G36*
X578567Y250500D02*
X572161D01*
Y246850D01*
X578567D01*
Y250500D01*
D02*
G37*
G36*
X571161D02*
X564756D01*
Y246850D01*
X571161D01*
Y250500D01*
D02*
G37*
G36*
X388918Y259966D02*
X386899Y259767D01*
X384958Y259178D01*
X383168Y258222D01*
X381600Y256934D01*
X380313Y255366D01*
X379356Y253577D01*
X378767Y251635D01*
X378569Y249616D01*
X378767Y247597D01*
X379356Y245655D01*
X380313Y243866D01*
X381600Y242298D01*
X383168Y241010D01*
X384958Y240054D01*
X386899Y239465D01*
X388918Y239266D01*
X390938Y239465D01*
X392879Y240054D01*
X394669Y241010D01*
X396237Y242298D01*
X397524Y243866D01*
X398480Y245655D01*
X399069Y247597D01*
X399268Y249616D01*
X399069Y251635D01*
X398480Y253577D01*
X397524Y255366D01*
X396237Y256934D01*
X394669Y258222D01*
X392879Y259178D01*
X390938Y259767D01*
X388918Y259966D01*
D02*
G37*
G36*
X24300Y319300D02*
X15700D01*
Y310700D01*
X18165D01*
Y215000D01*
X18304Y214298D01*
X18702Y213702D01*
X21702Y210702D01*
X22298Y210304D01*
X23000Y210165D01*
X212249D01*
X212646Y209646D01*
X213336Y209118D01*
X214139Y208785D01*
X215000Y208671D01*
X215862Y208785D01*
X216664Y209118D01*
X217354Y209646D01*
X217882Y210336D01*
X218215Y211139D01*
X218328Y212000D01*
X218215Y212861D01*
X217882Y213664D01*
X217354Y214354D01*
X216664Y214882D01*
X215862Y215215D01*
X215000Y215329D01*
X214139Y215215D01*
X213336Y214882D01*
X212646Y214354D01*
X212249Y213835D01*
X23760D01*
X21835Y215760D01*
Y310700D01*
X24300D01*
Y319300D01*
D02*
G37*
G36*
X536953Y211150D02*
X533500D01*
Y207500D01*
X536953D01*
Y211150D01*
D02*
G37*
G36*
Y206500D02*
X533500D01*
Y202850D01*
X536953D01*
Y206500D01*
D02*
G37*
G36*
X360000Y207329D02*
X359138Y207215D01*
X358336Y206883D01*
X357646Y206354D01*
X357118Y205664D01*
X356785Y204861D01*
X356672Y204000D01*
X356785Y203138D01*
X357118Y202336D01*
X357646Y201646D01*
X358336Y201117D01*
X359138Y200785D01*
X360000Y200672D01*
X360861Y200785D01*
X361664Y201117D01*
X362354Y201646D01*
X362751Y202165D01*
X452230D01*
X452646Y201622D01*
X453336Y201093D01*
X454139Y200760D01*
X455000Y200647D01*
X455862Y200760D01*
X456664Y201093D01*
X457354Y201622D01*
X457882Y202311D01*
X458215Y203114D01*
X458328Y203975D01*
X458215Y204837D01*
X457882Y205639D01*
X457354Y206329D01*
X456664Y206858D01*
X455862Y207190D01*
X455000Y207304D01*
X454139Y207190D01*
X453336Y206858D01*
X452646Y206329D01*
X452268Y205835D01*
X362751D01*
X362354Y206354D01*
X361664Y206883D01*
X360861Y207215D01*
X360000Y207329D01*
D02*
G37*
G36*
X493000Y199328D02*
X492138Y199215D01*
X491336Y198882D01*
X490646Y198354D01*
X490249Y197835D01*
X362751D01*
X362354Y198354D01*
X361664Y198882D01*
X360861Y199215D01*
X360000Y199328D01*
X359138Y199215D01*
X358336Y198882D01*
X357646Y198354D01*
X357118Y197664D01*
X356785Y196862D01*
X356672Y196000D01*
X356785Y195139D01*
X357118Y194336D01*
X357646Y193646D01*
X358336Y193117D01*
X359138Y192785D01*
X360000Y192672D01*
X360861Y192785D01*
X361664Y193117D01*
X362354Y193646D01*
X362751Y194165D01*
X490249D01*
X490646Y193646D01*
X491336Y193117D01*
X492138Y192785D01*
X493000Y192672D01*
X493861Y192785D01*
X494664Y193117D01*
X495354Y193646D01*
X495883Y194336D01*
X496215Y195139D01*
X496328Y196000D01*
X496215Y196862D01*
X495883Y197664D01*
X495354Y198354D01*
X494664Y198882D01*
X493861Y199215D01*
X493000Y199328D01*
D02*
G37*
G36*
X215000Y191329D02*
X214139Y191215D01*
X213336Y190883D01*
X212646Y190354D01*
X212249Y189835D01*
X163000D01*
X162298Y189696D01*
X161702Y189298D01*
X158702Y186298D01*
X158304Y185702D01*
X158165Y185000D01*
Y88894D01*
X157831Y88756D01*
X156933Y88067D01*
X156244Y87169D01*
X155811Y86123D01*
X155663Y85000D01*
X155811Y83877D01*
X156244Y82831D01*
X156933Y81933D01*
X157831Y81244D01*
X158878Y80811D01*
X160000Y80663D01*
X161123Y80811D01*
X162169Y81244D01*
X163067Y81933D01*
X163756Y82831D01*
X164189Y83877D01*
X164337Y85000D01*
X164189Y86123D01*
X163756Y87169D01*
X163067Y88067D01*
X162169Y88756D01*
X161835Y88894D01*
Y184240D01*
X163760Y186165D01*
X212249D01*
X212646Y185646D01*
X213336Y185117D01*
X214139Y184785D01*
X215000Y184671D01*
X215862Y184785D01*
X216664Y185117D01*
X217354Y185646D01*
X217882Y186336D01*
X218215Y187138D01*
X218328Y188000D01*
X218215Y188862D01*
X217882Y189664D01*
X217354Y190354D01*
X216664Y190883D01*
X215862Y191215D01*
X215000Y191329D01*
D02*
G37*
G36*
Y183328D02*
X214139Y183215D01*
X213336Y182882D01*
X212646Y182354D01*
X212249Y181835D01*
X181172D01*
X180469Y181696D01*
X179874Y181298D01*
X178702Y180126D01*
X178304Y179531D01*
X178165Y178828D01*
Y104751D01*
X177646Y104354D01*
X177118Y103664D01*
X176785Y102861D01*
X176672Y102000D01*
X176785Y101138D01*
X177118Y100336D01*
X177646Y99646D01*
X178336Y99117D01*
X179139Y98785D01*
X180000Y98672D01*
X180861Y98785D01*
X181664Y99117D01*
X182354Y99646D01*
X182882Y100336D01*
X183215Y101138D01*
X183328Y102000D01*
X183215Y102861D01*
X182882Y103664D01*
X182354Y104354D01*
X181835Y104751D01*
Y178068D01*
X181932Y178165D01*
X212249D01*
X212646Y177646D01*
X213336Y177118D01*
X214139Y176785D01*
X215000Y176672D01*
X215862Y176785D01*
X216664Y177118D01*
X217354Y177646D01*
X217882Y178336D01*
X218215Y179139D01*
X218328Y180000D01*
X218215Y180861D01*
X217882Y181664D01*
X217354Y182354D01*
X216664Y182882D01*
X215862Y183215D01*
X215000Y183328D01*
D02*
G37*
G36*
X468032Y177500D02*
X465071D01*
Y174146D01*
X468032D01*
Y177500D01*
D02*
G37*
G36*
X464071D02*
X461110D01*
Y174146D01*
X464071D01*
Y177500D01*
D02*
G37*
G36*
X342000Y376585D02*
X340943Y376446D01*
X339957Y376038D01*
X339111Y375389D01*
X338462Y374542D01*
X338054Y373557D01*
X337915Y372500D01*
X338054Y371443D01*
X338462Y370458D01*
X339111Y369612D01*
X339957Y368962D01*
X340165Y368877D01*
Y332760D01*
X336702Y329298D01*
X336304Y328702D01*
X336165Y328000D01*
Y168751D01*
X335646Y168354D01*
X335118Y167664D01*
X334785Y166861D01*
X334671Y166000D01*
X334785Y165138D01*
X335118Y164336D01*
X335646Y163646D01*
X336336Y163118D01*
X337139Y162785D01*
X338000Y162671D01*
X338861Y162785D01*
X339664Y163118D01*
X340354Y163646D01*
X340882Y164336D01*
X341215Y165138D01*
X341329Y166000D01*
X341215Y166861D01*
X340882Y167664D01*
X340354Y168354D01*
X339835Y168751D01*
Y327240D01*
X343298Y330702D01*
X343696Y331298D01*
X343835Y332000D01*
Y368877D01*
X344042Y368962D01*
X344888Y369612D01*
X345538Y370458D01*
X345946Y371443D01*
X346085Y372500D01*
X345946Y373557D01*
X345538Y374542D01*
X344888Y375389D01*
X344042Y376038D01*
X343057Y376446D01*
X342000Y376585D01*
D02*
G37*
G36*
X468032Y157925D02*
X465071D01*
Y154571D01*
X468032D01*
Y157925D01*
D02*
G37*
G36*
X464071D02*
X461110D01*
Y154571D01*
X464071D01*
Y157925D01*
D02*
G37*
G36*
X468032Y153571D02*
X465071D01*
Y150217D01*
X468032D01*
Y153571D01*
D02*
G37*
G36*
X464071D02*
X461110D01*
Y150217D01*
X464071D01*
Y153571D01*
D02*
G37*
G36*
X464661Y134150D02*
X461209D01*
Y130500D01*
X464661D01*
Y134150D01*
D02*
G37*
G36*
Y129500D02*
X461209D01*
Y125850D01*
X464661D01*
Y129500D01*
D02*
G37*
G36*
X378953Y125150D02*
X375500D01*
Y121500D01*
X378953D01*
Y125150D01*
D02*
G37*
G36*
X423661D02*
X420209D01*
Y121500D01*
X423661D01*
Y125150D01*
D02*
G37*
G36*
X501661Y123500D02*
X498209D01*
Y119850D01*
X501661D01*
Y123500D01*
D02*
G37*
G36*
X423661Y120500D02*
X420209D01*
Y116850D01*
X423661D01*
Y120500D01*
D02*
G37*
G36*
X378953Y120500D02*
X375500D01*
Y116850D01*
X378953D01*
Y120500D01*
D02*
G37*
G36*
X428114Y125150D02*
X424661D01*
Y121000D01*
Y116850D01*
X428114D01*
Y117050D01*
X435591D01*
Y117672D01*
X440621D01*
X447672Y110621D01*
Y97329D01*
X444207D01*
Y97950D01*
X430796D01*
Y90050D01*
X434173D01*
Y57880D01*
X429621Y53329D01*
X385000D01*
X384138Y53215D01*
X383336Y52883D01*
X382646Y52354D01*
X382118Y51664D01*
X381785Y50862D01*
X381672Y50000D01*
X381785Y49139D01*
X382118Y48336D01*
X382646Y47646D01*
X383336Y47117D01*
X384138Y46785D01*
X385000Y46672D01*
X431000D01*
X431861Y46785D01*
X432332Y46980D01*
X432664Y47117D01*
X433354Y47646D01*
X439855Y54148D01*
X440384Y54837D01*
X440521Y55169D01*
X440716Y55640D01*
X440830Y56501D01*
Y90050D01*
X444207D01*
Y90671D01*
X447672D01*
Y80103D01*
X446853D01*
Y67414D01*
X446853Y67086D01*
X446853Y66586D01*
Y53897D01*
X447672D01*
Y33698D01*
X445082Y31109D01*
X444203Y31022D01*
X443109Y30691D01*
X442102Y30152D01*
X441219Y29427D01*
X440494Y28544D01*
X439955Y27537D01*
X439624Y26443D01*
X439512Y25306D01*
X439624Y24169D01*
X439955Y23076D01*
X440494Y22068D01*
X441219Y21185D01*
X442102Y20460D01*
X443109Y19922D01*
X444203Y19590D01*
X445340Y19478D01*
X446477Y19590D01*
X447570Y19922D01*
X448578Y20460D01*
X449461Y21185D01*
X450186Y22068D01*
X450724Y23076D01*
X451056Y24169D01*
X451168Y25306D01*
X451056Y26443D01*
X450771Y27383D01*
X453354Y29966D01*
X453883Y30655D01*
X454215Y31458D01*
X454328Y32320D01*
Y53897D01*
X455147D01*
Y66586D01*
X455147Y66914D01*
X455147Y67414D01*
Y80103D01*
X454328D01*
Y94000D01*
Y112000D01*
X454215Y112862D01*
X453883Y113664D01*
X453354Y114354D01*
X444354Y123354D01*
X443664Y123882D01*
X443332Y124020D01*
X442862Y124215D01*
X442000Y124328D01*
X435591D01*
Y124950D01*
X428114D01*
Y125150D01*
D02*
G37*
G36*
X503728Y99339D02*
X497323D01*
Y95689D01*
X503728D01*
Y99339D01*
D02*
G37*
G36*
X496323D02*
X489917D01*
Y95689D01*
X496323D01*
Y99339D01*
D02*
G37*
G36*
X427084Y98150D02*
X420678D01*
Y94500D01*
X427084D01*
Y98150D01*
D02*
G37*
G36*
X419678D02*
X413273D01*
Y94500D01*
X419678D01*
Y98150D01*
D02*
G37*
G36*
X295814Y94833D02*
X292968D01*
Y93110D01*
X297939D01*
X297869Y93461D01*
X297387Y94182D01*
X296665Y94664D01*
X295814Y94833D01*
D02*
G37*
G36*
X503728Y94689D02*
X497323D01*
Y91039D01*
X503728D01*
Y94689D01*
D02*
G37*
G36*
X496323D02*
X489917D01*
Y91039D01*
X496323D01*
Y94689D01*
D02*
G37*
G36*
X297939Y92110D02*
X292968D01*
Y90386D01*
X295814D01*
X296665Y90555D01*
X297387Y91037D01*
X297869Y91759D01*
X297939Y92110D01*
D02*
G37*
G36*
X291968Y94833D02*
X289121D01*
X288270Y94664D01*
X287674Y94266D01*
X287431D01*
X286728Y94126D01*
X286133Y93728D01*
X283702Y91298D01*
X283304Y90702D01*
X283250Y90431D01*
X282699Y90224D01*
X282265Y90557D01*
X281414Y90910D01*
X281000Y90964D01*
Y87500D01*
Y84036D01*
X281414Y84090D01*
X282265Y84443D01*
X282665Y84749D01*
X283165Y84503D01*
Y84000D01*
X283304Y83298D01*
X283702Y82702D01*
X285133Y81272D01*
X285728Y80874D01*
X286431Y80734D01*
X288002D01*
X288270Y80555D01*
X289121Y80386D01*
X291968D01*
Y82610D01*
Y84833D01*
X289121D01*
X288270Y84664D01*
X287882Y84405D01*
X287191D01*
X286835Y84760D01*
Y85665D01*
X288106D01*
X288270Y85555D01*
X289121Y85386D01*
X291968D01*
Y87610D01*
Y89833D01*
X289121D01*
X288270Y89664D01*
X288046Y89514D01*
X287864Y89561D01*
X287712Y90117D01*
X288191Y90595D01*
X288210D01*
X288270Y90555D01*
X289121Y90386D01*
X291968D01*
Y92610D01*
Y94833D01*
D02*
G37*
G36*
X427084Y93500D02*
X420678D01*
Y89850D01*
X427084D01*
Y93500D01*
D02*
G37*
G36*
X419678D02*
X413273D01*
Y89850D01*
X419678D01*
Y93500D01*
D02*
G37*
G36*
X295814Y89833D02*
X292968D01*
Y88110D01*
X297939D01*
X297869Y88461D01*
X297387Y89182D01*
X296665Y89664D01*
X295814Y89833D01*
D02*
G37*
G36*
X120500Y89473D02*
Y85500D01*
X124473D01*
X124384Y86175D01*
X123931Y87269D01*
X123209Y88209D01*
X122269Y88931D01*
X121175Y89384D01*
X120500Y89473D01*
D02*
G37*
G36*
X119500D02*
X118825Y89384D01*
X117731Y88931D01*
X116791Y88209D01*
X116069Y87269D01*
X115616Y86175D01*
X115527Y85500D01*
X119500D01*
Y89473D01*
D02*
G37*
G36*
X110500D02*
Y85500D01*
X114473D01*
X114384Y86175D01*
X113931Y87269D01*
X113209Y88209D01*
X112269Y88931D01*
X111175Y89384D01*
X110500Y89473D01*
D02*
G37*
G36*
X109500D02*
X108825Y89384D01*
X107731Y88931D01*
X106791Y88209D01*
X106069Y87269D01*
X105616Y86175D01*
X105527Y85500D01*
X109500D01*
Y89473D01*
D02*
G37*
G36*
X50500D02*
Y85500D01*
X54473D01*
X54384Y86175D01*
X53931Y87269D01*
X53209Y88209D01*
X52269Y88931D01*
X51175Y89384D01*
X50500Y89473D01*
D02*
G37*
G36*
X49500D02*
X48825Y89384D01*
X47731Y88931D01*
X46791Y88209D01*
X46069Y87269D01*
X45616Y86175D01*
X45527Y85500D01*
X49500D01*
Y89473D01*
D02*
G37*
G36*
X297939Y87110D02*
X292968D01*
Y85386D01*
X295814D01*
X296665Y85555D01*
X297387Y86037D01*
X297869Y86759D01*
X297939Y87110D01*
D02*
G37*
G36*
X286293Y100324D02*
X278000D01*
X277269Y100228D01*
X276588Y99946D01*
X276003Y99497D01*
X272003Y95497D01*
X271554Y94912D01*
X271272Y94231D01*
X271176Y93500D01*
Y39740D01*
X271117Y39664D01*
X270785Y38862D01*
X270672Y38000D01*
X270785Y37139D01*
X271117Y36336D01*
X271646Y35646D01*
X272336Y35118D01*
X273138Y34785D01*
X274000Y34672D01*
X274862Y34785D01*
X275664Y35118D01*
X276354Y35646D01*
X276883Y36336D01*
X277215Y37139D01*
X277328Y38000D01*
X277215Y38862D01*
X276883Y39664D01*
X276824Y39740D01*
Y85922D01*
X277324Y86021D01*
X277443Y85735D01*
X278004Y85004D01*
X278735Y84443D01*
X279586Y84090D01*
X280000Y84036D01*
Y87500D01*
Y90964D01*
X279586Y90910D01*
X278735Y90557D01*
X278004Y89996D01*
X277443Y89265D01*
X277324Y88979D01*
X276824Y89078D01*
Y92330D01*
X279170Y94676D01*
X286293D01*
X287024Y94772D01*
X287705Y95054D01*
X288169Y95410D01*
X292087D01*
X292886Y95569D01*
X292917Y95590D01*
X295814D01*
X296587Y95743D01*
X297243Y96181D01*
X297680Y96837D01*
X297834Y97610D01*
X297680Y98383D01*
X297243Y99038D01*
X296587Y99476D01*
X295814Y99629D01*
X289121D01*
X288924Y99590D01*
X288169D01*
X287705Y99946D01*
X287024Y100228D01*
X286293Y100324D01*
D02*
G37*
G36*
X342500Y86074D02*
Y83110D01*
X345464D01*
X345410Y83523D01*
X345057Y84375D01*
X344496Y85106D01*
X343765Y85667D01*
X342914Y86019D01*
X342500Y86074D01*
D02*
G37*
G36*
X295814Y84833D02*
X292968D01*
Y83110D01*
X297939D01*
X297869Y83461D01*
X297387Y84182D01*
X296665Y84664D01*
X295814Y84833D01*
D02*
G37*
G36*
X180000Y89337D02*
X178877Y89189D01*
X177831Y88756D01*
X176933Y88067D01*
X176244Y87169D01*
X175811Y86123D01*
X175663Y85000D01*
X175811Y83877D01*
X176244Y82831D01*
X176933Y81933D01*
X177831Y81244D01*
X178877Y80811D01*
X180000Y80663D01*
X181123Y80811D01*
X182169Y81244D01*
X183067Y81933D01*
X183756Y82831D01*
X184189Y83877D01*
X184337Y85000D01*
X184189Y86123D01*
X183756Y87169D01*
X183067Y88067D01*
X182169Y88756D01*
X181123Y89189D01*
X180000Y89337D01*
D02*
G37*
G36*
X150000D02*
X148878Y89189D01*
X147831Y88756D01*
X146933Y88067D01*
X146244Y87169D01*
X145811Y86123D01*
X145663Y85000D01*
X145811Y83877D01*
X146244Y82831D01*
X146933Y81933D01*
X147831Y81244D01*
X148878Y80811D01*
X150000Y80663D01*
X151122Y80811D01*
X152169Y81244D01*
X153067Y81933D01*
X153756Y82831D01*
X154189Y83877D01*
X154337Y85000D01*
X154189Y86123D01*
X153756Y87169D01*
X153067Y88067D01*
X152169Y88756D01*
X151122Y89189D01*
X150000Y89337D01*
D02*
G37*
G36*
X140000D02*
X138877Y89189D01*
X137831Y88756D01*
X136933Y88067D01*
X136244Y87169D01*
X135811Y86123D01*
X135663Y85000D01*
X135811Y83877D01*
X136244Y82831D01*
X136933Y81933D01*
X137831Y81244D01*
X138877Y80811D01*
X140000Y80663D01*
X141122Y80811D01*
X142169Y81244D01*
X143067Y81933D01*
X143756Y82831D01*
X144189Y83877D01*
X144337Y85000D01*
X144189Y86123D01*
X143756Y87169D01*
X143067Y88067D01*
X142169Y88756D01*
X141122Y89189D01*
X140000Y89337D01*
D02*
G37*
G36*
X130000D02*
X128877Y89189D01*
X127831Y88756D01*
X126933Y88067D01*
X126244Y87169D01*
X125811Y86123D01*
X125663Y85000D01*
X125811Y83877D01*
X126244Y82831D01*
X126933Y81933D01*
X127831Y81244D01*
X128877Y80811D01*
X130000Y80663D01*
X131123Y80811D01*
X132169Y81244D01*
X133067Y81933D01*
X133756Y82831D01*
X134189Y83877D01*
X134337Y85000D01*
X134189Y86123D01*
X133756Y87169D01*
X133067Y88067D01*
X132169Y88756D01*
X131123Y89189D01*
X130000Y89337D01*
D02*
G37*
G36*
X150000Y113329D02*
X107000D01*
X106139Y113215D01*
X105336Y112882D01*
X104646Y112354D01*
X97646Y105354D01*
X97117Y104664D01*
X96980Y104332D01*
X96785Y103861D01*
X96671Y103000D01*
Y87726D01*
X96244Y87169D01*
X95811Y86123D01*
X95663Y85000D01*
X95811Y83877D01*
X96244Y82831D01*
X96933Y81933D01*
X97831Y81244D01*
X98878Y80811D01*
X100000Y80663D01*
X101122Y80811D01*
X102169Y81244D01*
X103067Y81933D01*
X103756Y82831D01*
X104189Y83877D01*
X104337Y85000D01*
X104189Y86123D01*
X103756Y87169D01*
X103329Y87726D01*
Y101621D01*
X108379Y106672D01*
X150000D01*
X150862Y106785D01*
X151664Y107117D01*
X152354Y107646D01*
X152883Y108336D01*
X153215Y109139D01*
X153329Y110000D01*
X153215Y110862D01*
X152883Y111664D01*
X152354Y112354D01*
X151664Y112882D01*
X150862Y113215D01*
X150000Y113329D01*
D02*
G37*
G36*
Y123328D02*
X72929D01*
X72067Y123215D01*
X71265Y122882D01*
X70575Y122354D01*
X67646Y119425D01*
X67117Y118735D01*
X66980Y118403D01*
X66785Y117932D01*
X66672Y117071D01*
Y87726D01*
X66244Y87169D01*
X65811Y86123D01*
X65663Y85000D01*
X65811Y83877D01*
X66244Y82831D01*
X66933Y81933D01*
X67831Y81244D01*
X68878Y80811D01*
X70000Y80663D01*
X71122Y80811D01*
X72169Y81244D01*
X73067Y81933D01*
X73756Y82831D01*
X74189Y83877D01*
X74337Y85000D01*
X74189Y86123D01*
X73756Y87169D01*
X73329Y87726D01*
Y115692D01*
X74308Y116672D01*
X86672D01*
Y87726D01*
X86244Y87169D01*
X85811Y86123D01*
X85663Y85000D01*
X85811Y83877D01*
X86244Y82831D01*
X86933Y81933D01*
X87831Y81244D01*
X88877Y80811D01*
X90000Y80663D01*
X91123Y80811D01*
X92169Y81244D01*
X93067Y81933D01*
X93756Y82831D01*
X94189Y83877D01*
X94337Y85000D01*
X94189Y86123D01*
X93756Y87169D01*
X93328Y87726D01*
Y116672D01*
X150000D01*
X150862Y116785D01*
X151664Y117118D01*
X152354Y117646D01*
X152883Y118336D01*
X153215Y119139D01*
X153329Y120000D01*
X153215Y120861D01*
X152883Y121664D01*
X152354Y122354D01*
X151664Y122882D01*
X150862Y123215D01*
X150000Y123328D01*
D02*
G37*
G36*
X80000Y89337D02*
X78878Y89189D01*
X77831Y88756D01*
X76933Y88067D01*
X76244Y87169D01*
X75811Y86123D01*
X75663Y85000D01*
X75811Y83877D01*
X76244Y82831D01*
X76933Y81933D01*
X77831Y81244D01*
X78878Y80811D01*
X80000Y80663D01*
X81122Y80811D01*
X82169Y81244D01*
X83067Y81933D01*
X83756Y82831D01*
X84189Y83877D01*
X84337Y85000D01*
X84189Y86123D01*
X83756Y87169D01*
X83067Y88067D01*
X82169Y88756D01*
X81122Y89189D01*
X80000Y89337D01*
D02*
G37*
G36*
X60000D02*
X58877Y89189D01*
X57831Y88756D01*
X56933Y88067D01*
X56244Y87169D01*
X55811Y86123D01*
X55663Y85000D01*
X55811Y83877D01*
X56244Y82831D01*
X56933Y81933D01*
X57831Y81244D01*
X58877Y80811D01*
X60000Y80663D01*
X61123Y80811D01*
X62169Y81244D01*
X63067Y81933D01*
X63756Y82831D01*
X64189Y83877D01*
X64337Y85000D01*
X64189Y86123D01*
X63756Y87169D01*
X63067Y88067D01*
X62169Y88756D01*
X61123Y89189D01*
X60000Y89337D01*
D02*
G37*
G36*
X40000D02*
X38877Y89189D01*
X37832Y88756D01*
X36933Y88067D01*
X36244Y87169D01*
X35811Y86123D01*
X35663Y85000D01*
X35811Y83877D01*
X36244Y82831D01*
X36933Y81933D01*
X37832Y81244D01*
X38877Y80811D01*
X40000Y80663D01*
X41122Y80811D01*
X42169Y81244D01*
X43067Y81933D01*
X43756Y82831D01*
X44189Y83877D01*
X44337Y85000D01*
X44189Y86123D01*
X43756Y87169D01*
X43067Y88067D01*
X42169Y88756D01*
X41122Y89189D01*
X40000Y89337D01*
D02*
G37*
G36*
X30000D02*
X28877Y89189D01*
X27832Y88756D01*
X26933Y88067D01*
X26244Y87169D01*
X25811Y86123D01*
X25663Y85000D01*
X25811Y83877D01*
X26244Y82831D01*
X26933Y81933D01*
X27832Y81244D01*
X28877Y80811D01*
X30000Y80663D01*
X31122Y80811D01*
X32168Y81244D01*
X33067Y81933D01*
X33756Y82831D01*
X34189Y83877D01*
X34337Y85000D01*
X34189Y86123D01*
X33756Y87169D01*
X33067Y88067D01*
X32168Y88756D01*
X31122Y89189D01*
X30000Y89337D01*
D02*
G37*
G36*
X20000D02*
X18878Y89189D01*
X17831Y88756D01*
X16933Y88067D01*
X16244Y87169D01*
X15811Y86123D01*
X15663Y85000D01*
X15811Y83877D01*
X16244Y82831D01*
X16933Y81933D01*
X17831Y81244D01*
X18878Y80811D01*
X20000Y80663D01*
X21123Y80811D01*
X22169Y81244D01*
X23067Y81933D01*
X23756Y82831D01*
X24189Y83877D01*
X24337Y85000D01*
X24189Y86123D01*
X23756Y87169D01*
X23067Y88067D01*
X22169Y88756D01*
X21123Y89189D01*
X20000Y89337D01*
D02*
G37*
G36*
X124473Y84500D02*
X120500D01*
Y80527D01*
X121175Y80616D01*
X122269Y81069D01*
X123209Y81791D01*
X123931Y82731D01*
X124384Y83825D01*
X124473Y84500D01*
D02*
G37*
G36*
X119500D02*
X115527D01*
X115616Y83825D01*
X116069Y82731D01*
X116791Y81791D01*
X117731Y81069D01*
X118825Y80616D01*
X119500Y80527D01*
Y84500D01*
D02*
G37*
G36*
X114473D02*
X110500D01*
Y80527D01*
X111175Y80616D01*
X112269Y81069D01*
X113209Y81791D01*
X113931Y82731D01*
X114384Y83825D01*
X114473Y84500D01*
D02*
G37*
G36*
X109500D02*
X105527D01*
X105616Y83825D01*
X106069Y82731D01*
X106791Y81791D01*
X107731Y81069D01*
X108825Y80616D01*
X109500Y80527D01*
Y84500D01*
D02*
G37*
G36*
X54473D02*
X50500D01*
Y80527D01*
X51175Y80616D01*
X52269Y81069D01*
X53209Y81791D01*
X53931Y82731D01*
X54384Y83825D01*
X54473Y84500D01*
D02*
G37*
G36*
X49500D02*
X45527D01*
X45616Y83825D01*
X46069Y82731D01*
X46791Y81791D01*
X47731Y81069D01*
X48825Y80616D01*
X49500Y80527D01*
Y84500D01*
D02*
G37*
G36*
X297939Y82110D02*
X292968D01*
Y80386D01*
X295814D01*
X296665Y80555D01*
X297387Y81037D01*
X297869Y81759D01*
X297939Y82110D01*
D02*
G37*
G36*
X345464Y82110D02*
X342500D01*
Y79145D01*
X342914Y79200D01*
X343765Y79552D01*
X344496Y80113D01*
X345057Y80844D01*
X345410Y81696D01*
X345464Y82110D01*
D02*
G37*
G36*
X295814Y79833D02*
X292968D01*
Y78110D01*
X297939D01*
X297869Y78461D01*
X297387Y79182D01*
X296665Y79664D01*
X295814Y79833D01*
D02*
G37*
G36*
X291968D02*
X289121D01*
X288270Y79664D01*
X287549Y79182D01*
X287067Y78461D01*
X286997Y78110D01*
X291968D01*
Y79833D01*
D02*
G37*
G36*
X110500Y79473D02*
Y75500D01*
X114473D01*
X114384Y76175D01*
X113931Y77269D01*
X113209Y78209D01*
X112269Y78931D01*
X111175Y79384D01*
X110500Y79473D01*
D02*
G37*
G36*
X109500D02*
X108825Y79384D01*
X107731Y78931D01*
X106791Y78209D01*
X106069Y77269D01*
X105616Y76175D01*
X105527Y75500D01*
X109500D01*
Y79473D01*
D02*
G37*
G36*
X297939Y77110D02*
X292968D01*
Y75386D01*
X295814D01*
X296665Y75555D01*
X297387Y76037D01*
X297869Y76759D01*
X297939Y77110D01*
D02*
G37*
G36*
X24300Y79300D02*
X15700D01*
Y70700D01*
X24300D01*
Y79300D01*
D02*
G37*
G36*
X200000Y79337D02*
X198878Y79189D01*
X197831Y78756D01*
X196933Y78067D01*
X196244Y77169D01*
X195811Y76122D01*
X195663Y75000D01*
X195811Y73878D01*
X196244Y72831D01*
X196933Y71933D01*
X197831Y71244D01*
X198878Y70811D01*
X200000Y70663D01*
X201122Y70811D01*
X202169Y71244D01*
X203067Y71933D01*
X203756Y72831D01*
X204189Y73878D01*
X204337Y75000D01*
X204189Y76122D01*
X203756Y77169D01*
X203067Y78067D01*
X202169Y78756D01*
X201122Y79189D01*
X200000Y79337D01*
D02*
G37*
G36*
X190000D02*
X188877Y79189D01*
X187831Y78756D01*
X186933Y78067D01*
X186244Y77169D01*
X185811Y76122D01*
X185663Y75000D01*
X185811Y73878D01*
X186244Y72831D01*
X186933Y71933D01*
X187831Y71244D01*
X188877Y70811D01*
X190000Y70663D01*
X191122Y70811D01*
X192169Y71244D01*
X193067Y71933D01*
X193756Y72831D01*
X194189Y73878D01*
X194337Y75000D01*
X194189Y76122D01*
X193756Y77169D01*
X193067Y78067D01*
X192169Y78756D01*
X191122Y79189D01*
X190000Y79337D01*
D02*
G37*
G36*
X180000D02*
X178877Y79189D01*
X177831Y78756D01*
X176933Y78067D01*
X176244Y77169D01*
X175811Y76122D01*
X175663Y75000D01*
X175811Y73878D01*
X176244Y72831D01*
X176933Y71933D01*
X177831Y71244D01*
X178877Y70811D01*
X180000Y70663D01*
X181123Y70811D01*
X182169Y71244D01*
X183067Y71933D01*
X183756Y72831D01*
X184189Y73878D01*
X184337Y75000D01*
X184189Y76122D01*
X183756Y77169D01*
X183067Y78067D01*
X182169Y78756D01*
X181123Y79189D01*
X180000Y79337D01*
D02*
G37*
G36*
X170000D02*
X168877Y79189D01*
X167831Y78756D01*
X166933Y78067D01*
X166244Y77169D01*
X165811Y76122D01*
X165663Y75000D01*
X165811Y73878D01*
X166244Y72831D01*
X166933Y71933D01*
X167831Y71244D01*
X168877Y70811D01*
X170000Y70663D01*
X171123Y70811D01*
X172169Y71244D01*
X173067Y71933D01*
X173756Y72831D01*
X174189Y73878D01*
X174337Y75000D01*
X174189Y76122D01*
X173756Y77169D01*
X173067Y78067D01*
X172169Y78756D01*
X171123Y79189D01*
X170000Y79337D01*
D02*
G37*
G36*
X160000D02*
X158878Y79189D01*
X157831Y78756D01*
X156933Y78067D01*
X156244Y77169D01*
X155811Y76122D01*
X155663Y75000D01*
X155811Y73878D01*
X156244Y72831D01*
X156933Y71933D01*
X157831Y71244D01*
X158878Y70811D01*
X160000Y70663D01*
X161123Y70811D01*
X162169Y71244D01*
X163067Y71933D01*
X163756Y72831D01*
X164189Y73878D01*
X164337Y75000D01*
X164189Y76122D01*
X163756Y77169D01*
X163067Y78067D01*
X162169Y78756D01*
X161123Y79189D01*
X160000Y79337D01*
D02*
G37*
G36*
X150000D02*
X148878Y79189D01*
X147831Y78756D01*
X146933Y78067D01*
X146244Y77169D01*
X145811Y76122D01*
X145663Y75000D01*
X145811Y73878D01*
X146244Y72831D01*
X146933Y71933D01*
X147831Y71244D01*
X148878Y70811D01*
X150000Y70663D01*
X151122Y70811D01*
X152169Y71244D01*
X153067Y71933D01*
X153756Y72831D01*
X154189Y73878D01*
X154337Y75000D01*
X154189Y76122D01*
X153756Y77169D01*
X153067Y78067D01*
X152169Y78756D01*
X151122Y79189D01*
X150000Y79337D01*
D02*
G37*
G36*
X140000D02*
X138877Y79189D01*
X137831Y78756D01*
X136933Y78067D01*
X136244Y77169D01*
X135811Y76122D01*
X135663Y75000D01*
X135811Y73878D01*
X136244Y72831D01*
X136933Y71933D01*
X137831Y71244D01*
X138877Y70811D01*
X140000Y70663D01*
X141122Y70811D01*
X142169Y71244D01*
X143067Y71933D01*
X143756Y72831D01*
X144189Y73878D01*
X144337Y75000D01*
X144189Y76122D01*
X143756Y77169D01*
X143067Y78067D01*
X142169Y78756D01*
X141122Y79189D01*
X140000Y79337D01*
D02*
G37*
G36*
X130000D02*
X128877Y79189D01*
X127831Y78756D01*
X126933Y78067D01*
X126244Y77169D01*
X125811Y76122D01*
X125663Y75000D01*
X125811Y73878D01*
X126244Y72831D01*
X126933Y71933D01*
X127831Y71244D01*
X128877Y70811D01*
X130000Y70663D01*
X131123Y70811D01*
X132169Y71244D01*
X133067Y71933D01*
X133756Y72831D01*
X134189Y73878D01*
X134337Y75000D01*
X134189Y76122D01*
X133756Y77169D01*
X133067Y78067D01*
X132169Y78756D01*
X131123Y79189D01*
X130000Y79337D01*
D02*
G37*
G36*
X120000D02*
X118877Y79189D01*
X117831Y78756D01*
X116933Y78067D01*
X116244Y77169D01*
X115811Y76122D01*
X115663Y75000D01*
X115811Y73878D01*
X116244Y72831D01*
X116933Y71933D01*
X117831Y71244D01*
X118877Y70811D01*
X120000Y70663D01*
X121123Y70811D01*
X122169Y71244D01*
X123067Y71933D01*
X123756Y72831D01*
X124189Y73878D01*
X124337Y75000D01*
X124189Y76122D01*
X123756Y77169D01*
X123067Y78067D01*
X122169Y78756D01*
X121123Y79189D01*
X120000Y79337D01*
D02*
G37*
G36*
X90000D02*
X88877Y79189D01*
X87831Y78756D01*
X86933Y78067D01*
X86244Y77169D01*
X85811Y76122D01*
X85663Y75000D01*
X85811Y73878D01*
X86244Y72831D01*
X86933Y71933D01*
X87831Y71244D01*
X88877Y70811D01*
X90000Y70663D01*
X91123Y70811D01*
X92169Y71244D01*
X93067Y71933D01*
X93756Y72831D01*
X94189Y73878D01*
X94337Y75000D01*
X94189Y76122D01*
X93756Y77169D01*
X93067Y78067D01*
X92169Y78756D01*
X91123Y79189D01*
X90000Y79337D01*
D02*
G37*
G36*
X80000D02*
X78878Y79189D01*
X77831Y78756D01*
X76933Y78067D01*
X76244Y77169D01*
X75811Y76122D01*
X75663Y75000D01*
X75811Y73878D01*
X76244Y72831D01*
X76933Y71933D01*
X77831Y71244D01*
X78878Y70811D01*
X80000Y70663D01*
X81122Y70811D01*
X82169Y71244D01*
X83067Y71933D01*
X83756Y72831D01*
X84189Y73878D01*
X84337Y75000D01*
X84189Y76122D01*
X83756Y77169D01*
X83067Y78067D01*
X82169Y78756D01*
X81122Y79189D01*
X80000Y79337D01*
D02*
G37*
G36*
X70000D02*
X68878Y79189D01*
X67831Y78756D01*
X66933Y78067D01*
X66244Y77169D01*
X65811Y76122D01*
X65663Y75000D01*
X65811Y73878D01*
X66244Y72831D01*
X66933Y71933D01*
X67831Y71244D01*
X68878Y70811D01*
X70000Y70663D01*
X71122Y70811D01*
X72169Y71244D01*
X73067Y71933D01*
X73756Y72831D01*
X74189Y73878D01*
X74337Y75000D01*
X74189Y76122D01*
X73756Y77169D01*
X73067Y78067D01*
X72169Y78756D01*
X71122Y79189D01*
X70000Y79337D01*
D02*
G37*
G36*
X60000D02*
X58877Y79189D01*
X57831Y78756D01*
X56933Y78067D01*
X56244Y77169D01*
X55811Y76122D01*
X55663Y75000D01*
X55811Y73878D01*
X56244Y72831D01*
X56933Y71933D01*
X57831Y71244D01*
X58877Y70811D01*
X60000Y70663D01*
X61123Y70811D01*
X62169Y71244D01*
X63067Y71933D01*
X63756Y72831D01*
X64189Y73878D01*
X64337Y75000D01*
X64189Y76122D01*
X63756Y77169D01*
X63067Y78067D01*
X62169Y78756D01*
X61123Y79189D01*
X60000Y79337D01*
D02*
G37*
G36*
X50000D02*
X48878Y79189D01*
X47831Y78756D01*
X46933Y78067D01*
X46244Y77169D01*
X45811Y76122D01*
X45663Y75000D01*
X45811Y73878D01*
X46244Y72831D01*
X46933Y71933D01*
X47831Y71244D01*
X48878Y70811D01*
X50000Y70663D01*
X51122Y70811D01*
X52169Y71244D01*
X53067Y71933D01*
X53756Y72831D01*
X54189Y73878D01*
X54337Y75000D01*
X54189Y76122D01*
X53756Y77169D01*
X53067Y78067D01*
X52169Y78756D01*
X51122Y79189D01*
X50000Y79337D01*
D02*
G37*
G36*
X40000D02*
X38877Y79189D01*
X37832Y78756D01*
X36933Y78067D01*
X36244Y77169D01*
X35811Y76122D01*
X35663Y75000D01*
X35811Y73878D01*
X36244Y72831D01*
X36933Y71933D01*
X37832Y71244D01*
X38877Y70811D01*
X40000Y70663D01*
X41122Y70811D01*
X42169Y71244D01*
X43067Y71933D01*
X43756Y72831D01*
X44189Y73878D01*
X44337Y75000D01*
X44189Y76122D01*
X43756Y77169D01*
X43067Y78067D01*
X42169Y78756D01*
X41122Y79189D01*
X40000Y79337D01*
D02*
G37*
G36*
X30000D02*
X28877Y79189D01*
X27832Y78756D01*
X26933Y78067D01*
X26244Y77169D01*
X25811Y76122D01*
X25663Y75000D01*
X25811Y73878D01*
X26244Y72831D01*
X26933Y71933D01*
X27832Y71244D01*
X28877Y70811D01*
X30000Y70663D01*
X31122Y70811D01*
X32168Y71244D01*
X33067Y71933D01*
X33756Y72831D01*
X34189Y73878D01*
X34337Y75000D01*
X34189Y76122D01*
X33756Y77169D01*
X33067Y78067D01*
X32168Y78756D01*
X31122Y79189D01*
X30000Y79337D01*
D02*
G37*
G36*
X114473Y74500D02*
X110500D01*
Y70527D01*
X111175Y70616D01*
X112269Y71069D01*
X113209Y71791D01*
X113931Y72731D01*
X114384Y73825D01*
X114473Y74500D01*
D02*
G37*
G36*
X109500D02*
X105527D01*
X105616Y73825D01*
X106069Y72731D01*
X106791Y71791D01*
X107731Y71069D01*
X108825Y70616D01*
X109500Y70527D01*
Y74500D01*
D02*
G37*
G36*
X235000Y163329D02*
X234138Y163215D01*
X233336Y162882D01*
X232646Y162354D01*
X232118Y161664D01*
X231785Y160862D01*
X231672Y160000D01*
X231785Y159139D01*
X232118Y158336D01*
X232646Y157646D01*
X233029Y157352D01*
Y67855D01*
X232376Y67354D01*
X231847Y66664D01*
X231514Y65861D01*
X231401Y65000D01*
X231514Y64139D01*
X231847Y63336D01*
X232376Y62646D01*
X233065Y62117D01*
X233868Y61785D01*
X234729Y61672D01*
X235591Y61785D01*
X236394Y62117D01*
X237083Y62646D01*
X237612Y63336D01*
X237945Y64139D01*
X238058Y65000D01*
X237945Y65861D01*
X237612Y66664D01*
X237083Y67354D01*
X236700Y67647D01*
Y157145D01*
X237354Y157646D01*
X237882Y158336D01*
X238215Y159139D01*
X238329Y160000D01*
X238215Y160862D01*
X237882Y161664D01*
X237354Y162354D01*
X236664Y162882D01*
X235861Y163215D01*
X235000Y163329D01*
D02*
G37*
G36*
X100000Y79337D02*
X98878Y79189D01*
X97831Y78756D01*
X96933Y78067D01*
X96244Y77169D01*
X95811Y76122D01*
X95663Y75000D01*
X95811Y73878D01*
X96244Y72831D01*
X96933Y71933D01*
X97831Y71244D01*
X98761Y70859D01*
Y70404D01*
X98901Y69701D01*
X99299Y69106D01*
X104702Y63702D01*
X105298Y63304D01*
X106000Y63165D01*
X197249D01*
X197646Y62646D01*
X198336Y62117D01*
X199138Y61785D01*
X200000Y61672D01*
X200862Y61785D01*
X201664Y62117D01*
X202354Y62646D01*
X202883Y63336D01*
X203215Y64139D01*
X203328Y65000D01*
X203215Y65861D01*
X202883Y66664D01*
X202354Y67354D01*
X201664Y67883D01*
X200862Y68215D01*
X200000Y68328D01*
X199138Y68215D01*
X198336Y67883D01*
X197646Y67354D01*
X197249Y66835D01*
X106760D01*
X102586Y71009D01*
X102616Y71588D01*
X103067Y71933D01*
X103756Y72831D01*
X104189Y73878D01*
X104337Y75000D01*
X104189Y76122D01*
X103756Y77169D01*
X103067Y78067D01*
X102169Y78756D01*
X101122Y79189D01*
X100000Y79337D01*
D02*
G37*
G36*
X295814Y64630D02*
X289121D01*
X288348Y64476D01*
X287693Y64038D01*
X287255Y63383D01*
X287102Y62610D01*
X287255Y61837D01*
X287693Y61181D01*
X288348Y60743D01*
X289121Y60590D01*
X291259D01*
X291280Y60429D01*
X291613Y59626D01*
X292142Y58937D01*
X296672Y54407D01*
Y50000D01*
X296785Y49139D01*
X297117Y48336D01*
X297646Y47646D01*
X298336Y47117D01*
X299138Y46785D01*
X300000Y46672D01*
X300862Y46785D01*
X301664Y47117D01*
X302354Y47646D01*
X302883Y48336D01*
X303215Y49139D01*
X303328Y50000D01*
Y55786D01*
X303215Y56648D01*
X302883Y57450D01*
X302354Y58140D01*
X297822Y62671D01*
X297680Y63383D01*
X297243Y64038D01*
X296587Y64476D01*
X295814Y64630D01*
D02*
G37*
G36*
X507500Y31306D02*
X502000D01*
Y25806D01*
X507500D01*
Y31306D01*
D02*
G37*
G36*
X501000D02*
X495500D01*
Y25806D01*
X501000D01*
Y31306D01*
D02*
G37*
G36*
X431340D02*
X425840D01*
Y25806D01*
X431340D01*
Y31306D01*
D02*
G37*
G36*
X424840D02*
X419340D01*
Y25806D01*
X424840D01*
Y31306D01*
D02*
G37*
G36*
X365500Y24221D02*
Y20500D01*
X369221D01*
X369141Y21110D01*
X368712Y22143D01*
X368031Y23031D01*
X367143Y23712D01*
X366109Y24141D01*
X365500Y24221D01*
D02*
G37*
G36*
X364500D02*
X363891Y24141D01*
X362857Y23712D01*
X361969Y23031D01*
X361288Y22143D01*
X360859Y21110D01*
X360779Y20500D01*
X364500D01*
Y24221D01*
D02*
G37*
G36*
X285500D02*
Y20500D01*
X289221D01*
X289141Y21110D01*
X288712Y22143D01*
X288031Y23031D01*
X287143Y23712D01*
X286109Y24141D01*
X285500Y24221D01*
D02*
G37*
G36*
X284500D02*
X283891Y24141D01*
X282857Y23712D01*
X281969Y23031D01*
X281288Y22143D01*
X280859Y21110D01*
X280779Y20500D01*
X284500D01*
Y24221D01*
D02*
G37*
G36*
X245000Y175329D02*
X244139Y175215D01*
X243336Y174882D01*
X242646Y174354D01*
X242118Y173664D01*
X241785Y172862D01*
X241671Y172000D01*
Y39172D01*
X227646Y25147D01*
X227117Y24458D01*
X226980Y24125D01*
X226785Y23655D01*
X226672Y22794D01*
X226785Y21932D01*
X226923Y21599D01*
X227117Y21129D01*
X227646Y20440D01*
X228336Y19911D01*
X229138Y19579D01*
X230000Y19465D01*
X230861Y19579D01*
X231664Y19911D01*
X232354Y20440D01*
X232354Y20440D01*
X247354Y35440D01*
X247883Y36129D01*
X248215Y36932D01*
X248328Y37793D01*
Y172000D01*
X248215Y172862D01*
X247883Y173664D01*
X247354Y174354D01*
X246664Y174882D01*
X245862Y175215D01*
X245000Y175329D01*
D02*
G37*
G36*
X507500Y24806D02*
X502000D01*
Y19306D01*
X507500D01*
Y24806D01*
D02*
G37*
G36*
X501000D02*
X495500D01*
Y19306D01*
X501000D01*
Y24806D01*
D02*
G37*
G36*
X431340D02*
X425840D01*
Y19306D01*
X431340D01*
Y24806D01*
D02*
G37*
G36*
X424840D02*
X419340D01*
Y19306D01*
X424840D01*
Y24806D01*
D02*
G37*
G36*
X249050Y24050D02*
X240950D01*
Y15950D01*
X249050D01*
Y24050D01*
D02*
G37*
G36*
X369221Y19500D02*
X365500D01*
Y15779D01*
X366109Y15859D01*
X367143Y16288D01*
X368031Y16969D01*
X368712Y17857D01*
X369141Y18891D01*
X369221Y19500D01*
D02*
G37*
G36*
X364500D02*
X360779D01*
X360859Y18891D01*
X361288Y17857D01*
X361969Y16969D01*
X362857Y16288D01*
X363891Y15859D01*
X364500Y15779D01*
Y19500D01*
D02*
G37*
G36*
X50000Y319337D02*
X48878Y319189D01*
X47831Y318756D01*
X46933Y318067D01*
X46244Y317169D01*
X45811Y316123D01*
X45663Y315000D01*
X45811Y313878D01*
X46244Y312831D01*
X46933Y311933D01*
X47655Y311379D01*
Y235000D01*
X47833Y234103D01*
X48342Y233342D01*
X56658Y225025D01*
X57419Y224517D01*
X58316Y224338D01*
X218345D01*
X220655Y222029D01*
Y23971D01*
X211529Y14845D01*
X203012D01*
X202595Y15389D01*
X201749Y16038D01*
X200764Y16446D01*
X199706Y16585D01*
X198649Y16446D01*
X197664Y16038D01*
X196818Y15389D01*
X196169Y14543D01*
X195761Y13557D01*
X195622Y12500D01*
X195761Y11443D01*
X196169Y10458D01*
X196818Y9612D01*
X197664Y8962D01*
X198649Y8554D01*
X198529Y8090D01*
X190884D01*
X190764Y8554D01*
X191749Y8962D01*
X192595Y9612D01*
X193244Y10458D01*
X193652Y11443D01*
X193791Y12500D01*
X193652Y13557D01*
X193566Y13765D01*
X197835Y18033D01*
X211000D01*
X211702Y18173D01*
X212298Y18571D01*
X216298Y22571D01*
X216696Y23166D01*
X216835Y23868D01*
Y39000D01*
Y90000D01*
X216696Y90702D01*
X216298Y91298D01*
X210298Y97298D01*
X209702Y97696D01*
X209000Y97835D01*
X176000D01*
X175298Y97696D01*
X174702Y97298D01*
X169659Y92254D01*
X169261Y91659D01*
X169121Y90957D01*
Y89221D01*
X168877Y89189D01*
X167831Y88756D01*
X166933Y88067D01*
X166244Y87169D01*
X165811Y86123D01*
X165663Y85000D01*
X165811Y83877D01*
X166244Y82831D01*
X166933Y81933D01*
X167831Y81244D01*
X168877Y80811D01*
X170000Y80663D01*
X171123Y80811D01*
X172169Y81244D01*
X173067Y81933D01*
X173756Y82831D01*
X174189Y83877D01*
X174337Y85000D01*
X174189Y86123D01*
X173756Y87169D01*
X173067Y88067D01*
X172792Y88278D01*
Y90197D01*
X176760Y94165D01*
X192919D01*
X192979Y94081D01*
X192858Y93402D01*
X192702Y93298D01*
X189659Y90254D01*
X189261Y89659D01*
X189175Y89229D01*
X188877Y89189D01*
X187831Y88756D01*
X186933Y88067D01*
X186244Y87169D01*
X185811Y86123D01*
X185663Y85000D01*
X185811Y83877D01*
X186244Y82831D01*
X186933Y81933D01*
X187831Y81244D01*
X188877Y80811D01*
X190000Y80663D01*
X191122Y80811D01*
X192169Y81244D01*
X193067Y81933D01*
X193756Y82831D01*
X194189Y83877D01*
X194337Y85000D01*
X194189Y86123D01*
X193756Y87169D01*
X193067Y88067D01*
X193042Y88446D01*
X194760Y90165D01*
X205240D01*
X209165Y86240D01*
Y83581D01*
X209082Y83521D01*
X208402Y83642D01*
X208298Y83798D01*
X206144Y85952D01*
X205549Y86349D01*
X204846Y86489D01*
X204037D01*
X203756Y87169D01*
X203067Y88067D01*
X202169Y88756D01*
X201122Y89189D01*
X200000Y89337D01*
X198878Y89189D01*
X197831Y88756D01*
X196933Y88067D01*
X196244Y87169D01*
X195811Y86123D01*
X195663Y85000D01*
X195811Y83877D01*
X196244Y82831D01*
X196933Y81933D01*
X197831Y81244D01*
X198878Y80811D01*
X200000Y80663D01*
X201122Y80811D01*
X202169Y81244D01*
X203067Y81933D01*
X203642Y82683D01*
X204195Y82709D01*
X205165Y81740D01*
Y59760D01*
X202240Y56835D01*
X165000D01*
X164298Y56696D01*
X163702Y56298D01*
X158409Y51004D01*
X158011Y50409D01*
X157871Y49707D01*
Y16124D01*
X157664Y16038D01*
X156818Y15389D01*
X156169Y14543D01*
X155761Y13557D01*
X155622Y12500D01*
X155761Y11443D01*
X156169Y10458D01*
X156818Y9612D01*
X157664Y8962D01*
X158649Y8554D01*
X158529Y8090D01*
X154095D01*
X153756Y8450D01*
X153756Y8590D01*
Y16550D01*
X145657D01*
Y8590D01*
X145656Y8450D01*
X145318Y8090D01*
X124866D01*
X122090Y10866D01*
Y55444D01*
X122354Y55646D01*
X122882Y56336D01*
X123215Y57139D01*
X123328Y58000D01*
X123215Y58862D01*
X122882Y59664D01*
X122354Y60354D01*
X121664Y60883D01*
X120861Y61215D01*
X120000Y61329D01*
X119139Y61215D01*
X118336Y60883D01*
X117646Y60354D01*
X117118Y59664D01*
X116785Y58862D01*
X116672Y58000D01*
X116785Y57139D01*
X117118Y56336D01*
X117646Y55646D01*
X117910Y55444D01*
Y10000D01*
X117910Y10000D01*
X118069Y9200D01*
X118522Y8522D01*
X122522Y4522D01*
X122522Y4522D01*
X123200Y4069D01*
X124000Y3910D01*
X349000D01*
X349000Y3910D01*
X349800Y4069D01*
X350478Y4522D01*
X356478Y10522D01*
X356931Y11200D01*
X357090Y12000D01*
Y16499D01*
X357889Y17111D01*
X358538Y17957D01*
X358946Y18943D01*
X359085Y20000D01*
X358946Y21057D01*
X358538Y22042D01*
X357889Y22888D01*
X357043Y23538D01*
X356057Y23946D01*
X355000Y24085D01*
X353943Y23946D01*
X352958Y23538D01*
X352112Y22888D01*
X351462Y22042D01*
X351054Y21057D01*
X350915Y20000D01*
X351054Y18943D01*
X351462Y17957D01*
X352112Y17111D01*
X352910Y16499D01*
Y12866D01*
X348134Y8090D01*
X200884D01*
X200764Y8554D01*
X201749Y8962D01*
X202595Y9612D01*
X203012Y10155D01*
X212500D01*
X213397Y10334D01*
X214158Y10842D01*
X224658Y21342D01*
X225167Y22103D01*
X225345Y23000D01*
Y73894D01*
X225845Y73993D01*
X226117Y73336D01*
X226646Y72646D01*
X227336Y72117D01*
X228138Y71785D01*
X229000Y71671D01*
X229861Y71785D01*
X230664Y72117D01*
X231354Y72646D01*
X231883Y73336D01*
X232215Y74138D01*
X232329Y75000D01*
X232215Y75862D01*
X231883Y76664D01*
X231354Y77354D01*
X230835Y77751D01*
Y163249D01*
X231354Y163646D01*
X231883Y164336D01*
X232215Y165138D01*
X232329Y166000D01*
X232215Y166861D01*
X231883Y167664D01*
X231354Y168354D01*
X230664Y168883D01*
X229861Y169215D01*
X229000Y169328D01*
X228138Y169215D01*
X227336Y168883D01*
X226646Y168354D01*
X226117Y167664D01*
X225845Y167007D01*
X225345Y167106D01*
Y223000D01*
X225167Y223897D01*
X224658Y224658D01*
X220975Y228342D01*
X220214Y228850D01*
X219317Y229029D01*
X59288D01*
X52345Y235971D01*
Y311379D01*
X53067Y311933D01*
X53756Y312831D01*
X54189Y313878D01*
X54337Y315000D01*
X54189Y316123D01*
X53756Y317169D01*
X53067Y318067D01*
X52169Y318756D01*
X51122Y319189D01*
X50000Y319337D01*
D02*
G37*
G36*
X255000Y123328D02*
X254138Y123215D01*
X253336Y122882D01*
X252646Y122354D01*
X252117Y121664D01*
X251785Y120861D01*
X251672Y120000D01*
Y22315D01*
X251462Y22042D01*
X251054Y21057D01*
X250915Y20000D01*
X251054Y18943D01*
X251462Y17957D01*
X251958Y17311D01*
Y16713D01*
X252072Y15852D01*
X252267Y15381D01*
X252404Y15049D01*
X252933Y14359D01*
X257646Y9646D01*
X258336Y9117D01*
X259138Y8785D01*
X260000Y8671D01*
X329569D01*
X330431Y8785D01*
X330901Y8980D01*
X331234Y9117D01*
X331923Y9646D01*
X337067Y14790D01*
X337596Y15480D01*
X337733Y15812D01*
X337928Y16282D01*
X338041Y17144D01*
Y17311D01*
X338538Y17957D01*
X338946Y18943D01*
X339085Y20000D01*
X338946Y21057D01*
X338538Y22042D01*
X337889Y22888D01*
X337042Y23538D01*
X336057Y23946D01*
X335000Y24085D01*
X333943Y23946D01*
X332958Y23538D01*
X332112Y22888D01*
X331462Y22042D01*
X331054Y21057D01*
X330915Y20000D01*
X331054Y18943D01*
X331274Y18412D01*
X329512Y16650D01*
X329050Y16841D01*
Y24050D01*
X320950D01*
Y15950D01*
X327696D01*
X327959Y15450D01*
X327875Y15328D01*
X285908D01*
X285875Y15829D01*
X286109Y15859D01*
X287143Y16288D01*
X288031Y16969D01*
X288712Y17857D01*
X289141Y18891D01*
X289221Y19500D01*
X280779D01*
X280859Y18891D01*
X281288Y17857D01*
X281969Y16969D01*
X282857Y16288D01*
X283891Y15859D01*
X284125Y15829D01*
X284092Y15328D01*
X261379D01*
X258615Y18092D01*
Y18145D01*
X258946Y18943D01*
X259085Y20000D01*
X258946Y21057D01*
X258538Y22042D01*
X258329Y22315D01*
Y120000D01*
X258215Y120861D01*
X257882Y121664D01*
X257354Y122354D01*
X256664Y122882D01*
X255861Y123215D01*
X255000Y123328D01*
D02*
G37*
G36*
X575000Y41335D02*
X572868Y41195D01*
X570772Y40778D01*
X568749Y40091D01*
X566832Y39147D01*
X565056Y37959D01*
X563449Y36551D01*
X562041Y34944D01*
X560853Y33167D01*
X559908Y31251D01*
X559222Y29228D01*
X558805Y27132D01*
X558665Y25000D01*
X558805Y22868D01*
X559222Y20772D01*
X559908Y18749D01*
X560853Y16833D01*
X562041Y15056D01*
X563449Y13449D01*
X565056Y12041D01*
X566832Y10853D01*
X568749Y9909D01*
X570772Y9222D01*
X572868Y8805D01*
X575000Y8665D01*
X577132Y8805D01*
X579228Y9222D01*
X581251Y9909D01*
X583168Y10853D01*
X584944Y12041D01*
X586551Y13449D01*
X587959Y15056D01*
X589147Y16833D01*
X590092Y18749D01*
X590778Y20772D01*
X591195Y22868D01*
X591335Y25000D01*
X591195Y27132D01*
X590778Y29228D01*
X590092Y31251D01*
X589147Y33167D01*
X587959Y34944D01*
X586551Y36551D01*
X584944Y37959D01*
X583168Y39147D01*
X581251Y40091D01*
X579228Y40778D01*
X577132Y41195D01*
X575000Y41335D01*
D02*
G37*
G36*
X25000D02*
X22868Y41195D01*
X20772Y40778D01*
X18749Y40091D01*
X16833Y39147D01*
X15056Y37959D01*
X13449Y36551D01*
X12041Y34944D01*
X10853Y33167D01*
X9909Y31251D01*
X9222Y29228D01*
X8805Y27132D01*
X8665Y25000D01*
X8805Y22868D01*
X9222Y20772D01*
X9909Y18749D01*
X10853Y16833D01*
X12041Y15056D01*
X13449Y13449D01*
X15056Y12041D01*
X16833Y10853D01*
X18749Y9909D01*
X20772Y9222D01*
X22868Y8805D01*
X25000Y8665D01*
X27132Y8805D01*
X29228Y9222D01*
X31251Y9909D01*
X33167Y10853D01*
X34944Y12041D01*
X36551Y13449D01*
X37959Y15056D01*
X39147Y16833D01*
X40091Y18749D01*
X40778Y20772D01*
X41195Y22868D01*
X41335Y25000D01*
X41195Y27132D01*
X40778Y29228D01*
X40091Y31251D01*
X39147Y33167D01*
X37959Y34944D01*
X36551Y36551D01*
X34944Y37959D01*
X33167Y39147D01*
X31251Y40091D01*
X29228Y40778D01*
X27132Y41195D01*
X25000Y41335D01*
D02*
G37*
%LPD*%
G36*
X293265Y370429D02*
Y364861D01*
X288798Y360393D01*
X287912D01*
X287666Y360893D01*
X287896Y361194D01*
X288229Y361997D01*
X288342Y362858D01*
X288229Y363719D01*
X287896Y364522D01*
X287367Y365212D01*
X287141Y365385D01*
X287230Y365877D01*
X287761Y366038D01*
X289550Y366995D01*
X291119Y368282D01*
X292406Y369850D01*
X292780Y370550D01*
X293265Y370429D01*
D02*
G37*
G36*
X304165Y272240D02*
Y265081D01*
X304082Y265021D01*
X303402Y265142D01*
X303298Y265298D01*
X300423Y268172D01*
X300532Y269000D01*
X300419Y269862D01*
X300086Y270664D01*
X299557Y271354D01*
X298868Y271883D01*
X298065Y272215D01*
X297204Y272328D01*
X296342Y272215D01*
X295540Y271883D01*
X294850Y271354D01*
X294321Y270664D01*
X293989Y269862D01*
X293875Y269000D01*
X293989Y268139D01*
X294321Y267336D01*
X294850Y266646D01*
X295540Y266118D01*
X296342Y265785D01*
X297204Y265671D01*
X297672Y265733D01*
X300165Y263240D01*
X300165Y112138D01*
X299665Y111931D01*
X297835Y113760D01*
Y256249D01*
X298354Y256646D01*
X298883Y257336D01*
X299215Y258138D01*
X299328Y259000D01*
X299215Y259861D01*
X298883Y260664D01*
X298354Y261354D01*
X297664Y261882D01*
X296862Y262215D01*
X296000Y262329D01*
X295139Y262215D01*
X294336Y261882D01*
X293646Y261354D01*
X293117Y260664D01*
X292785Y259861D01*
X292671Y259000D01*
X292785Y258138D01*
X293117Y257336D01*
X293646Y256646D01*
X294165Y256249D01*
Y252654D01*
X293665Y252580D01*
X293362Y253577D01*
X292406Y255366D01*
X291119Y256934D01*
X289550Y258222D01*
X287761Y259178D01*
X285820Y259767D01*
X283800Y259966D01*
X281781Y259767D01*
X279840Y259178D01*
X278050Y258222D01*
X276482Y256934D01*
X275195Y255366D01*
X274335Y253758D01*
X273835Y253883D01*
Y264000D01*
X273696Y264702D01*
X273298Y265298D01*
X267298Y271298D01*
X266702Y271696D01*
X266000Y271835D01*
X132751D01*
X132354Y272354D01*
X131948Y272665D01*
X132118Y273165D01*
X303240D01*
X304165Y272240D01*
D02*
G37*
G36*
X320165Y341240D02*
Y261751D01*
X319646Y261354D01*
X319335Y260948D01*
X318835Y261118D01*
Y337000D01*
X318696Y337702D01*
X318298Y338298D01*
X310298Y346298D01*
X309702Y346696D01*
X309000Y346835D01*
X287118D01*
X286948Y347335D01*
X287354Y347646D01*
X287752Y348165D01*
X313239D01*
X320165Y341240D01*
D02*
G37*
G36*
X325165Y342240D02*
Y261118D01*
X324665Y260948D01*
X324354Y261354D01*
X323835Y261751D01*
Y342000D01*
X323696Y342702D01*
X323298Y343298D01*
X315297Y351298D01*
X314702Y351696D01*
X314000Y351836D01*
X304118D01*
X303949Y352336D01*
X304354Y352646D01*
X304751Y353165D01*
X314240D01*
X325165Y342240D01*
D02*
G37*
G36*
X294165Y246578D02*
Y113000D01*
X294304Y112298D01*
X294702Y111702D01*
X296377Y110027D01*
X296131Y109566D01*
X295814Y109629D01*
X289121D01*
X288542Y109514D01*
X275760D01*
X273835Y111439D01*
Y245349D01*
X274335Y245474D01*
X275195Y243866D01*
X276482Y242298D01*
X278050Y241010D01*
X279840Y240054D01*
X281781Y239465D01*
X283800Y239266D01*
X285820Y239465D01*
X287761Y240054D01*
X289550Y241010D01*
X291119Y242298D01*
X292406Y243866D01*
X293362Y245655D01*
X293665Y246652D01*
X294165Y246578D01*
D02*
G37*
G36*
X323023Y101381D02*
X323619Y100983D01*
X323900Y100927D01*
X324175Y100743D01*
X324948Y100590D01*
X331641D01*
X331835Y100628D01*
X332046Y100161D01*
X331646Y99854D01*
X331474Y99629D01*
X324948D01*
X324175Y99476D01*
X323520Y99038D01*
X323082Y98383D01*
X322928Y97610D01*
X323082Y96837D01*
X323520Y96181D01*
X324175Y95743D01*
X324948Y95590D01*
X327082D01*
X327114Y95569D01*
X327913Y95410D01*
X330985D01*
X331034Y95333D01*
X330758Y94833D01*
X328795D01*
Y92610D01*
Y90386D01*
X331641D01*
X331682Y90394D01*
X331734Y90323D01*
X331711Y90200D01*
X331475Y89833D01*
X328795D01*
Y87610D01*
Y85386D01*
X331641D01*
X332492Y85555D01*
X332656Y85665D01*
X333165D01*
Y84816D01*
X332665Y84549D01*
X332492Y84664D01*
X331641Y84833D01*
X328795D01*
Y82610D01*
Y80386D01*
X331641D01*
X332045Y80466D01*
X332289Y80005D01*
X332057Y79751D01*
X331641Y79833D01*
X328795D01*
Y77610D01*
Y75386D01*
X331361D01*
X331578Y74910D01*
X331332Y74629D01*
X324948D01*
X324175Y74476D01*
X323520Y74038D01*
X323082Y73383D01*
X322928Y72610D01*
X323082Y71837D01*
X323520Y71181D01*
X324175Y70743D01*
X324948Y70590D01*
X327082D01*
X327114Y70569D01*
X327913Y70410D01*
X331330D01*
X331435Y70313D01*
X331589Y70092D01*
X331372Y69630D01*
X324948D01*
X324175Y69476D01*
X323965Y69335D01*
X316932D01*
X315835Y70432D01*
Y107916D01*
X316297Y108107D01*
X323023Y101381D01*
D02*
G37*
%LPC*%
G36*
X327795Y94833D02*
X324948D01*
X324097Y94664D01*
X323376Y94182D01*
X322894Y93461D01*
X322824Y93110D01*
X327795D01*
Y94833D01*
D02*
G37*
G36*
Y92110D02*
X322824D01*
X322894Y91759D01*
X323376Y91037D01*
X324097Y90555D01*
X324948Y90386D01*
X327795D01*
Y92110D01*
D02*
G37*
G36*
Y89833D02*
X324948D01*
X324097Y89664D01*
X323376Y89182D01*
X322894Y88461D01*
X322824Y88110D01*
X327795D01*
Y89833D01*
D02*
G37*
G36*
Y87110D02*
X322824D01*
X322894Y86759D01*
X323376Y86037D01*
X324097Y85555D01*
X324948Y85386D01*
X327795D01*
Y87110D01*
D02*
G37*
G36*
Y84833D02*
X324948D01*
X324097Y84664D01*
X323376Y84182D01*
X322894Y83461D01*
X322824Y83110D01*
X327795D01*
Y84833D01*
D02*
G37*
G36*
Y82110D02*
X322824D01*
X322894Y81759D01*
X323376Y81037D01*
X324097Y80555D01*
X324948Y80386D01*
X327795D01*
Y82110D01*
D02*
G37*
G36*
Y79833D02*
X324948D01*
X324097Y79664D01*
X323376Y79182D01*
X322894Y78461D01*
X322824Y78110D01*
X327795D01*
Y79833D01*
D02*
G37*
G36*
Y77110D02*
X322824D01*
X322894Y76759D01*
X323376Y76037D01*
X324097Y75555D01*
X324948Y75386D01*
X327795D01*
Y77110D01*
D02*
G37*
%LPD*%
G36*
X577142Y388524D02*
X579231Y388022D01*
X581216Y387200D01*
X583048Y386077D01*
X584682Y384682D01*
X586077Y383048D01*
X587200Y381216D01*
X588022Y379231D01*
X588524Y377142D01*
X588692Y375000D01*
X588524Y372858D01*
X588022Y370769D01*
X587200Y368784D01*
X586077Y366952D01*
X584682Y365318D01*
X583048Y363923D01*
X581216Y362800D01*
X579231Y361978D01*
X577142Y361476D01*
X575000Y361308D01*
X572858Y361476D01*
X570769Y361978D01*
X568784Y362800D01*
X566952Y363923D01*
X565318Y365318D01*
X563923Y366952D01*
X562800Y368784D01*
X561978Y370769D01*
X561476Y372858D01*
X561308Y375000D01*
X561476Y377142D01*
X561978Y379231D01*
X562800Y381216D01*
X563923Y383048D01*
X565318Y384682D01*
X566952Y386077D01*
X568784Y387200D01*
X570769Y388022D01*
X572858Y388524D01*
X575000Y388692D01*
X577142Y388524D01*
D02*
G37*
%LPC*%
G36*
X575000Y384847D02*
X573079Y384658D01*
X571232Y384098D01*
X569529Y383188D01*
X568037Y381963D01*
X566812Y380471D01*
X565902Y378768D01*
X565342Y376921D01*
X565153Y375000D01*
X565342Y373079D01*
X565902Y371232D01*
X566812Y369529D01*
X568037Y368037D01*
X569529Y366812D01*
X571232Y365902D01*
X573079Y365342D01*
X575000Y365153D01*
X576921Y365342D01*
X578768Y365902D01*
X580471Y366812D01*
X581963Y368037D01*
X583188Y369529D01*
X584098Y371232D01*
X584658Y373079D01*
X584847Y375000D01*
X584658Y376921D01*
X584098Y378768D01*
X583188Y380471D01*
X581963Y381963D01*
X580471Y383188D01*
X578768Y384098D01*
X576921Y384658D01*
X575000Y384847D01*
D02*
G37*
%LPD*%
G36*
X27142Y388524D02*
X29231Y388022D01*
X31216Y387200D01*
X33048Y386077D01*
X34682Y384682D01*
X36077Y383048D01*
X37200Y381216D01*
X38022Y379231D01*
X38524Y377142D01*
X38692Y375000D01*
X38524Y372858D01*
X38022Y370769D01*
X37200Y368784D01*
X36077Y366952D01*
X34682Y365318D01*
X33048Y363923D01*
X31216Y362800D01*
X29231Y361978D01*
X27142Y361476D01*
X25000Y361308D01*
X22858Y361476D01*
X20769Y361978D01*
X18784Y362800D01*
X16952Y363923D01*
X15318Y365318D01*
X13923Y366952D01*
X12800Y368784D01*
X11978Y370769D01*
X11476Y372858D01*
X11308Y375000D01*
X11476Y377142D01*
X11978Y379231D01*
X12800Y381216D01*
X13923Y383048D01*
X15318Y384682D01*
X16952Y386077D01*
X18784Y387200D01*
X20769Y388022D01*
X22858Y388524D01*
X25000Y388692D01*
X27142Y388524D01*
D02*
G37*
%LPC*%
G36*
X25000Y384847D02*
X23079Y384658D01*
X21232Y384098D01*
X19529Y383188D01*
X18037Y381963D01*
X16812Y380471D01*
X15902Y378768D01*
X15342Y376921D01*
X15153Y375000D01*
X15342Y373079D01*
X15902Y371232D01*
X16812Y369529D01*
X18037Y368037D01*
X19529Y366812D01*
X21232Y365902D01*
X23079Y365342D01*
X25000Y365153D01*
X26921Y365342D01*
X28768Y365902D01*
X30471Y366812D01*
X31963Y368037D01*
X33188Y369529D01*
X34098Y371232D01*
X34658Y373079D01*
X34847Y375000D01*
X34658Y376921D01*
X34098Y378768D01*
X33188Y380471D01*
X31963Y381963D01*
X30471Y383188D01*
X28768Y384098D01*
X26921Y384658D01*
X25000Y384847D01*
D02*
G37*
%LPD*%
G36*
X522444Y140045D02*
Y139393D01*
X522113Y138897D01*
X521935Y138000D01*
Y127329D01*
X513591D01*
Y127950D01*
X513778Y128372D01*
X514272Y128702D01*
X515443Y129874D01*
X515841Y130469D01*
X515981Y131172D01*
Y139903D01*
X516481Y140072D01*
X516808Y139646D01*
X517497Y139118D01*
X518300Y138785D01*
X519161Y138672D01*
X520023Y138785D01*
X520826Y139118D01*
X521515Y139646D01*
X521944Y140206D01*
X522444Y140045D01*
D02*
G37*
G36*
X226117Y164336D02*
X226646Y163646D01*
X227165Y163249D01*
Y77751D01*
X226646Y77354D01*
X226117Y76664D01*
X225845Y76007D01*
X225345Y76106D01*
Y164894D01*
X225845Y164993D01*
X226117Y164336D01*
D02*
G37*
G36*
X213165Y52919D02*
Y39000D01*
Y24629D01*
X210240Y21703D01*
X197075D01*
X196372Y21564D01*
X195777Y21166D01*
X190971Y16360D01*
X190764Y16446D01*
X189707Y16585D01*
X188649Y16446D01*
X187664Y16038D01*
X186818Y15389D01*
X186169Y14543D01*
X185761Y13557D01*
X185622Y12500D01*
X185761Y11443D01*
X186169Y10458D01*
X186818Y9612D01*
X187664Y8962D01*
X188649Y8554D01*
X188529Y8090D01*
X180884D01*
X180764Y8554D01*
X181749Y8962D01*
X182595Y9612D01*
X183244Y10458D01*
X183652Y11443D01*
X183791Y12500D01*
X183652Y13557D01*
X183566Y13765D01*
X191298Y21496D01*
X191696Y22091D01*
X191835Y22794D01*
Y41249D01*
X192354Y41646D01*
X192883Y42336D01*
X193215Y43139D01*
X193328Y44000D01*
X193215Y44862D01*
X192883Y45664D01*
X192354Y46354D01*
X191664Y46883D01*
X190861Y47215D01*
X190000Y47328D01*
X189138Y47215D01*
X188336Y46883D01*
X187646Y46354D01*
X187118Y45664D01*
X186785Y44862D01*
X186671Y44000D01*
X186785Y43139D01*
X187118Y42336D01*
X187646Y41646D01*
X188165Y41249D01*
Y23554D01*
X180971Y16360D01*
X180764Y16446D01*
X179707Y16585D01*
X178649Y16446D01*
X177664Y16038D01*
X176818Y15389D01*
X176169Y14543D01*
X175761Y13557D01*
X175621Y12500D01*
X175761Y11443D01*
X176169Y10458D01*
X176818Y9612D01*
X177664Y8962D01*
X178649Y8554D01*
X178529Y8090D01*
X170884D01*
X170764Y8554D01*
X171749Y8962D01*
X172595Y9612D01*
X173244Y10458D01*
X173652Y11443D01*
X173791Y12500D01*
X173652Y13557D01*
X173244Y14543D01*
X172595Y15389D01*
X171749Y16038D01*
X171542Y16124D01*
Y45946D01*
X173760Y48165D01*
X207000D01*
X207702Y48304D01*
X208298Y48702D01*
X212298Y52702D01*
X212402Y52858D01*
X213082Y52979D01*
X213165Y52919D01*
D02*
G37*
G36*
X209165Y57919D02*
Y54760D01*
X206240Y51835D01*
X173000D01*
X172298Y51696D01*
X171702Y51298D01*
X168409Y48004D01*
X168011Y47409D01*
X167871Y46707D01*
Y16124D01*
X167664Y16038D01*
X166818Y15389D01*
X166169Y14543D01*
X165761Y13557D01*
X165621Y12500D01*
X165761Y11443D01*
X166169Y10458D01*
X166818Y9612D01*
X167664Y8962D01*
X168649Y8554D01*
X168529Y8090D01*
X160884D01*
X160764Y8554D01*
X161749Y8962D01*
X162595Y9612D01*
X163244Y10458D01*
X163652Y11443D01*
X163791Y12500D01*
X163652Y13557D01*
X163244Y14543D01*
X162595Y15389D01*
X161749Y16038D01*
X161542Y16124D01*
Y48946D01*
X165760Y53165D01*
X203000D01*
X203702Y53304D01*
X204298Y53702D01*
X208298Y57702D01*
X208402Y57858D01*
X209082Y57979D01*
X209165Y57919D01*
D02*
G37*
G36*
X577142Y38524D02*
X579231Y38022D01*
X581216Y37200D01*
X583048Y36077D01*
X584682Y34682D01*
X586077Y33048D01*
X587200Y31216D01*
X588022Y29231D01*
X588524Y27142D01*
X588692Y25000D01*
X588524Y22858D01*
X588022Y20769D01*
X587200Y18784D01*
X586077Y16952D01*
X584682Y15318D01*
X583048Y13923D01*
X581216Y12800D01*
X579231Y11978D01*
X577142Y11476D01*
X575000Y11308D01*
X572858Y11476D01*
X570769Y11978D01*
X568784Y12800D01*
X566952Y13923D01*
X565318Y15318D01*
X563923Y16952D01*
X562800Y18784D01*
X561978Y20769D01*
X561476Y22858D01*
X561308Y25000D01*
X561476Y27142D01*
X561978Y29231D01*
X562800Y31216D01*
X563923Y33048D01*
X565318Y34682D01*
X566952Y36077D01*
X568784Y37200D01*
X570769Y38022D01*
X572858Y38524D01*
X575000Y38692D01*
X577142Y38524D01*
D02*
G37*
%LPC*%
G36*
X575000Y34847D02*
X573079Y34658D01*
X571232Y34098D01*
X569529Y33188D01*
X568037Y31963D01*
X566812Y30471D01*
X565902Y28768D01*
X565342Y26921D01*
X565153Y25000D01*
X565342Y23079D01*
X565902Y21232D01*
X566812Y19529D01*
X568037Y18037D01*
X569529Y16812D01*
X571232Y15902D01*
X573079Y15342D01*
X575000Y15153D01*
X576921Y15342D01*
X578768Y15902D01*
X580471Y16812D01*
X581963Y18037D01*
X583188Y19529D01*
X584098Y21232D01*
X584658Y23079D01*
X584847Y25000D01*
X584658Y26921D01*
X584098Y28768D01*
X583188Y30471D01*
X581963Y31963D01*
X580471Y33188D01*
X578768Y34098D01*
X576921Y34658D01*
X575000Y34847D01*
D02*
G37*
%LPD*%
G36*
X27142Y38524D02*
X29231Y38022D01*
X31216Y37200D01*
X33048Y36077D01*
X34682Y34682D01*
X36077Y33048D01*
X37200Y31216D01*
X38022Y29231D01*
X38524Y27142D01*
X38692Y25000D01*
X38524Y22858D01*
X38022Y20769D01*
X37200Y18784D01*
X36077Y16952D01*
X34682Y15318D01*
X33048Y13923D01*
X31216Y12800D01*
X29231Y11978D01*
X27142Y11476D01*
X25000Y11308D01*
X22858Y11476D01*
X20769Y11978D01*
X18784Y12800D01*
X16952Y13923D01*
X15318Y15318D01*
X13923Y16952D01*
X12800Y18784D01*
X11978Y20769D01*
X11476Y22858D01*
X11308Y25000D01*
X11476Y27142D01*
X11978Y29231D01*
X12800Y31216D01*
X13923Y33048D01*
X15318Y34682D01*
X16952Y36077D01*
X18784Y37200D01*
X20769Y38022D01*
X22858Y38524D01*
X25000Y38692D01*
X27142Y38524D01*
D02*
G37*
%LPC*%
G36*
X25000Y34847D02*
X23079Y34658D01*
X21232Y34098D01*
X19529Y33188D01*
X18037Y31963D01*
X16812Y30471D01*
X15902Y28768D01*
X15342Y26921D01*
X15153Y25000D01*
X15342Y23079D01*
X15902Y21232D01*
X16812Y19529D01*
X18037Y18037D01*
X19529Y16812D01*
X21232Y15902D01*
X23079Y15342D01*
X25000Y15153D01*
X26921Y15342D01*
X28768Y15902D01*
X30471Y16812D01*
X31963Y18037D01*
X33188Y19529D01*
X34098Y21232D01*
X34658Y23079D01*
X34847Y25000D01*
X34658Y26921D01*
X34098Y28768D01*
X33188Y30471D01*
X31963Y31963D01*
X30471Y33188D01*
X28768Y34098D01*
X26921Y34658D01*
X25000Y34847D01*
D02*
G37*
%LPD*%
D39*
X562508Y305339D02*
D03*
Y311638D02*
D03*
Y308488D02*
D03*
Y299039D02*
D03*
Y302189D02*
D03*
D40*
X562409Y324728D02*
D03*
D41*
X579142D02*
D03*
Y285949D02*
D03*
D42*
X562409D02*
D03*
D43*
X472839Y130000D02*
D03*
X465161D02*
D03*
X490591Y272500D02*
D03*
X498268D02*
D03*
X474268D02*
D03*
X466590D02*
D03*
X533000Y207000D02*
D03*
X525323D02*
D03*
X502161Y124000D02*
D03*
X509839D02*
D03*
X375000Y121000D02*
D03*
X367323D02*
D03*
X521161Y280000D02*
D03*
X528839D02*
D03*
X441323Y314000D02*
D03*
X449000D02*
D03*
X424161Y121000D02*
D03*
X431839D02*
D03*
D44*
X473429Y178000D02*
D03*
X464571D02*
D03*
Y154071D02*
D03*
X473429D02*
D03*
D45*
X451000Y73594D02*
D03*
Y60405D02*
D03*
X536484Y69595D02*
D03*
Y82784D02*
D03*
D46*
X496823Y95189D02*
D03*
X514146D02*
D03*
X571661Y251000D02*
D03*
X554339D02*
D03*
X420178Y94000D02*
D03*
X437501D02*
D03*
D47*
X511484Y151795D02*
D03*
X514043D02*
D03*
X516602D02*
D03*
X519161D02*
D03*
X521721D02*
D03*
X524279D02*
D03*
X526839D02*
D03*
X529398D02*
D03*
X531957D02*
D03*
X534516D02*
D03*
X511484Y176205D02*
D03*
X514043D02*
D03*
X516602D02*
D03*
X519161D02*
D03*
X521721D02*
D03*
X524279D02*
D03*
X526839D02*
D03*
X529398D02*
D03*
X531957D02*
D03*
X534516D02*
D03*
D48*
X472496Y329000D02*
D03*
Y324000D02*
D03*
Y319000D02*
D03*
Y314000D02*
D03*
Y309000D02*
D03*
Y304000D02*
D03*
Y299000D02*
D03*
Y294000D02*
D03*
X491000Y329000D02*
D03*
Y324000D02*
D03*
Y319000D02*
D03*
Y314000D02*
D03*
Y309000D02*
D03*
Y304000D02*
D03*
Y299000D02*
D03*
Y294000D02*
D03*
D49*
X328295Y62610D02*
D03*
Y67610D02*
D03*
Y72610D02*
D03*
Y77610D02*
D03*
Y82610D02*
D03*
Y87610D02*
D03*
Y92610D02*
D03*
Y97610D02*
D03*
Y102610D02*
D03*
Y107610D02*
D03*
X292468Y62610D02*
D03*
Y67610D02*
D03*
Y72610D02*
D03*
Y77610D02*
D03*
Y82610D02*
D03*
Y87610D02*
D03*
Y92610D02*
D03*
Y97610D02*
D03*
Y102610D02*
D03*
Y107610D02*
D03*
D50*
X499701Y249616D02*
D03*
X462299D02*
D03*
D51*
X520979Y144146D02*
Y151775D01*
X519161Y142328D02*
X520979Y144146D01*
X519161Y142000D02*
Y142328D01*
X524279Y124000D02*
Y138000D01*
X212500Y12500D02*
X223000Y23000D01*
X219317Y226683D02*
X223000Y223000D01*
Y23000D02*
Y223000D01*
X58316Y226683D02*
X219317D01*
X199706Y12500D02*
X212500D01*
X50000Y235000D02*
X58316Y226683D01*
X50000Y235000D02*
Y315000D01*
D52*
X516602Y146602D02*
Y148000D01*
X514146Y144146D02*
X516602Y146602D01*
X514146Y131172D02*
Y144146D01*
X524279Y139000D02*
Y148000D01*
X472839Y130000D02*
X512974D01*
X514146Y131172D01*
X529398Y145682D02*
X530080Y145000D01*
X529398Y145682D02*
Y148000D01*
X518000Y177205D02*
Y180666D01*
X518696Y181362D01*
X322000Y259000D02*
Y342000D01*
X325000Y181812D02*
X327000Y183812D01*
Y343000D01*
X315000Y355000D02*
X327000Y343000D01*
X317000Y110000D02*
Y337000D01*
Y110000D02*
X324321Y102679D01*
X309000Y345000D02*
X317000Y337000D01*
X306000Y280000D02*
X310000Y276000D01*
Y68712D02*
Y276000D01*
Y68712D02*
X316212Y62500D01*
X314000Y69672D02*
X316172Y67500D01*
X306000Y342000D02*
X314000Y334000D01*
Y69672D02*
Y334000D01*
X180000Y102000D02*
Y178828D01*
X325000Y181000D02*
Y181812D01*
X332000Y305000D02*
Y372500D01*
X297204Y268796D02*
Y269000D01*
Y268796D02*
X302000Y264000D01*
X163796Y331796D02*
X296032D01*
X297204Y287000D02*
Y330625D01*
X296032Y331796D02*
X297204Y330625D01*
X292127Y67540D02*
X296140D01*
X296000Y113000D02*
Y259000D01*
Y113000D02*
X298795Y110205D01*
X292266Y102679D02*
X296679D01*
X285000Y350001D02*
X314000D01*
X322000Y342000D01*
X285000Y350000D02*
X285000Y350001D01*
X302000Y355000D02*
X315000D01*
X138000D02*
X294500D01*
X312000Y372500D01*
X146000Y345000D02*
X309000D01*
X140096Y339096D02*
X146000Y345000D01*
X493812Y156161D02*
X495650Y158000D01*
X493000Y156161D02*
X493812D01*
X495650Y158000D02*
X525000D01*
X493839Y166000D02*
X529079D01*
X481839Y178000D02*
X493839Y166000D01*
X473429Y178000D02*
X481839D01*
X473429Y154071D02*
X482071D01*
X490000Y162000D01*
X529000D01*
X360000Y196000D02*
X493000D01*
X362672Y190000D02*
X508000D01*
X509839Y188161D01*
X360000Y188000D02*
X360672D01*
X362672Y190000D01*
X484000Y184000D02*
X498000Y170000D01*
X455000Y184000D02*
X484000D01*
X508000Y212000D02*
X513000Y207000D01*
X360000Y212000D02*
X508000D01*
X20000Y215000D02*
X23000Y212000D01*
X215000D01*
X454975Y204000D02*
X455000Y203975D01*
X360000Y204000D02*
X454975D01*
X9000Y208000D02*
X21000Y196000D01*
X215000D01*
X163000Y188000D02*
X215000D01*
X160000Y185000D02*
X163000Y188000D01*
X181172Y180000D02*
X215000D01*
X180000Y178828D02*
X181172Y180000D01*
X338000Y166000D02*
Y328000D01*
X229000Y75000D02*
Y166000D01*
X280500Y87500D02*
X285000D01*
X287431Y92431D02*
X292017D01*
Y82569D02*
X292087Y82500D01*
X285000Y90000D02*
X287431Y92431D01*
X285000Y87500D02*
Y90000D01*
X292017Y92431D02*
X292087Y92500D01*
X327913Y82500D02*
X335000D01*
X341890D02*
X342000Y82610D01*
X335000Y82500D02*
X341890D01*
X311000Y29000D02*
X339306D01*
X306000Y34000D02*
X311000Y29000D01*
X306000Y34000D02*
Y273000D01*
X339306Y29000D02*
X344234Y24073D01*
X190000Y22794D02*
Y44000D01*
X204846Y84654D02*
X207000Y82500D01*
Y59000D02*
Y82500D01*
X203000Y55000D02*
X207000Y59000D01*
X106000Y65000D02*
X200000D01*
X368000Y320000D02*
X460000D01*
X353000Y160000D02*
Y305000D01*
X368000Y320000D01*
X234865Y65135D02*
Y159865D01*
X235000Y160000D01*
X234729Y65000D02*
X234865Y65135D01*
X115000Y305000D02*
X291000D01*
X358000Y319000D02*
X358050D01*
X363050Y324000D01*
X289558Y358558D02*
X295100Y364100D01*
X284872Y363000D02*
X285014Y362858D01*
X98000Y363000D02*
X284872D01*
X128558Y358558D02*
X289558D01*
X120000Y350000D02*
X128558Y358558D01*
X110126Y309874D02*
X115000Y305000D01*
X186000Y309000D02*
X281050D01*
X291000Y318950D01*
X304000Y275000D02*
X306000Y273000D01*
X125000Y280000D02*
X306000D01*
X107000Y275000D02*
X304000D01*
X120000Y285000D02*
X125000Y280000D01*
X130000Y270000D02*
X266000D01*
X180000Y315000D02*
X186000Y309000D01*
X100000Y282000D02*
X107000Y275000D01*
X160000Y85000D02*
Y185000D01*
X363050Y324000D02*
X472496D01*
X342000Y332000D02*
Y372500D01*
X338000Y328000D02*
X342000Y332000D01*
X266000Y270000D02*
X272000Y264000D01*
Y110679D02*
Y264000D01*
X486409Y336000D02*
X532000D01*
X482000Y307000D02*
Y331591D01*
X486409Y336000D01*
X484000Y340000D02*
X535000D01*
X478591Y310241D02*
Y334591D01*
X484000Y340000D01*
X536000Y306000D02*
Y332000D01*
X532000Y336000D02*
X536000Y332000D01*
X274139Y20861D02*
Y23861D01*
X268000Y30000D02*
X274139Y23861D01*
X268000Y30000D02*
Y236000D01*
X274139Y20861D02*
X275000Y20000D01*
X272000Y110679D02*
X275000Y107679D01*
X292399D01*
X190000Y85000D02*
X190957Y85957D01*
X194000Y92000D02*
X206000D01*
X190957Y88957D02*
X194000Y92000D01*
X190957Y85957D02*
Y88957D01*
X206000Y92000D02*
X211000Y87000D01*
X176000Y96000D02*
X209000D01*
X170957Y85957D02*
Y90957D01*
X176000Y96000D01*
X209000D02*
X215000Y90000D01*
X264000Y23422D02*
Y229000D01*
X260000Y233000D02*
X264000Y229000D01*
X90000Y233000D02*
X260000D01*
X96000Y239000D02*
X265000D01*
X268000Y236000D01*
X292399Y107679D02*
X292468Y107610D01*
X22000Y204000D02*
X215000D01*
X156000Y342000D02*
X306000D01*
X460000Y320000D02*
X461000Y319000D01*
X327873Y67540D02*
X327913Y67500D01*
X130000Y347000D02*
X138000Y355000D01*
X150096Y336096D02*
X156000Y342000D01*
X316172Y67500D02*
X324583D01*
X327734Y102679D02*
X327845Y102569D01*
X324321Y102679D02*
X327734D01*
X324623Y67540D02*
X327873D01*
X324583Y67500D02*
X324623Y67540D01*
X160957Y328957D02*
X163796Y331796D01*
X150096Y325096D02*
Y336096D01*
X140096Y325096D02*
Y339096D01*
X295100Y364100D02*
Y375929D01*
X90000Y355000D02*
X98000Y363000D01*
X160957Y325957D02*
Y328957D01*
X130000Y325000D02*
Y347000D01*
X264000Y23422D02*
X264139Y23283D01*
Y20861D02*
X265000Y20000D01*
X264139Y20861D02*
Y23283D01*
X13000Y213000D02*
X22000Y204000D01*
X529079Y166000D02*
X531957Y168877D01*
X513000Y181064D02*
Y207000D01*
Y181064D02*
X514064Y180000D01*
X509839Y177850D02*
X510426Y177263D01*
X509839Y177850D02*
Y188161D01*
X510000Y150118D02*
X511484Y151602D01*
Y151795D01*
X296140Y67540D02*
X296180Y67500D01*
X299788D02*
X302000Y69712D01*
X302000Y264000D02*
X302000Y69712D01*
X292087Y67500D02*
X292127Y67540D01*
X296180Y67500D02*
X299788D01*
X316212Y62500D02*
X327913D01*
X525000Y158000D02*
X526839Y156161D01*
X100000Y75000D02*
X100596Y74404D01*
Y70404D02*
X106000Y65000D01*
X100596Y70404D02*
Y74404D01*
X296679Y102679D02*
X298795Y104795D01*
X292156Y102569D02*
X292266Y102679D01*
X344234Y20766D02*
Y24073D01*
Y20766D02*
X345000Y20000D01*
X140000Y325000D02*
X140096Y325096D01*
X150000Y325000D02*
X150096Y325096D01*
X160000Y325000D02*
X160957Y325957D01*
X318000Y379000D02*
X321139Y375861D01*
X298172Y379000D02*
X318000D01*
X321139Y373361D02*
X322000Y372500D01*
X321139Y373361D02*
Y375861D01*
X170000Y85000D02*
X170957Y85957D01*
X169706Y12500D02*
Y46707D01*
X173000Y50000D02*
X207000D01*
X169706Y46707D02*
X173000Y50000D01*
X165000Y55000D02*
X203000D01*
X159706Y12500D02*
Y49707D01*
X165000Y55000D01*
X207000Y50000D02*
X211000Y54000D01*
Y87000D01*
X179707Y12500D02*
X190000Y22794D01*
X215000Y39000D02*
Y90000D01*
Y23868D02*
Y39000D01*
X211000Y19868D02*
X215000Y23868D01*
X197075Y19868D02*
X211000D01*
X189707Y12500D02*
X197075Y19868D01*
X120000Y325000D02*
Y350000D01*
X90000Y325000D02*
Y355000D01*
X535000Y340000D02*
X540000Y335000D01*
Y308339D02*
Y335000D01*
X9000Y327000D02*
X14000Y332000D01*
X9000Y208000D02*
Y327000D01*
X27000Y332000D02*
X29404Y329596D01*
X14000Y332000D02*
X27000D01*
X29404Y325596D02*
X30000Y325000D01*
X29404Y325596D02*
Y329596D01*
X100000Y282000D02*
Y315000D01*
X90000Y245000D02*
Y315000D01*
Y245000D02*
X96000Y239000D01*
X80000Y243000D02*
Y315000D01*
Y243000D02*
X90000Y233000D01*
X20000Y215000D02*
Y315000D01*
X13000Y213000D02*
Y322000D01*
X16000Y325000D01*
X511677Y151795D02*
X513516D01*
X529000Y162000D02*
X531957Y159043D01*
X526000Y170000D02*
X526839Y170839D01*
X498000Y170000D02*
X526000D01*
X335000Y87500D02*
Y90000D01*
Y82500D02*
Y87500D01*
X327913D02*
X335000D01*
Y80000D02*
Y82500D01*
X327913Y77500D02*
X327983Y77569D01*
X332569D01*
X335000Y80000D01*
X327913Y92500D02*
X327983Y92431D01*
X332569D01*
X335000Y90000D01*
X285000Y84000D02*
X286431Y82569D01*
X292017D01*
X285000Y84000D02*
Y87500D01*
X292087D01*
X291000Y318950D02*
Y319000D01*
X295100Y375929D02*
X298172Y379000D01*
X461000Y319000D02*
X472496D01*
X517000Y176205D02*
X519000D01*
X110000Y315000D02*
X110126Y314874D01*
Y309874D02*
Y314874D01*
X200346Y84654D02*
X204846D01*
X200000Y85000D02*
X200346Y84654D01*
X461000Y272568D02*
Y294220D01*
Y250915D02*
Y272568D01*
X461068Y272500D01*
X466590D01*
X461000Y250915D02*
X462299Y249616D01*
X461000Y294220D02*
X465779Y299000D01*
X472496D01*
X500866Y249616D02*
X504000Y252750D01*
Y272500D01*
X499701Y249616D02*
X500866D01*
X504000Y272500D02*
Y279000D01*
X498268Y272500D02*
X504000D01*
X490591Y282000D02*
X501000D01*
X504000Y279000D01*
X536000Y306000D02*
X539811Y302189D01*
X563847D01*
X479000Y304000D02*
X482000Y307000D01*
X472496Y304000D02*
X479000D01*
X543000Y305339D02*
X563847D01*
X540000Y308339D02*
X543000Y305339D01*
X477419Y309069D02*
X478591Y310241D01*
X472565Y309069D02*
X477419D01*
X472496Y309000D02*
X472565Y309069D01*
X472496Y294000D02*
X478591D01*
X490591Y282000D01*
X520000Y151795D02*
X521000D01*
X529398Y180000D02*
Y182398D01*
D53*
X516602Y148000D02*
Y151795D01*
X524279Y148000D02*
Y151795D01*
X531957Y168877D02*
Y176205D01*
X529398Y148000D02*
Y151795D01*
X514064Y176225D02*
Y180000D01*
X514043Y176205D02*
X514064Y176225D01*
X510426Y177263D02*
X511484Y176205D01*
X526839Y151795D02*
Y156161D01*
X298795Y104795D02*
Y110205D01*
X526839Y170839D02*
Y176205D01*
X531957Y151795D02*
Y159043D01*
D54*
X524279Y124000D02*
X530484D01*
X509839D02*
X524279D01*
X530080Y145000D02*
X532080Y143000D01*
X502000Y142118D02*
X510000Y150118D01*
X502000Y142000D02*
Y142118D01*
X519000Y197000D02*
Y203421D01*
Y181666D02*
Y197000D01*
Y203421D02*
X521929Y206350D01*
X524870D02*
X525323Y206803D01*
Y207000D01*
X521929Y206350D02*
X524870D01*
X346000Y142000D02*
X502000D01*
X230000Y22794D02*
Y22794D01*
X245000Y37793D01*
Y172000D01*
X346000Y120000D02*
Y142000D01*
X327728Y110000D02*
X351000D01*
X362000Y121000D01*
X367323D01*
X90000Y120000D02*
X150000D01*
X107000Y110000D02*
X150000D01*
X325000Y40000D02*
X338000Y53000D01*
Y69500D01*
X385000Y50000D02*
X431000D01*
X335000Y72500D02*
X338000Y69500D01*
X100000Y85000D02*
Y103000D01*
X107000Y110000D01*
X90000Y85000D02*
Y120000D01*
X72929D02*
X90000D01*
X70000Y85000D02*
Y117071D01*
X72929Y120000D01*
X255000Y20000D02*
Y120000D01*
X543000Y291000D02*
X549524Y297524D01*
X543000Y280000D02*
Y291000D01*
X549524Y297524D02*
X559496D01*
X437501Y56501D02*
Y94000D01*
X431000Y50000D02*
X437501Y56501D01*
X300000Y50000D02*
Y55786D01*
X294495Y61291D02*
X300000Y55786D01*
X346000Y142000D02*
Y325000D01*
X372000Y351000D01*
Y372500D01*
X536484Y169929D02*
Y175000D01*
Y169929D02*
X539413Y167000D01*
X578511D01*
X536484Y151795D02*
Y154071D01*
X539413Y157000D01*
X578511D01*
X282000Y37000D02*
X294713Y24287D01*
X282000Y37000D02*
Y69500D01*
X294713Y20287D02*
Y24287D01*
X329569Y12000D02*
X334713Y17144D01*
Y19713D02*
X335000Y20000D01*
X260000Y12000D02*
X329569D01*
X334713Y17144D02*
Y19713D01*
X255000Y20000D02*
X255287Y19713D01*
Y16713D02*
Y19713D01*
Y16713D02*
X260000Y12000D01*
X370500Y97500D02*
X375000Y93000D01*
X334000Y97500D02*
X370500D01*
X375000Y20000D02*
Y93000D01*
X285000Y72500D02*
X286000D01*
X282000Y69500D02*
X285000Y72500D01*
X294713Y20287D02*
X295000Y20000D01*
X523800Y330200D02*
X528839Y325161D01*
X492200Y330200D02*
X523800D01*
X334000Y72500D02*
X335000D01*
X532080Y143000D02*
X547000D01*
X551000Y147000D01*
X449000Y314000D02*
X468000D01*
X528839Y280000D02*
Y325161D01*
X543000Y256254D02*
Y280000D01*
X528839D02*
X543000D01*
Y256254D02*
X548205Y251049D01*
X554289D01*
X554339Y251000D01*
X529398Y182398D02*
X532000Y185000D01*
X547000D01*
X555000Y177000D01*
X578511D01*
X551000Y147000D02*
X578511D01*
X536484Y95189D02*
Y118000D01*
Y82784D02*
Y95189D01*
X530484Y124000D02*
X536484Y118000D01*
X451000Y94000D02*
Y112000D01*
X431839Y121000D02*
X442000D01*
X451000Y112000D01*
X514146Y95189D02*
X536484D01*
Y30000D02*
Y69595D01*
X522457Y26263D02*
X532747D01*
X521500Y25306D02*
X522457Y26263D01*
X532747D02*
X536484Y30000D01*
X437501Y94000D02*
X451000D01*
Y73594D02*
Y94000D01*
Y32320D02*
Y60405D01*
X445340Y26659D02*
X451000Y32320D01*
X445340Y25306D02*
Y26659D01*
D55*
X308000Y292000D02*
Y331000D01*
X302000Y337000D02*
X308000Y331000D01*
X332000Y172000D02*
Y292000D01*
X278000Y97500D02*
X286293D01*
X274000Y93500D02*
X278000Y97500D01*
X274000Y38000D02*
Y93500D01*
X170000Y337000D02*
X302000D01*
D56*
X286293Y97500D02*
X292087D01*
X120000Y10000D02*
Y58000D01*
X124000Y6000D02*
X349000D01*
X120000Y10000D02*
X124000Y6000D01*
X286000Y72500D02*
X292087D01*
X327913D02*
X334000D01*
X355000Y12000D02*
Y20000D01*
X349000Y6000D02*
X355000Y12000D01*
X327913Y97500D02*
X333000D01*
D57*
X302000Y372500D02*
D03*
X312000D02*
D03*
X322000D02*
D03*
X332000D02*
D03*
X342000D02*
D03*
X352000D02*
D03*
X362000D02*
D03*
X583000Y157000D02*
D03*
Y167000D02*
D03*
Y177000D02*
D03*
X295000Y20000D02*
D03*
X285000D02*
D03*
X275000D02*
D03*
X265000D02*
D03*
X255000D02*
D03*
X375000D02*
D03*
X365000D02*
D03*
X355000D02*
D03*
X345000D02*
D03*
X335000D02*
D03*
X199706Y12500D02*
D03*
X189707D02*
D03*
X179707D02*
D03*
X169706D02*
D03*
X159706D02*
D03*
D58*
X372000Y372500D02*
D03*
X245000Y20000D02*
D03*
X325000D02*
D03*
X149706Y12500D02*
D03*
D59*
X283800Y375600D02*
D03*
X388918D02*
D03*
Y249616D02*
D03*
X283800D02*
D03*
D60*
X571661Y314000D02*
D03*
Y296677D02*
D03*
D61*
X501500Y25306D02*
D03*
X425340D02*
D03*
D62*
X521500D02*
D03*
X445340D02*
D03*
D63*
X583000Y147000D02*
D03*
D64*
X200000Y325000D02*
D03*
Y315000D02*
D03*
X190000Y325000D02*
D03*
Y315000D02*
D03*
X180000Y325000D02*
D03*
Y315000D02*
D03*
X170000Y325000D02*
D03*
Y315000D02*
D03*
X160000Y325000D02*
D03*
Y315000D02*
D03*
X150000Y325000D02*
D03*
Y315000D02*
D03*
X140000Y325000D02*
D03*
Y315000D02*
D03*
X130000Y325000D02*
D03*
Y315000D02*
D03*
X120000Y325000D02*
D03*
Y315000D02*
D03*
X110000Y325000D02*
D03*
Y315000D02*
D03*
X100000Y325000D02*
D03*
Y315000D02*
D03*
X90000Y325000D02*
D03*
Y315000D02*
D03*
X80000Y325000D02*
D03*
Y315000D02*
D03*
X70000Y325000D02*
D03*
Y315000D02*
D03*
X60000Y325000D02*
D03*
Y315000D02*
D03*
X50000Y325000D02*
D03*
Y315000D02*
D03*
X40000Y325000D02*
D03*
Y315000D02*
D03*
X30000Y325000D02*
D03*
Y315000D02*
D03*
X20000Y325000D02*
D03*
X200000Y85000D02*
D03*
Y75000D02*
D03*
X190000Y85000D02*
D03*
Y75000D02*
D03*
X180000Y85000D02*
D03*
Y75000D02*
D03*
X170000Y85000D02*
D03*
Y75000D02*
D03*
X160000Y85000D02*
D03*
Y75000D02*
D03*
X150000Y85000D02*
D03*
Y75000D02*
D03*
X140000Y85000D02*
D03*
Y75000D02*
D03*
X130000Y85000D02*
D03*
Y75000D02*
D03*
X120000Y85000D02*
D03*
Y75000D02*
D03*
X110000Y85000D02*
D03*
Y75000D02*
D03*
X100000Y85000D02*
D03*
Y75000D02*
D03*
X90000Y85000D02*
D03*
Y75000D02*
D03*
X80000Y85000D02*
D03*
Y75000D02*
D03*
X70000Y85000D02*
D03*
Y75000D02*
D03*
X60000Y85000D02*
D03*
Y75000D02*
D03*
X50000Y85000D02*
D03*
Y75000D02*
D03*
X40000Y85000D02*
D03*
Y75000D02*
D03*
X30000Y85000D02*
D03*
Y75000D02*
D03*
X20000Y85000D02*
D03*
D65*
Y315000D02*
D03*
Y75000D02*
D03*
D66*
X590000Y360000D02*
D03*
X580000Y340000D02*
D03*
Y300000D02*
D03*
Y260000D02*
D03*
X590000Y240000D02*
D03*
X580000Y220000D02*
D03*
X590000Y200000D02*
D03*
Y120000D02*
D03*
X580000Y100000D02*
D03*
X590000Y80000D02*
D03*
X580000Y60000D02*
D03*
X590000Y40000D02*
D03*
X560000Y340000D02*
D03*
Y260000D02*
D03*
X570000Y240000D02*
D03*
X560000Y220000D02*
D03*
X570000Y200000D02*
D03*
X560000Y140000D02*
D03*
X570000Y120000D02*
D03*
X560000Y100000D02*
D03*
X570000Y80000D02*
D03*
X560000Y60000D02*
D03*
X540000Y380000D02*
D03*
X550000Y360000D02*
D03*
Y320000D02*
D03*
Y280000D02*
D03*
Y240000D02*
D03*
X540000Y220000D02*
D03*
X550000Y200000D02*
D03*
Y120000D02*
D03*
Y80000D02*
D03*
Y40000D02*
D03*
X540000Y20000D02*
D03*
X520000Y380000D02*
D03*
X530000Y360000D02*
D03*
X520000Y300000D02*
D03*
Y260000D02*
D03*
X530000Y240000D02*
D03*
X520000Y220000D02*
D03*
Y60000D02*
D03*
X530000Y40000D02*
D03*
X500000Y380000D02*
D03*
X510000Y360000D02*
D03*
Y320000D02*
D03*
X500000Y300000D02*
D03*
X510000Y280000D02*
D03*
Y240000D02*
D03*
X500000Y220000D02*
D03*
Y180000D02*
D03*
X510000Y80000D02*
D03*
X500000Y60000D02*
D03*
X510000Y40000D02*
D03*
X480000Y380000D02*
D03*
X490000Y360000D02*
D03*
X480000Y260000D02*
D03*
X490000Y240000D02*
D03*
X480000Y220000D02*
D03*
X490000Y120000D02*
D03*
X480000Y100000D02*
D03*
X490000Y80000D02*
D03*
X480000Y60000D02*
D03*
X490000Y40000D02*
D03*
X480000Y20000D02*
D03*
X460000Y380000D02*
D03*
X470000Y360000D02*
D03*
X460000Y340000D02*
D03*
Y300000D02*
D03*
X470000Y240000D02*
D03*
X460000Y220000D02*
D03*
X470000Y120000D02*
D03*
X460000Y100000D02*
D03*
X470000Y80000D02*
D03*
X460000Y60000D02*
D03*
X470000Y40000D02*
D03*
X460000Y20000D02*
D03*
X440000Y380000D02*
D03*
X450000Y360000D02*
D03*
X440000Y340000D02*
D03*
Y300000D02*
D03*
X450000Y280000D02*
D03*
X440000Y260000D02*
D03*
X450000Y240000D02*
D03*
X440000Y220000D02*
D03*
Y180000D02*
D03*
X450000Y160000D02*
D03*
X420000Y380000D02*
D03*
X430000Y360000D02*
D03*
X420000Y340000D02*
D03*
Y300000D02*
D03*
X430000Y280000D02*
D03*
X420000Y260000D02*
D03*
X430000Y240000D02*
D03*
X420000Y220000D02*
D03*
Y180000D02*
D03*
X430000Y160000D02*
D03*
Y80000D02*
D03*
X420000Y60000D02*
D03*
X430000Y40000D02*
D03*
X410000Y360000D02*
D03*
X400000Y340000D02*
D03*
Y300000D02*
D03*
X410000Y280000D02*
D03*
X400000Y260000D02*
D03*
X410000Y240000D02*
D03*
X400000Y220000D02*
D03*
Y180000D02*
D03*
X410000Y160000D02*
D03*
Y120000D02*
D03*
X400000Y100000D02*
D03*
X410000Y80000D02*
D03*
X400000Y60000D02*
D03*
X410000Y40000D02*
D03*
X400000Y20000D02*
D03*
X390000Y360000D02*
D03*
X380000Y340000D02*
D03*
Y300000D02*
D03*
X390000Y280000D02*
D03*
X380000Y260000D02*
D03*
Y220000D02*
D03*
Y180000D02*
D03*
X390000Y160000D02*
D03*
Y120000D02*
D03*
X380000Y100000D02*
D03*
X390000Y80000D02*
D03*
Y40000D02*
D03*
X360000Y380000D02*
D03*
Y300000D02*
D03*
X370000Y280000D02*
D03*
X360000Y260000D02*
D03*
X370000Y240000D02*
D03*
X360000Y220000D02*
D03*
Y180000D02*
D03*
X370000Y160000D02*
D03*
X360000Y60000D02*
D03*
X340000Y380000D02*
D03*
X350000Y360000D02*
D03*
X340000Y140000D02*
D03*
X350000Y80000D02*
D03*
Y40000D02*
D03*
X310000Y360000D02*
D03*
X280000Y300000D02*
D03*
Y220000D02*
D03*
Y140000D02*
D03*
X290000Y40000D02*
D03*
X260000Y380000D02*
D03*
X270000Y320000D02*
D03*
X260000Y300000D02*
D03*
Y260000D02*
D03*
X240000Y380000D02*
D03*
X250000Y320000D02*
D03*
X240000Y300000D02*
D03*
Y260000D02*
D03*
Y220000D02*
D03*
X220000Y380000D02*
D03*
X230000Y320000D02*
D03*
X220000Y300000D02*
D03*
Y260000D02*
D03*
X230000Y40000D02*
D03*
X200000Y380000D02*
D03*
X210000Y320000D02*
D03*
X200000Y300000D02*
D03*
Y260000D02*
D03*
Y220000D02*
D03*
X210000Y160000D02*
D03*
X200000Y140000D02*
D03*
X210000Y40000D02*
D03*
X180000Y380000D02*
D03*
Y300000D02*
D03*
Y260000D02*
D03*
Y220000D02*
D03*
X190000Y160000D02*
D03*
X180000Y60000D02*
D03*
X160000Y380000D02*
D03*
Y300000D02*
D03*
Y260000D02*
D03*
Y220000D02*
D03*
X170000Y160000D02*
D03*
X160000Y60000D02*
D03*
X140000Y380000D02*
D03*
Y300000D02*
D03*
Y260000D02*
D03*
Y220000D02*
D03*
Y180000D02*
D03*
X150000Y160000D02*
D03*
X140000Y140000D02*
D03*
Y100000D02*
D03*
Y60000D02*
D03*
X150000Y40000D02*
D03*
X140000Y20000D02*
D03*
X120000Y380000D02*
D03*
Y260000D02*
D03*
Y220000D02*
D03*
Y180000D02*
D03*
X130000Y160000D02*
D03*
X120000Y140000D02*
D03*
Y100000D02*
D03*
X130000Y40000D02*
D03*
X100000Y380000D02*
D03*
Y340000D02*
D03*
X110000Y280000D02*
D03*
X100000Y260000D02*
D03*
Y220000D02*
D03*
Y180000D02*
D03*
X110000Y160000D02*
D03*
X100000Y140000D02*
D03*
Y60000D02*
D03*
X110000Y40000D02*
D03*
X100000Y20000D02*
D03*
X80000Y380000D02*
D03*
Y340000D02*
D03*
Y220000D02*
D03*
Y180000D02*
D03*
X90000Y160000D02*
D03*
X80000Y140000D02*
D03*
Y100000D02*
D03*
Y60000D02*
D03*
X90000Y40000D02*
D03*
X80000Y20000D02*
D03*
X60000Y380000D02*
D03*
X70000Y360000D02*
D03*
X60000Y340000D02*
D03*
Y300000D02*
D03*
X70000Y280000D02*
D03*
X60000Y260000D02*
D03*
X70000Y240000D02*
D03*
X60000Y220000D02*
D03*
Y180000D02*
D03*
X70000Y160000D02*
D03*
X60000Y140000D02*
D03*
Y100000D02*
D03*
Y60000D02*
D03*
X70000Y40000D02*
D03*
X60000Y20000D02*
D03*
X50000Y360000D02*
D03*
X40000Y340000D02*
D03*
Y300000D02*
D03*
Y260000D02*
D03*
Y220000D02*
D03*
Y180000D02*
D03*
X50000Y160000D02*
D03*
X40000Y140000D02*
D03*
X50000Y120000D02*
D03*
X40000Y100000D02*
D03*
Y60000D02*
D03*
X50000Y40000D02*
D03*
X20000Y340000D02*
D03*
X30000Y280000D02*
D03*
Y240000D02*
D03*
X20000Y180000D02*
D03*
X30000Y160000D02*
D03*
X20000Y140000D02*
D03*
X30000Y120000D02*
D03*
X20000Y100000D02*
D03*
Y60000D02*
D03*
X519161Y142000D02*
D03*
X519000Y197000D02*
D03*
X502000Y142000D02*
D03*
X322000Y259000D02*
D03*
X308000Y292000D02*
D03*
X180000Y102000D02*
D03*
X332000Y305000D02*
D03*
Y292000D02*
D03*
X297204Y269000D02*
D03*
Y287000D02*
D03*
X296000Y259000D02*
D03*
X302000Y355000D02*
D03*
X230000Y22794D02*
D03*
X493000Y156161D02*
D03*
Y196000D02*
D03*
X455000Y184000D02*
D03*
X360000Y196000D02*
D03*
Y212000D02*
D03*
X215000D02*
D03*
X455000Y203975D02*
D03*
X360000Y204000D02*
D03*
X215000D02*
D03*
X360000Y188000D02*
D03*
X215000Y196000D02*
D03*
Y188000D02*
D03*
Y180000D02*
D03*
X325000Y181000D02*
D03*
X332000Y172000D02*
D03*
X245000D02*
D03*
X338000Y166000D02*
D03*
X229000D02*
D03*
X346000Y120000D02*
D03*
X274000Y38000D02*
D03*
X280500Y87500D02*
D03*
X342000Y82610D02*
D03*
X351000Y110000D02*
D03*
X255000Y120000D02*
D03*
X150000D02*
D03*
Y110000D02*
D03*
X325000Y40000D02*
D03*
X300000Y50000D02*
D03*
X385000D02*
D03*
X190000Y44000D02*
D03*
X120000Y58000D02*
D03*
X235000Y160000D02*
D03*
X353000D02*
D03*
X234729Y65000D02*
D03*
X200000D02*
D03*
X229000Y75000D02*
D03*
X291000Y305000D02*
D03*
Y319000D02*
D03*
X358000D02*
D03*
X285000Y350000D02*
D03*
X285014Y362858D02*
D03*
X170000Y337000D02*
D03*
X130000Y270000D02*
D03*
X120000Y285000D02*
D03*
D67*
X25000Y375000D02*
D03*
X575000D02*
D03*
Y25000D02*
D03*
X25000D02*
D03*
M02*
