G04*
G04 #@! TF.GenerationSoftware,Altium Limited,Altium Designer,21.9.2 (33)*
G04*
G04 Layer_Color=8388736*
%FSLAX25Y25*%
%MOIN*%
G70*
G04*
G04 #@! TF.SameCoordinates,86937909-DB1A-4A49-A316-6C6AAAB68E2C*
G04*
G04*
G04 #@! TF.FilePolarity,Negative*
G04*
G01*
G75*
G04:AMPARAMS|DCode=16|XSize=120.24mil|YSize=29.69mil|CornerRadius=9.92mil|HoleSize=0mil|Usage=FLASHONLY|Rotation=0.000|XOffset=0mil|YOffset=0mil|HoleType=Round|Shape=RoundedRectangle|*
%AMROUNDEDRECTD16*
21,1,0.12024,0.00984,0,0,0.0*
21,1,0.10039,0.02969,0,0,0.0*
1,1,0.01984,0.05020,-0.00492*
1,1,0.01984,-0.05020,-0.00492*
1,1,0.01984,-0.05020,0.00492*
1,1,0.01984,0.05020,0.00492*
%
%ADD16ROUNDEDRECTD16*%
G04:AMPARAMS|DCode=17|XSize=147.8mil|YSize=90.71mil|CornerRadius=25.18mil|HoleSize=0mil|Usage=FLASHONLY|Rotation=0.000|XOffset=0mil|YOffset=0mil|HoleType=Round|Shape=RoundedRectangle|*
%AMROUNDEDRECTD17*
21,1,0.14780,0.04036,0,0,0.0*
21,1,0.09744,0.09071,0,0,0.0*
1,1,0.05035,0.04872,-0.02018*
1,1,0.05035,-0.04872,-0.02018*
1,1,0.05035,-0.04872,0.02018*
1,1,0.05035,0.04872,0.02018*
%
%ADD17ROUNDEDRECTD17*%
G04:AMPARAMS|DCode=18|XSize=167.48mil|YSize=90.71mil|CornerRadius=25.18mil|HoleSize=0mil|Usage=FLASHONLY|Rotation=0.000|XOffset=0mil|YOffset=0mil|HoleType=Round|Shape=RoundedRectangle|*
%AMROUNDEDRECTD18*
21,1,0.16748,0.04035,0,0,0.0*
21,1,0.11713,0.09071,0,0,0.0*
1,1,0.05035,0.05856,-0.02018*
1,1,0.05035,-0.05856,-0.02018*
1,1,0.05035,-0.05856,0.02018*
1,1,0.05035,0.05856,0.02018*
%
%ADD18ROUNDEDRECTD18*%
G04:AMPARAMS|DCode=19|XSize=147.8mil|YSize=90.71mil|CornerRadius=25.18mil|HoleSize=0mil|Usage=FLASHONLY|Rotation=0.000|XOffset=0mil|YOffset=0mil|HoleType=Round|Shape=RoundedRectangle|*
%AMROUNDEDRECTD19*
21,1,0.14780,0.04035,0,0,0.0*
21,1,0.09744,0.09071,0,0,0.0*
1,1,0.05035,0.04872,-0.02018*
1,1,0.05035,-0.04872,-0.02018*
1,1,0.05035,-0.04872,0.02018*
1,1,0.05035,0.04872,0.02018*
%
%ADD19ROUNDEDRECTD19*%
%ADD20R,0.06906X0.07299*%
%ADD21R,0.05921X0.06709*%
%ADD22R,0.07693X0.12417*%
%ADD23R,0.12811X0.07299*%
%ADD24O,0.02772X0.07299*%
%ADD25O,0.08480X0.03362*%
%ADD26O,0.10055X0.03362*%
%ADD27R,0.23047X0.09268*%
%ADD28C,0.07500*%
%ADD29R,0.07500X0.07500*%
%ADD30C,0.15500*%
%ADD31C,0.04543*%
%ADD32R,0.11000X0.11000*%
%ADD33C,0.11000*%
%ADD34R,0.07500X0.07500*%
%ADD35C,0.08000*%
%ADD36R,0.08000X0.08000*%
%ADD37C,0.06000*%
%ADD38C,0.19000*%
D16*
X562508Y305339D02*
D03*
Y311638D02*
D03*
Y308488D02*
D03*
Y299039D02*
D03*
Y302189D02*
D03*
D17*
X562409Y324728D02*
D03*
D18*
X579142D02*
D03*
Y285949D02*
D03*
D19*
X562409D02*
D03*
D20*
X472839Y130000D02*
D03*
X465161D02*
D03*
X490591Y272500D02*
D03*
X498268D02*
D03*
X474268D02*
D03*
X466590D02*
D03*
X533000Y207000D02*
D03*
X525323D02*
D03*
X502161Y124000D02*
D03*
X509839D02*
D03*
X375000Y121000D02*
D03*
X367323D02*
D03*
X521161Y280000D02*
D03*
X528839D02*
D03*
X441323Y314000D02*
D03*
X449000D02*
D03*
X424161Y121000D02*
D03*
X431839D02*
D03*
D21*
X473429Y178000D02*
D03*
X464571D02*
D03*
Y154071D02*
D03*
X473429D02*
D03*
D22*
X451000Y73594D02*
D03*
Y60405D02*
D03*
X536484Y69595D02*
D03*
Y82784D02*
D03*
D23*
X496823Y95189D02*
D03*
X514146D02*
D03*
X571661Y251000D02*
D03*
X554339D02*
D03*
X420178Y94000D02*
D03*
X437501D02*
D03*
D24*
X511484Y151795D02*
D03*
X514043D02*
D03*
X516602D02*
D03*
X519161D02*
D03*
X521721D02*
D03*
X524279D02*
D03*
X526839D02*
D03*
X529398D02*
D03*
X531957D02*
D03*
X534516D02*
D03*
X511484Y176205D02*
D03*
X514043D02*
D03*
X516602D02*
D03*
X519161D02*
D03*
X521721D02*
D03*
X524279D02*
D03*
X526839D02*
D03*
X529398D02*
D03*
X531957D02*
D03*
X534516D02*
D03*
D25*
X472496Y329000D02*
D03*
Y324000D02*
D03*
Y319000D02*
D03*
Y314000D02*
D03*
Y309000D02*
D03*
Y304000D02*
D03*
Y299000D02*
D03*
Y294000D02*
D03*
X491000Y329000D02*
D03*
Y324000D02*
D03*
Y319000D02*
D03*
Y314000D02*
D03*
Y309000D02*
D03*
Y304000D02*
D03*
Y299000D02*
D03*
Y294000D02*
D03*
D26*
X328295Y62610D02*
D03*
Y67610D02*
D03*
Y72610D02*
D03*
Y77610D02*
D03*
Y82610D02*
D03*
Y87610D02*
D03*
Y92610D02*
D03*
Y97610D02*
D03*
Y102610D02*
D03*
Y107610D02*
D03*
X292468Y62610D02*
D03*
Y67610D02*
D03*
Y72610D02*
D03*
Y77610D02*
D03*
Y82610D02*
D03*
Y87610D02*
D03*
Y92610D02*
D03*
Y97610D02*
D03*
Y102610D02*
D03*
Y107610D02*
D03*
D27*
X499701Y249616D02*
D03*
X462299D02*
D03*
D28*
X302000Y372500D02*
D03*
X312000D02*
D03*
X322000D02*
D03*
X332000D02*
D03*
X342000D02*
D03*
X352000D02*
D03*
X362000D02*
D03*
X583000Y157000D02*
D03*
Y167000D02*
D03*
Y177000D02*
D03*
X295000Y20000D02*
D03*
X285000D02*
D03*
X275000D02*
D03*
X265000D02*
D03*
X255000D02*
D03*
X375000D02*
D03*
X365000D02*
D03*
X355000D02*
D03*
X345000D02*
D03*
X335000D02*
D03*
X199706Y12500D02*
D03*
X189707D02*
D03*
X179707D02*
D03*
X169706D02*
D03*
X159706D02*
D03*
D29*
X372000Y372500D02*
D03*
X245000Y20000D02*
D03*
X325000D02*
D03*
X149706Y12500D02*
D03*
D30*
X283800Y375600D02*
D03*
X388918D02*
D03*
Y249616D02*
D03*
X283800D02*
D03*
D31*
X571661Y314000D02*
D03*
Y296677D02*
D03*
D32*
X501500Y25306D02*
D03*
X425340D02*
D03*
D33*
X521500D02*
D03*
X445340D02*
D03*
D34*
X583000Y147000D02*
D03*
D35*
X200000Y325000D02*
D03*
Y315000D02*
D03*
X190000Y325000D02*
D03*
Y315000D02*
D03*
X180000Y325000D02*
D03*
Y315000D02*
D03*
X170000Y325000D02*
D03*
Y315000D02*
D03*
X160000Y325000D02*
D03*
Y315000D02*
D03*
X150000Y325000D02*
D03*
Y315000D02*
D03*
X140000Y325000D02*
D03*
Y315000D02*
D03*
X130000Y325000D02*
D03*
Y315000D02*
D03*
X120000Y325000D02*
D03*
Y315000D02*
D03*
X110000Y325000D02*
D03*
Y315000D02*
D03*
X100000Y325000D02*
D03*
Y315000D02*
D03*
X90000Y325000D02*
D03*
Y315000D02*
D03*
X80000Y325000D02*
D03*
Y315000D02*
D03*
X70000Y325000D02*
D03*
Y315000D02*
D03*
X60000Y325000D02*
D03*
Y315000D02*
D03*
X50000Y325000D02*
D03*
Y315000D02*
D03*
X40000Y325000D02*
D03*
Y315000D02*
D03*
X30000Y325000D02*
D03*
Y315000D02*
D03*
X20000Y325000D02*
D03*
X200000Y85000D02*
D03*
Y75000D02*
D03*
X190000Y85000D02*
D03*
Y75000D02*
D03*
X180000Y85000D02*
D03*
Y75000D02*
D03*
X170000Y85000D02*
D03*
Y75000D02*
D03*
X160000Y85000D02*
D03*
Y75000D02*
D03*
X150000Y85000D02*
D03*
Y75000D02*
D03*
X140000Y85000D02*
D03*
Y75000D02*
D03*
X130000Y85000D02*
D03*
Y75000D02*
D03*
X120000Y85000D02*
D03*
Y75000D02*
D03*
X110000Y85000D02*
D03*
Y75000D02*
D03*
X100000Y85000D02*
D03*
Y75000D02*
D03*
X90000Y85000D02*
D03*
Y75000D02*
D03*
X80000Y85000D02*
D03*
Y75000D02*
D03*
X70000Y85000D02*
D03*
Y75000D02*
D03*
X60000Y85000D02*
D03*
Y75000D02*
D03*
X50000Y85000D02*
D03*
Y75000D02*
D03*
X40000Y85000D02*
D03*
Y75000D02*
D03*
X30000Y85000D02*
D03*
Y75000D02*
D03*
X20000Y85000D02*
D03*
D36*
Y315000D02*
D03*
Y75000D02*
D03*
D37*
X590000Y360000D02*
D03*
X580000Y340000D02*
D03*
Y300000D02*
D03*
Y260000D02*
D03*
X590000Y240000D02*
D03*
X580000Y220000D02*
D03*
X590000Y200000D02*
D03*
Y120000D02*
D03*
X580000Y100000D02*
D03*
X590000Y80000D02*
D03*
X580000Y60000D02*
D03*
X590000Y40000D02*
D03*
X560000Y340000D02*
D03*
Y260000D02*
D03*
X570000Y240000D02*
D03*
X560000Y220000D02*
D03*
X570000Y200000D02*
D03*
X560000Y140000D02*
D03*
X570000Y120000D02*
D03*
X560000Y100000D02*
D03*
X570000Y80000D02*
D03*
X560000Y60000D02*
D03*
X540000Y380000D02*
D03*
X550000Y360000D02*
D03*
Y320000D02*
D03*
Y280000D02*
D03*
Y240000D02*
D03*
X540000Y220000D02*
D03*
X550000Y200000D02*
D03*
Y120000D02*
D03*
Y80000D02*
D03*
Y40000D02*
D03*
X540000Y20000D02*
D03*
X520000Y380000D02*
D03*
X530000Y360000D02*
D03*
X520000Y300000D02*
D03*
Y260000D02*
D03*
X530000Y240000D02*
D03*
X520000Y220000D02*
D03*
Y60000D02*
D03*
X530000Y40000D02*
D03*
X500000Y380000D02*
D03*
X510000Y360000D02*
D03*
Y320000D02*
D03*
X500000Y300000D02*
D03*
X510000Y280000D02*
D03*
Y240000D02*
D03*
X500000Y220000D02*
D03*
Y180000D02*
D03*
X510000Y80000D02*
D03*
X500000Y60000D02*
D03*
X510000Y40000D02*
D03*
X480000Y380000D02*
D03*
X490000Y360000D02*
D03*
X480000Y260000D02*
D03*
X490000Y240000D02*
D03*
X480000Y220000D02*
D03*
X490000Y120000D02*
D03*
X480000Y100000D02*
D03*
X490000Y80000D02*
D03*
X480000Y60000D02*
D03*
X490000Y40000D02*
D03*
X480000Y20000D02*
D03*
X460000Y380000D02*
D03*
X470000Y360000D02*
D03*
X460000Y340000D02*
D03*
Y300000D02*
D03*
X470000Y240000D02*
D03*
X460000Y220000D02*
D03*
X470000Y120000D02*
D03*
X460000Y100000D02*
D03*
X470000Y80000D02*
D03*
X460000Y60000D02*
D03*
X470000Y40000D02*
D03*
X460000Y20000D02*
D03*
X440000Y380000D02*
D03*
X450000Y360000D02*
D03*
X440000Y340000D02*
D03*
Y300000D02*
D03*
X450000Y280000D02*
D03*
X440000Y260000D02*
D03*
X450000Y240000D02*
D03*
X440000Y220000D02*
D03*
Y180000D02*
D03*
X450000Y160000D02*
D03*
X420000Y380000D02*
D03*
X430000Y360000D02*
D03*
X420000Y340000D02*
D03*
Y300000D02*
D03*
X430000Y280000D02*
D03*
X420000Y260000D02*
D03*
X430000Y240000D02*
D03*
X420000Y220000D02*
D03*
Y180000D02*
D03*
X430000Y160000D02*
D03*
Y80000D02*
D03*
X420000Y60000D02*
D03*
X430000Y40000D02*
D03*
X410000Y360000D02*
D03*
X400000Y340000D02*
D03*
Y300000D02*
D03*
X410000Y280000D02*
D03*
X400000Y260000D02*
D03*
X410000Y240000D02*
D03*
X400000Y220000D02*
D03*
Y180000D02*
D03*
X410000Y160000D02*
D03*
Y120000D02*
D03*
X400000Y100000D02*
D03*
X410000Y80000D02*
D03*
X400000Y60000D02*
D03*
X410000Y40000D02*
D03*
X400000Y20000D02*
D03*
X390000Y360000D02*
D03*
X380000Y340000D02*
D03*
Y300000D02*
D03*
X390000Y280000D02*
D03*
X380000Y260000D02*
D03*
Y220000D02*
D03*
Y180000D02*
D03*
X390000Y160000D02*
D03*
Y120000D02*
D03*
X380000Y100000D02*
D03*
X390000Y80000D02*
D03*
Y40000D02*
D03*
X360000Y380000D02*
D03*
Y300000D02*
D03*
X370000Y280000D02*
D03*
X360000Y260000D02*
D03*
X370000Y240000D02*
D03*
X360000Y220000D02*
D03*
Y180000D02*
D03*
X370000Y160000D02*
D03*
X360000Y60000D02*
D03*
X340000Y380000D02*
D03*
X350000Y360000D02*
D03*
X340000Y140000D02*
D03*
X350000Y80000D02*
D03*
Y40000D02*
D03*
X310000Y360000D02*
D03*
X280000Y300000D02*
D03*
Y220000D02*
D03*
Y140000D02*
D03*
X290000Y40000D02*
D03*
X260000Y380000D02*
D03*
X270000Y320000D02*
D03*
X260000Y300000D02*
D03*
Y260000D02*
D03*
X240000Y380000D02*
D03*
X250000Y320000D02*
D03*
X240000Y300000D02*
D03*
Y260000D02*
D03*
Y220000D02*
D03*
X220000Y380000D02*
D03*
X230000Y320000D02*
D03*
X220000Y300000D02*
D03*
Y260000D02*
D03*
X230000Y40000D02*
D03*
X200000Y380000D02*
D03*
X210000Y320000D02*
D03*
X200000Y300000D02*
D03*
Y260000D02*
D03*
Y220000D02*
D03*
X210000Y160000D02*
D03*
X200000Y140000D02*
D03*
X210000Y40000D02*
D03*
X180000Y380000D02*
D03*
Y300000D02*
D03*
Y260000D02*
D03*
Y220000D02*
D03*
X190000Y160000D02*
D03*
X180000Y60000D02*
D03*
X160000Y380000D02*
D03*
Y300000D02*
D03*
Y260000D02*
D03*
Y220000D02*
D03*
X170000Y160000D02*
D03*
X160000Y60000D02*
D03*
X140000Y380000D02*
D03*
Y300000D02*
D03*
Y260000D02*
D03*
Y220000D02*
D03*
Y180000D02*
D03*
X150000Y160000D02*
D03*
X140000Y140000D02*
D03*
Y100000D02*
D03*
Y60000D02*
D03*
X150000Y40000D02*
D03*
X140000Y20000D02*
D03*
X120000Y380000D02*
D03*
Y260000D02*
D03*
Y220000D02*
D03*
Y180000D02*
D03*
X130000Y160000D02*
D03*
X120000Y140000D02*
D03*
Y100000D02*
D03*
X130000Y40000D02*
D03*
X100000Y380000D02*
D03*
Y340000D02*
D03*
X110000Y280000D02*
D03*
X100000Y260000D02*
D03*
Y220000D02*
D03*
Y180000D02*
D03*
X110000Y160000D02*
D03*
X100000Y140000D02*
D03*
Y60000D02*
D03*
X110000Y40000D02*
D03*
X100000Y20000D02*
D03*
X80000Y380000D02*
D03*
Y340000D02*
D03*
Y220000D02*
D03*
Y180000D02*
D03*
X90000Y160000D02*
D03*
X80000Y140000D02*
D03*
Y100000D02*
D03*
Y60000D02*
D03*
X90000Y40000D02*
D03*
X80000Y20000D02*
D03*
X60000Y380000D02*
D03*
X70000Y360000D02*
D03*
X60000Y340000D02*
D03*
Y300000D02*
D03*
X70000Y280000D02*
D03*
X60000Y260000D02*
D03*
X70000Y240000D02*
D03*
X60000Y220000D02*
D03*
Y180000D02*
D03*
X70000Y160000D02*
D03*
X60000Y140000D02*
D03*
Y100000D02*
D03*
Y60000D02*
D03*
X70000Y40000D02*
D03*
X60000Y20000D02*
D03*
X50000Y360000D02*
D03*
X40000Y340000D02*
D03*
Y300000D02*
D03*
Y260000D02*
D03*
Y220000D02*
D03*
Y180000D02*
D03*
X50000Y160000D02*
D03*
X40000Y140000D02*
D03*
X50000Y120000D02*
D03*
X40000Y100000D02*
D03*
Y60000D02*
D03*
X50000Y40000D02*
D03*
X20000Y340000D02*
D03*
X30000Y280000D02*
D03*
Y240000D02*
D03*
X20000Y180000D02*
D03*
X30000Y160000D02*
D03*
X20000Y140000D02*
D03*
X30000Y120000D02*
D03*
X20000Y100000D02*
D03*
Y60000D02*
D03*
X519161Y142000D02*
D03*
X519000Y197000D02*
D03*
X502000Y142000D02*
D03*
X322000Y259000D02*
D03*
X308000Y292000D02*
D03*
X180000Y102000D02*
D03*
X332000Y305000D02*
D03*
Y292000D02*
D03*
X297204Y269000D02*
D03*
Y287000D02*
D03*
X296000Y259000D02*
D03*
X302000Y355000D02*
D03*
X230000Y22794D02*
D03*
X493000Y156161D02*
D03*
Y196000D02*
D03*
X455000Y184000D02*
D03*
X360000Y196000D02*
D03*
Y212000D02*
D03*
X215000D02*
D03*
X455000Y203975D02*
D03*
X360000Y204000D02*
D03*
X215000D02*
D03*
X360000Y188000D02*
D03*
X215000Y196000D02*
D03*
Y188000D02*
D03*
Y180000D02*
D03*
X325000Y181000D02*
D03*
X332000Y172000D02*
D03*
X245000D02*
D03*
X338000Y166000D02*
D03*
X229000D02*
D03*
X346000Y120000D02*
D03*
X274000Y38000D02*
D03*
X280500Y87500D02*
D03*
X342000Y82610D02*
D03*
X351000Y110000D02*
D03*
X255000Y120000D02*
D03*
X150000D02*
D03*
Y110000D02*
D03*
X325000Y40000D02*
D03*
X300000Y50000D02*
D03*
X385000D02*
D03*
X190000Y44000D02*
D03*
X120000Y58000D02*
D03*
X235000Y160000D02*
D03*
X353000D02*
D03*
X234729Y65000D02*
D03*
X200000D02*
D03*
X229000Y75000D02*
D03*
X291000Y305000D02*
D03*
Y319000D02*
D03*
X358000D02*
D03*
X285000Y350000D02*
D03*
X285014Y362858D02*
D03*
X170000Y337000D02*
D03*
X130000Y270000D02*
D03*
X120000Y285000D02*
D03*
D38*
X25000Y375000D02*
D03*
X575000D02*
D03*
Y25000D02*
D03*
X25000D02*
D03*
M02*
