M48
;Layer_Color=9474304
;FILE_FORMAT=2:5
INCH,LZ
;TYPE=PLATED
T1F00S00C0.02800
T2F00S00C0.04000
T3F00S00C0.05500
T4F00S00C0.11500
T5F00S00C0.13600
;TYPE=NON_PLATED
T6F00S00C0.03543
%
T01
X005Y004
X007
X009
X011
X013
X015
X014Y002
X01
X008
X006
X019Y0044
X021Y004
X023
Y0022794
X0274Y0038
X029Y004
X03Y005
X0325Y004
X035
X039
X0385Y005
X041Y004
X043
X047
X049
X051
X048Y002
X046
X04
X054
X055Y004
X053
X059
X058Y006
X056
X057Y008
X059
X058Y01
X056
X057Y012
X059
X055
X056Y014
X057Y02
X059
X055
Y008
X051
X049
X047
X048Y01
X046
X047Y012
X049
X0502Y0142
X0519161
X0493Y0156161
X05Y018
X0493Y0196
X0519Y0197
X0455Y0203975
Y0184
X044Y018
X042
X04
X038
X039Y016
X041
X043
X045
X041Y012
X039
X04Y01
X038
X039Y008
X041
X043
X042Y006
X04
X046
X048
X05
X052
X037Y016
X0353
X0338Y0166
X0332Y0172
X0325Y0181
X036Y018
Y0188
Y0196
Y0204
Y0212
X034Y014
X0346Y012
X0351Y011
X035Y008
X0342Y008261
X036Y006
X02805Y00875
X028Y014
X0255Y012
X0235Y016
X0229Y0166
X0245Y0172
X0215Y018
Y0188
Y0196
Y0204
Y0212
X0229Y0075
X0234729Y0065
X02
X018Y006
X016
X014
X012Y0058
X01Y006
X008
X006
Y01
X008
X012
X014
X015Y011
Y012
X014Y014
X012
X01
X008
X006
X007Y016
X009
X011
X013
X015
X017
X019
X021
X02Y014
X018Y0102
X014Y018
X012
X01
X008
X006
X004
X002
X003Y016
X005
X004Y014
X002
X003Y012
X005
X004Y01
X002
Y006
X004
Y022
X003Y024
X004Y026
X003Y028
X004Y03
Y034
X002
X005Y036
X007
X008Y034
X01
X006
Y03
X007Y028
X006Y026
X007Y024
X008Y022
X01
X012
X014
X016
X018
X02
Y026
X018
X016
X014
X012
X01
X011Y028
X012Y0285
X013Y027
X014Y03
X016
X018
X02
X021Y032
X017Y0337
X006Y022
X024
X028
X0296Y0259
X0297204Y0269
Y0287
X0308Y0292
X0332
Y0305
X036Y03
X0358Y0319
X035Y036
X031
X0302Y0355
X0285Y035
X0285014Y0362858
X0291Y0319
Y0305
X028Y03
X026
X024
X022
X023Y032
X025
X027
X026Y026
X024
X022
X0322Y0259
X036Y026
Y022
X038
X04
X042
X044
X046
X048
X05
X052
X051Y024
X049
X047
X045
X043
X041
X042Y026
X044
X045Y028
X043
X041
X039
X037
X038Y03
X04
X042
X044
X046
X05
X052
X051Y032
Y036
X049
X047
X045
X043
X041
X039
X04Y034
X042
X044
X046
X038
Y026
X04
X037Y024
X048Y026
X052
X051Y028
X055
X056Y026
X058
X059Y024
X057
X055
X053
X054Y022
X056
X058
Y03
Y034
X056
X055Y036
X053
X059
X055Y032
X054Y038
X052
X05
X048
X046
X044
X042
X036
X034
X026
X024
X022
X02
X018
X016
X014
X012
X01
X008
X006
T02
X0149706Y00125
X0159706
X0169706
X0179707
X0189707
X0199706
X0245Y002
X0255
X0265
X0275
X0285
X0295
X0325
X0335
X0345
X0355
X0365
X0375
X0583Y0147
Y0157
Y0167
Y0177
X02Y0085
Y0075
X019
Y0085
X018
Y0075
X017
Y0085
X016
Y0075
X015
Y0085
X014
Y0075
X013
Y0085
X012
Y0075
X011
Y0085
X01
Y0075
X009
Y0085
X008
Y0075
X007
Y0085
X006
Y0075
X005
Y0085
X004
Y0075
X003
Y0085
X002
Y0075
Y0315
X003
X004
X005
Y0325
X004
X003
X002
X006
X007
X008
X009
X01
X011
X012
X013
X014
X015
X016
X017
X018
X019
X02
Y0315
X019
X018
X017
X016
X015
X014
X013
X012
X011
X01
X009
X008
X007
X006
X0372Y03725
X0362
X0352
X0342
X0332
X0322
X0312
X0302
T03
X042534Y0025306
X044534
X05015
X05215
T04
X02838Y0249616
X0388918
Y03756
X02838
T05
X0025Y0025
X0575
Y0375
X0025
T06
X0571661Y0296677
Y0314
M30
